<mxfile host="app.diagrams.net" agent="Mozilla/5.0 (Windows NT 10.0; Win64; x64) AppleWebKit/537.36 (KHTML, like Gecko) Chrome/128.0.0.0 Safari/537.36" version="24.7.10">
  <diagram name="Page-1" id="YFZ21Ih1EOlpKVf8m3o0">
    <mxGraphModel dx="2883" dy="1657" grid="1" gridSize="10" guides="1" tooltips="1" connect="1" arrows="1" fold="1" page="1" pageScale="1" pageWidth="850" pageHeight="1100" math="0" shadow="0">
      <root>
        <mxCell id="0" />
        <mxCell id="1" parent="0" />
        <mxCell id="S7neUsD2zat62h7z_fcm-22" value="&lt;div&gt;WORKDAY&lt;/div&gt;&lt;div&gt;&lt;br&gt;&lt;/div&gt;&lt;div&gt;&lt;br&gt;&lt;/div&gt;&lt;div&gt;&lt;br&gt;&lt;/div&gt;&lt;div&gt;&lt;br&gt;&lt;/div&gt;&lt;div&gt;&lt;br&gt;&lt;/div&gt;&lt;div&gt;&lt;br&gt;&lt;/div&gt;&lt;div&gt;&lt;br&gt;&lt;/div&gt;&lt;div&gt;&lt;br&gt;&lt;/div&gt;&lt;div&gt;&lt;br&gt;&lt;/div&gt;&lt;div&gt;&lt;br&gt;&lt;/div&gt;" style="rounded=1;whiteSpace=wrap;html=1;shadow=1;" parent="1" vertex="1">
          <mxGeometry x="-1650" y="-729.87" width="480" height="219.87" as="geometry" />
        </mxCell>
        <mxCell id="S7neUsD2zat62h7z_fcm-20" value="&lt;div&gt;&lt;br&gt;&lt;/div&gt;&lt;div&gt;SOUTH EAST WATER&lt;/div&gt;&lt;div&gt;&lt;br&gt;&lt;/div&gt;&lt;div&gt;&lt;br&gt;&lt;/div&gt;&lt;div&gt;&lt;br&gt;&lt;/div&gt;&lt;div&gt;&lt;br&gt;&lt;/div&gt;&lt;div&gt;&lt;br&gt;&lt;/div&gt;&lt;div&gt;&lt;br&gt;&lt;/div&gt;&lt;div&gt;&lt;br&gt;&lt;/div&gt;&lt;div&gt;&lt;br&gt;&lt;/div&gt;&lt;div&gt;&lt;br&gt;&lt;/div&gt;&lt;div&gt;&lt;br&gt;&lt;/div&gt;&lt;div&gt;&lt;br&gt;&lt;/div&gt;" style="rounded=1;whiteSpace=wrap;html=1;shadow=1;" parent="1" vertex="1">
          <mxGeometry x="-1150" y="-730" width="340" height="180" as="geometry" />
        </mxCell>
        <mxCell id="S7neUsD2zat62h7z_fcm-11" style="edgeStyle=orthogonalEdgeStyle;rounded=0;orthogonalLoop=1;jettySize=auto;html=1;strokeWidth=2;strokeColor=#4D4D4D;shadow=1;" parent="1" source="S7neUsD2zat62h7z_fcm-2" edge="1">
          <mxGeometry relative="1" as="geometry">
            <mxPoint x="-1350" y="-640" as="targetPoint" />
          </mxGeometry>
        </mxCell>
        <mxCell id="S7neUsD2zat62h7z_fcm-2" value="&lt;div style=&quot;font-size: 11px;&quot;&gt;&lt;font style=&quot;font-size: 11px;&quot;&gt;&lt;br&gt;&lt;/font&gt;&lt;/div&gt;&lt;div style=&quot;font-size: 11px;&quot;&gt;&lt;font style=&quot;font-size: 11px;&quot;&gt;&lt;br&gt;&lt;/font&gt;&lt;/div&gt;&lt;div style=&quot;font-size: 11px;&quot;&gt;&lt;font style=&quot;font-size: 11px;&quot;&gt;&lt;span style=&quot;background-color: initial;&quot;&gt;HCM, Recruiting&lt;/span&gt;&lt;br&gt;&lt;/font&gt;&lt;/div&gt;&lt;div style=&quot;font-size: 11px;&quot;&gt;&lt;span style=&quot;background-color: initial;&quot;&gt;&lt;font style=&quot;font-size: 11px;&quot;&gt;UK Payroll&lt;/font&gt;&lt;/span&gt;&lt;/div&gt;" style="shape=cylinder3;whiteSpace=wrap;html=1;boundedLbl=1;backgroundOutline=1;size=15;fillColor=#ffe6cc;strokeColor=#FFFFFF;shadow=1;" parent="1" vertex="1">
          <mxGeometry x="-1620" y="-695" width="150" height="110" as="geometry" />
        </mxCell>
        <mxCell id="S7neUsD2zat62h7z_fcm-3" value="" style="shape=image;verticalLabelPosition=bottom;labelBackgroundColor=default;verticalAlign=top;aspect=fixed;imageAspect=0;image=data:image/png,iVBORw0KGgoAAAANSUhEUgAAANMAAABVCAYAAADT7tEcAAAAAXNSR0IArs4c6QAAAARnQU1BAACxjwv8YQUAAAAJcEhZcwAAFxEAABcRAcom8z8AACAVSURBVHhe7V0HdFzVmb4jWbbBGEJJYnYTSNndAAmQShpZSCPZQLLZTZxCc2Jr3psZNTdCnKbkUGzJFnLBYGOCg40tvfdmVFwxgdiwCyEcWkJJII26xoAdSZaLbEuz3/e/+55Go6myjGXzvnPumdHc/t//u/9/y3tSAUY2Xq5Vp+ycqy7MFfYgdM1T5ydr1VidLUCANyf6VqhxW+eqcR2z1Xt21qub9zaqFV31buisV08lb1TJnGGxSvYtUMmuueoBL1/vfLViZ52ajTJPZNl9CLq6AAGOLnTXqQ/33ai+DMvy830L1FYQYSuItF3IcVN/6AVJkCZv6J6H9AtT8t7sE+wVxG/d2yDlV7DOjnr1Xt2MAAGOTCSXqlNgaebsvUHdBuvRKRYFBNjXqJL7EfjZnYEoQw0kWGrZQjbUibi/7p+vlnTWqauSywPXMMARgleuU29PLlMXwhLduH+hejm5yLUcINQg5T/UwSMqiCSWS4i2QD3fVad+gr8vxPrsWN3sAAFGFuBizQJpHqPi0l2jEtNapCt5MWFPg0sCht34nilNoWEX2nIAbWLbSPADC9TdXfOUoZsfIMDhRXe9mnBgkZoE4vxJ3CoEKm4+940ko3Iz9MBqeeue9CDl1KvXkWcHrVumNHTlSDqvvLx160/m6wFJO+eqp/tuUpf88So1XncrQIA3DslaVYJ10A/33KD+QKXkbE9FTlfc1EACcZOAhKOFIAH4iXK2QaGvxeeP00PHHPWdXXPVx7bPUZ/C+ut7u+cNTgOLuBChh9aLZYrlQR35NjOQR6ydpEcf9s1Xm/FbRHcxQIBDD8zsk3oXqie5HiI5MimqF0ggKrhYEKSHsj4JAj2OdUvjjtnq3L6F6tyOG9R7dNFDBso9q6dBncsyO+uUdaARddSrP0u9sHpisXKQndaKO4vcvEB4fOds9TlddIAAww+sL87ouxEWZK7qpeJlU04osWw4eBYCf++FKzcH+WYlbVWqizvk4JkT2nMtrM+NXnsYaI3QlsHtRoDl83YAd8DS/RiTxVt1cQECHDzg0o3qu1mdh7XLX5PLsisjg8zwsAZ7G9RepP8fWJ7P4PMcXdRhA11FWKevod1/EEvpEiZjYN9kfXYr/mYfGtWZupgAAYaO5FJVBsti9cJFowuUSfkYfEuEdL2L1WqQ6mJdxIgD114HFqkNJJS3dsvUJwZv9w+kmqOzBwhQPHZco07vrldNtDTZtqXp6jEei/fdIN3dexrVhTr7iMaTtWp032J1EazQ70GmPq6rMvWPQawUiAfrVvf6teqfdREBAhSGjjplQMn2cVbOtjbyZm0o5eo9N6iLkC3k5j5ywDUcrM7lsFTruQ7kjmCmvnIy4WZLT6Pa0TFHfUlnDxAgN7pApH2LVK8cuqYplb+egDVC3DN0mXS2Ixr2RFUKIv0MfdxBK5RpAuFvvQvlFsXOHXXqEp01QIDMIJFobXiYmb7JwL97QTAs5PfD5bmj6yjc6UIfz8JksYVWiJNGav9FBvWuNd7bqHaBXIGFCpAZUI7yfQtVbyZXR3bpeMeuQe3orFNf0VmOSrzQoI4BqSJw7fq4oZIuC04qB0Co/QtV1/bZI3ejJcBhAmZcU2bjDBaJ6wW5UbBQPfSPOvVZneWoB9ZSl4Iwz2c6U/MsFNaKu4M1VAAfUJTJPQtUX7pFIqnkTAbKBMW6bsccdYLO8qZB13XqjN3z1G3eLYp0+dBCwZp3dgYWKoBnkTKtkTwiwTJdrZO/aYEJZwk3XQYRyrNQDWrv9qPc/Q2QA7RI+7JZJO7YgUhQlh/r5G92hCCLX2YiFINs2ixQXUf7ejJABtAt4TZvJovEXay+wCJlxO5GtTirhYI88X3v3jr1rzp5gKMdyYmqFIP+2/SdqsAiFQbI6pZMayjZ8XRlukwnDXA0A+uj4/c0qjtkhypFERhIpD4eWDaoWTp5gAxIwuWD9V6ciVD8uxeyxeccbrHrLAGORnTUq6rkLYO3ekksbkR0zVM/0kkD5EFnvVqW0bpz4waT0vbr1Sd10gBHG7oa1Zkg0YuDNhzg7yeXiCI066QBCsDWGWoc1pXynr/0dSfvLe5qUPfvvE69XScPcLQAVmcMSPMgF8+pg87AA9me+erVzgb1CZ08QIGATL8B2e3jPcZ0QtEDwOctOmmAowFyM3quqty/QB1I9/G5cwe35JUdc9T5OnmAIgHX+dLeBaqLN0VSZcs1KLyAzs656j900gBHOjoXqZM767LMnstUsnOOmq6TBhgiYKF+pS2RHyhrrqm66tRzOlmAIx0g0kKegaRvOuwDuXY3qk3dN6hTddIAQ8SeevVeWKLfc8JKlTE9gQM3qh5YrwqdNMCRCr6xZ898tT19kOmC0C15eY46TScNcJDYWac+K++WSJm0aJ34yD/c6Ue3zlVv00kDHGng+xs669VmDjB37FLJxN8wW87n49s6eYCDRN+tajzWn+08f0p1p2W3FL+BbHU6aYAjDbvmqq9yG5yvr0ol0v4F4vK92tGg/kUnDTBM2DlbfQFeQE/6g4UcB5Cqo2P2wb8jMMBhANZK9/IMJHVQeaDI+3hwRb6okwUYZkDuNek3TOSqEb2BOjVXJwtwpKBrjjp/d6PaLsRJGVRuRGBA730jXwb5ZkP3tepUrEef4QZPquwPQPaYzB7ZOT84yD1iwPeAd85T1+hbDf5gypWhxWp/d2Nw7nGosbNeTe+7WfWmWidZO92skljHXsn7fTppgJGMzkb1vl3zVBd37LyBZJCdprnqzuB/wR56wM07DkR6hv/cLXUMxFrVq7+9GZ9aPiKxvUGdLRsPKSfyPO/YO1/1ds5RM3Wyw4va2hJlPFzmh4n2yHM7a5Mlo6PWdFW1dkmoev2ScZXOd6XdBQIWKMGHBlOtkzw/Vq92dtSqk3SyACMZO+rVOUkMYiqZ+GpjDO7+voYRMohh5yJVteE5ZdjPqcq1z4VMp/2sWntkbdMbViQ0/e6kmnpXUk37dTJUua5XheNf0LF5satBnccbEKnjoHf19vCfCuhkAUYyOOt1zlVtXDNxMCXcJGRaNGI2HsLxb6hp9yRVRXtS1WxKlprOC+f+aO3IevWwaf2YJFKm44aaO5Oq3PovHZsXfXVqPIjTnj4OWMfOh6sdnO8dKeAt8T2NasWBBerB3kXqwT0NI2xL1oh/HZbJVdKKNcnSiP3sh65q+ycdOzJgWFerqZv6yVS1PqnC1td0bEEgabB2vZ3jcADjsOsGNS+ZDDYfAgwn3iRkChDg0CMgU4AAw4SATAECDBMCMgUIMEwIyBQgwDAhIFOAAMOEgExHMWo3j1Ixe4KKrZugZm6eoKYsK+6mAPNJQBkzfzdB1daO0jF5cfLkW8dLnQyTlr9F/1wcjKVlUq/0ISXMRJumWAd/64Fls30ZcKKx9ASJ8+tE2gvy9P9gyHT5irf58p6yemg3sKust/rjJUF/T8Vwk2lymzvOfp263intxffhkqXH+mVR3kPBNxuOcXVm3YRjUc7pk5YP053NWOsHVSTRrSLxbhVt7Vaxtr8pw/mojs2NsD0DCtENgbuhci3KaWlFeXkfU56AQS2JtTyqYu2ok/W2P1twvcDba5reVRJbcwXa3aYqUK/XBi9EW7pR3t9U9Z3fV5euKv4KS8w+Thn2Lapyndsv05mtqhaM0bFqVHj1x0sr2p4QmXl1Sv8TbTn7P1QyhZsuwti8ljJWu1TEmaxj84Pkq9loKtPehjHqb7OJsvhZs/EqZa5y3xVuNP1wWMgUsT6nqjZegTofkXH260RgPwy7E2NXM6rc+YzOkRvlLf8WirU/4JfFsTGabynqfqMQuW2LqzPx7pLKNd1l0eYrdexBwmw5D41KooIkFDCpZmxOhkznNh2bHdOsYyCM10XQ0VY3xBB4nyvc/DGdKjNoDU2nXa6p6LyhaXcnQxHrWp0iN6JNnyqpbH82xLoq17rt9trgB/zGPvFaTOW6h6GAP9S5C0O45b0YNCg8AuVjOj3yO/odiiSWo/ztbt9T6mZ9TGtY2d9oOhQyTWn+CvrZKWWzvmrkj7b0oZ7LdYqcGAt5QXEeU9N/445RJnlNvwefib+LsplWWMbxYMhkWN9Ge3tE/pRhxjFCQD2hWBsnvxt0zuzgmETbnnX1huMLvQHpx8Scwh6LJ+kMZ4mCrrntQZh5H8bLLk43ssJo+aQMjic4KFBJLP738TXW+3SKjBgVtWeFKtb2QkmTbkgguAqiws40lUxmvzrCi50miEghs85K5DHjTwpBcwFllpj2lVDmf8gAMy/rZfsp4NQgBEC7TNtVhmr8Vm79QpeUH+XWuyHk/b7QzfhOKNkX0cc7RCnZT4mjUuCTMpDZPL5AJotsKJZM5c1fQh27ZdIw0BfWW7l2J2bkr+oUOXGMaZ1XUgGLJnUiP9vJNldvHCwvfhrO7xCWS32eThRJplKj+Voofa+ML9ucqT6ZiPA7y/cmPcP+ZV4rU25NF5Jy3JkX5YZM60EdmxvGr09AHZ1+vfysXPcqxmyY/h1ORcvJaFibqpLZ12+g3G7OBdNaqKa6lyFDUDoo+R5RXg626WzVqbLDsJ7rJ9NalOE8rWOyY8rqL4J4+6QODhIHgcphWFfBpYDLlxJoXdkPxlOJqPAcxHKsBwpBKpnYRhk81oXfWI4rK+222LtCbNNVmOXCzk91CZlROJlCykh8Ge4ILFIKkWKte1BHYQ85VqDcCMiROllGWg6EDGs7fq8YIC/DvkHkSSWnRWZ9Xp5iyGTal4mye0SSSc15HfoyJbU+jPcv4AF1a31xx4nW0LAW65IyYyIm4rC1S9rKfEKI9dsKIkQ0/h6OlU8mTrCGdZ+OHSYY8Z/03xJGpzh4YbgGWXD8NOskWIc1ImSZwex7Q0bzXBk0CBGD9fJpP1yXfZ1CN4huknQK9SHPmIg1X8dmBtsTbXnFtWIkh8wq+1S5/T2dYhBC0dbZWAv0EwoDi9+eE1cmH9LJJANHC5TgIwlbSqLxb7v+tz3hxGjTO8vY/khipSy2c6FQMk1cekLItGFRIGOZOKCcFWs71ORVX9cp8sO0E+LSeO2XWdzZgnZmXtNFWqKQEV2u/jwMhZIp0vwBktUnEolS0b4dZVyoUwxEVeIdsIJ3Sfmsh/mira+KO5cFpxpLjy0xrM39lhP10FPg+j0fTHsl6uqTfNSJ2JpekLxRxw4PxsXsGSVVa/tcpWOnIATDXp3NXSmNNH8pxFmfaTnzhO1NYh04Y6MMun+jYk72/yphWCt8n5wzPmcZI36Gjs0Mw1rvKwbbyXpzEMlH2FqGtBAa8lHwaOOYqLPiyymbCRmRkUwyo3VgdjxOpyoehZLJSFzvKgz6yjbIhGOX69i8KINiw/3ZKgoqbaecW/tKI02X6CSZYdi/7VdUHQolk2H/yicGZVXRvksmzhw4sdo+rbSi5QW4hW4+TuqRONZPOZYJ9JoqN+gxRXCt229z7nDy4caIs1G8FWmfHtfIiuF9p99ZMfs4zIJ/dGd9No4zi7NDTGomUECVFJpWasNei4b+iM/nSP6pVPr4jTr1YBjWIn+3KCKzfY+KNp2pYwdhfFXTp0qjide1Muv22U/DKhSm1NGWe3wFhhAxs/Womjxb8elk4kxLMnPSKOKp00EohEyGVedOTK5rWQLlHh1pLu5F+Fy3pm4iUGZh6wFoVe62yw6cHlsvbyFkogsVbd3mk7eC3k3zOh2bE6GIdZs7UULGlHesrQN5P6yjB4Nra3pGnrvNybVqbbIskviATjEYfI6seuOufoPBCdx+Qo4Khh1h+1F/RnLJ9AIGffDsDWuFNdIvZTbgYFPBY87nRcmm6s5BkKVR52HOOjqXjwmx+OmlEecRn7h0DQ3r1ox1eTCdb/UrBpX6HuaJ6Nj8MKwWf0aiMDFDj4o0T9WxmZFOJvY31v443M2sLkhByECmc6dZ/Q8HRpzrxZcXItGSboKSWJvPq1p5vE5RGMoTVQPIJHIuYNPiKripJibH1DV0IWQyYE28pQJlTHmFV39cx+ZGzD4f6beJLnleh7E65zHJ2EjT1aGKdnhT7oTD+kDKRTp6MEwnZYdST4wRq/CjhaIQbv6G2xk0Tpi+fj8aeZ2O7UfVs2OgZJ3iw3tkql5zmoquOhGK94TMSGhwCGuV0ormL+lcPkCkS0L+Ah6d4pbsFCv7op2Hsob9k373AXVWru+Ashf85Cfa+QH0ZadPDHftgFk6B9LJxDYb1h06dujIQKaPz+LhJSwGz7I8i0RLKN9bHpLD2iLAQ8hS01rly0z6zDqtb+okuRFuqlTTUohYEJnglvrehiaT0fzvOjY/wtZTojsy2bVzMp6oYzLiHdOWnYTx2C16yDqRNxSJP//WTOthunKmjbWyt2mBMa1a/49Cd0SLxxS4WR5BWKHL4sHnTXT9DOclNy1cpojTPSZmuW9INazf++6fDKQ1+IWPRuvnfWUCEUOV7dtHR5qy705NWj4BirVXSMs8MsPaG3RsYZj8v+ORp8Mvg/Ub1j06NjPSyUTLZjiOjh06MpCpwbKOGQ3lkXUo3V7G0WWOtT2kzF8V/Uj7+Ij1Pkxa/WMp5XECs76lk+TGEG5AYHJaOMDtkrW0dYGOzg/D+ZMQkPlpZUz7yZzHK1xTRZzFvseBUII2j2bb0xFOnIqx7B04Mdp36thDAJ5+m/FXUpV2lGklPtGQdvZjOteo6vX7RGCwPiGzud7fqKA7JZbJnZkgkPtBhv6rGvJmnrghgmYdcCVC4TxnBFxUGg5P/P124e/iBGGsOQXC6z9fEGW279axmfGGkAnucMR+/J1TnfeHovHHfWVyJ6r7lbHqFJ2rOBirzpAx8MjEw81I/PVR+Q7TPRRJpgk1TWeOjTmv+fLFMgF/P316Teu7dJL8SCMTZP/X3GQCwtbZWJq83j8BcYziS9LPK0dHrIWhyjV9IhMGeUGMdZOOPkQw7Vn9QownR1e29p5U2TzwrTSGc7trteiicdHY/AMdw8Xr+4RkHETX/L424K4eNzoMe5tvbl2//CEdmxkumeCiHYVkQtmYcF4oMe2/+BOM5yKVr/qIzlE8OA5SliYTyFBiWL+eWOhbkIq1TLGW82Us2Xamp1WNFHgrwcNgMj2bl0yE6SzzzjulfuoWt+hTwa10Eo1pqAP0dKgThxSG8ws1A2sYEoUVU4GiiYt1rHtfLRJPiEKjUaFIYscY7v54YCeEILpT0ZZtqnzFu3WsUjM2jUO5r7odxkAz5Fv7HM1kghxApGfKInZCyOQpIyzWKKO5RecoHulkoszCdquOzY9iyWTGPy0bSj6ZZLIdvN7OhSGSqcSM/wzt2y91C5kwiYctX2fp8sLq/8XfZaTuGdafVTTHOeiwIAwrVLn2/+gWeELEQrZf2SlQClbiqBDcak0BbwGb9n2+UGQBbS3XsRAYNxOcrQPIZKzJ/X+SjmYyQU5Y2zw1cY59Asqu82XLdvIyZ7SINUcqhExULk0mktO0Hv3grAK3gYsk0/ga5+NlFZCTRyb0ryzqOOfMWDFOJ8mPoVom977dS35e7kiHrT/oWBA9YfqWi4FeVdi6QsceYvB6RbUeVLAZbshDUMZjJW5y0+dFmRnH9U7EuUt+T0XYjvlbkBwQ3ur14M4iPSJ0Kikvypp5/OrwylOlLE+paa7D9hodWxhGNJnsZ2O1sPjoZyja0iPK4N8eWNOByaT4/9phxM8IcUL0lBukKqts6zmpqin3FTEPRZKJpCmLYL3sTQaorzTWsv+YQrfGiaGSiSi3wiI3sUxt9JheOanKOkvyU+dSN0aqNvC2fe6D62GD6TzmC4UWhCf+PAOamCyFJWpwG50AyeJ94yoSgwZ6VLR5VkjOG6AQTBtre0AUk6AyekSjX21Y03OedBOXrTwegt0wQNCx9qfQlrN0ivy4HO7lgN08EgMWNBfeQDK5h7aQQyTxNcjMtcIklMivvQNpM1/HyYLjpyw7qSRsbXI3g1APg6tQhe3mhZtnFOXmEWbiGj8PlVbWgE2Ftzts/3HIZOIBb6qbKdv68VnqAnk6oad/DLmL57Qf1KF7UeB5UyThXi0Sdyz+mpwST9o8FgTZI7+5V1PQsMEu2thY/PRQtPVJLRD3NoThnhmUGs2WO6j4nfepeNBbCHg+IqYa+Vim5LUNHZsfEedaKJbrV8tuztq+kGnlfszkDSeThtH07ZBYf7aVhFqXLInE/3G8d/xQKMJ0b/TEJe1HmYWcq/DhRtO6xp/NGQoiU3yhuyGFNlPOHP9ctxhSwQNpM2VdUyyZJL+zzr2Bg/rR3lFYh46tsD45YAyrNvSCtMXdJDkolCfeIQPp+dvVG0Es3QDDcnfi5IaE/TjSZD5MNOz7+91BfJYnPnH69PgZZZWtO2TWZahav1VF89xM92BYX4aA+UCZLpOD69w2YNs9F0xYNhE08nIi4Ge+mwyHiUwn1Cx/S4lhPSmzKNNQOWRGtYt7M225c/WAS66uguW/DAq5hExnt7/drPPmJxOsXtU692DcIxMfMiwEUR63bBp4164YMhFRyLVyfZc3XugDx2sv5OdebO33sjKvG/n8Vc3dJvL8t/7l4DEGSlTCSj0lcmeoZeicgU7uFYWmYoatqM4yCGOi9q/kkQSSUj6dVejUlaKQMnNQmeCGFAr3+ad7fQVjG7hr8/2V+V09eVH+upddF4+KuZE7aFtSn5rNiMNlmQhOaLH2R7TsXOWUPC0/0yny4oRK63Mlsbb++4xQJpD0xVO99W82RO2PuB6JnnQYCiETwTNDuqa6b2j36zJ2eYC19xpXN3R9zFssmYAQJ/jUIwZv7BiETPZz/vrfAzdJDCeCNPXwfuagjLmQwffzPltXEORgFbOaN5Ozk5HEIpjHle46BwrJK0CmM03nGITR3E0yHPfEmZ3gbgt3VTzlEKtl5z5fSkOJac0UYnsConWsaH8IpMx6Q+A4Y9UpEM4Lsl3PdtM15cNg0fhndZLsOJxkIqbcfmaIdXuTAL+LwsEFKxDo+8O+ksoEREJBUbKBm0Gx9idcxUMeLxRIplKz+Sv9j7ywf2t7Q7HWxDtyKWbYqoYcYJV0Hsk3NDIdE7O1jqWU5QXqXHnzZYPW6Lz5w3t7nPCn3nWNXCgOW5WqWLc6G0oMp0IeCZdGyGAsxAx/k3xnYyvanpTt12wQV9He55OJN9L50BjzclAjLVi/2N/RqQuHYV3vDhZnTVoZuj/OE3Jj+XLMMKkhbF0cql6/xScDAycBw7Z0ablxuMk0sXZ0yGy+UdY9Xn/RlhAUe2yMSlEATOe7IcrfszK05rHWbWVR6+cn8C5lqrzMtrNQvvtIOMkj/UadzFeoZeKzXGYi7rv4CLyHGYrYbXJ3M6W+cVgihHj3k+1j+e4BvhuGSCa4tu9XsZZ9fn/9AHJVrtsvTy2nYlLrWzCmFe7/ynKWjKuwLsUEtF4IZ8ZrhsU6va3aOac0mnhehO8KZikqu1W+y5UNK/c5z0S7NMRn7WVQxM14EaFRBMdBClsH1BW3n6xTF4doYp4MOH16WhuZiZztaN/WAYG7OP6sDGGKuxp/BO15py4pNw43mQQY1EjL4gGKxiOJWNsjqgaKkAe18DJQ/haXkJCBWOe2ZMhd6L+SJi+uJzi23JzZGOKDiV7fCyUTcGx45anQnef6Nz9QrztGA+sznFfld6nT+RPq+02/RRsimXiOaWLSn643qzyZye2HuI26Brr2U+7kZdmr9fnnfLRhJfo5e6JtlyLfNYNcwiGDW8dUIApU3DQb6w58d8m1UafKDq6p5FEJdIpC8g6CQa4y095xMh+pHhpCKtw8W3a82D4hKMrmZ2oQRUC9HCz68RXtD6rJqwuvkxsUJKy3YSFkhG9/sBhEJufPZ/8AljwLzqqtHV0asZ4RhfYURIiN8SnkWRxa7Yp2dy0hZSA/5ZIuL7rwiB8Via+UfKb9oIw1x4/E4C5vgTiOj1REWy3Jx3ppKdLrY0B9oVj7XrlFY9inSfu894gY1ktFk4kotz+I/r4g5UtfEWru7IMOL9EpBoJuXtiZXBLDsqX8jg/Cit6MJUUN9PdsnWIYYNo3qxlb3INXukcMPD9yO/whnSo7ypv+E0pzQPJxoFgOP69+AAPm/HRiMa9nyoCxVYmrS6rWb4aQdshWOctODdxK56BUrLlPVa75urpsQXHPA/Gmcdh6Xs3c7CrTzC08pM7+vEyh4K7RD+532zjzPt66f+kj03PfEys1HchyXY8vS4YfPQRFyXPw7OHSm04sibZOgSx+J0Rmf3w56e9VGx7DuFbzsXDJw6dm0Wc1A7Ll2deU5k/L74Vi4sRSTEZLSyrXPMqHG2U8Uut0n316Wk2+/aOiC1w2RFtf49uxRO9gHYdEJsKwfuc+vQAiCani27Kurel+ms7MMTE+77Tx4rKYMxl9ryr4wdOCII9aoFAzMU2e2mTgd6O5KusTuOmga1C9oT8/Q/UmlJHnEfViwKd+WWZqHQyxtmkYoIN7+IsHwyxb9/u46UO8xZ0Kvt+gcp3bRn7qM7i84OLel6Xl5g1bl+rYwsDNpUg8qmKpY6o/uZZJxTexXjCap4IETFPUoXEqLqldeuyYaHyKjEdqnRLSFDza/DGpj2kP5gWivDzt7epxqWLYL/L/9OrYjDi20roY7uBPxvFB1wABAig1vqLl5JDJq0ncooc7K6Syr8x70yZAgAADMcqwpodquCblZgbXzHD3hnphOECANzOwBm3Vm2TuRk00YSm+0z5AgABFgM/jeTcwGKbdzaOH/K9dDhAgQAqiLT/zj3L0xkMomnh2LLfcAwQIUAD4BqTqjQtlo0GIxHPNhGy/l0WsSTpVgAABsmLS8rEhvuU32topZ1jcbPBuxMg78VoWy/Z+gAAB8oC30XmPjofA4ta1yYZDSaztRRWJ1+pUAQIEKAh86yt37sTFa9taVtH6G3liIUCAAEVCXqbCWzpOPd98dUG+f4EaIECAkQSl/h8mmq15k1yedAAAAABJRU5ErkJggg==;shadow=1;" parent="1" vertex="1">
          <mxGeometry x="-1598.75" y="-658" width="80.5" height="32.43" as="geometry" />
        </mxCell>
        <mxCell id="S7neUsD2zat62h7z_fcm-4" value="Bank" style="shape=image;html=1;verticalAlign=top;verticalLabelPosition=bottom;labelBackgroundColor=#ffffff;imageAspect=0;aspect=fixed;image=https://cdn4.iconfinder.com/data/icons/48-bubbles/48/04.Bank-128.png;shadow=1;" parent="1" vertex="1">
          <mxGeometry x="-760.0000000000002" y="-700.5" width="99" height="99" as="geometry" />
        </mxCell>
        <mxCell id="S7neUsD2zat62h7z_fcm-23" style="edgeStyle=orthogonalEdgeStyle;rounded=0;orthogonalLoop=1;jettySize=auto;html=1;strokeWidth=2;strokeColor=#666666;shadow=1;" parent="1" source="S7neUsD2zat62h7z_fcm-7" edge="1">
          <mxGeometry relative="1" as="geometry">
            <mxPoint x="-750" y="-644" as="targetPoint" />
          </mxGeometry>
        </mxCell>
        <mxCell id="S7neUsD2zat62h7z_fcm-7" value="PayGate" style="shape=cylinder3;whiteSpace=wrap;html=1;boundedLbl=1;backgroundOutline=1;size=15;fillColor=#f8cecc;strokeColor=#b85450;shadow=1;" parent="1" vertex="1">
          <mxGeometry x="-940" y="-680" width="100" height="72.04" as="geometry" />
        </mxCell>
        <mxCell id="S7neUsD2zat62h7z_fcm-28" style="edgeStyle=orthogonalEdgeStyle;rounded=0;orthogonalLoop=1;jettySize=auto;html=1;shadow=1;" parent="1" source="S7neUsD2zat62h7z_fcm-9" target="S7neUsD2zat62h7z_fcm-7" edge="1">
          <mxGeometry relative="1" as="geometry" />
        </mxCell>
        <mxCell id="S7neUsD2zat62h7z_fcm-9" value="SEW SFTP" style="shape=image;html=1;verticalAlign=top;verticalLabelPosition=bottom;labelBackgroundColor=#ffffff;imageAspect=0;aspect=fixed;image=https://cdn2.iconfinder.com/data/icons/whcompare-servers-web-hosting/50/sftp-128.png;shadow=1;" parent="1" vertex="1">
          <mxGeometry x="-1040" y="-680" width="74.5" height="74.5" as="geometry" />
        </mxCell>
        <mxCell id="S7neUsD2zat62h7z_fcm-15" style="edgeStyle=orthogonalEdgeStyle;rounded=0;orthogonalLoop=1;jettySize=auto;html=1;strokeWidth=2;shadow=1;" parent="1" edge="1">
          <mxGeometry relative="1" as="geometry">
            <mxPoint x="-1260" y="-641.79" as="targetPoint" />
            <mxPoint x="-1299.5" y="-641.75" as="sourcePoint" />
          </mxGeometry>
        </mxCell>
        <mxCell id="S7neUsD2zat62h7z_fcm-12" value="&lt;font style=&quot;font-size: 10px;&quot;&gt;WPN BACS18 Payments Connector&lt;/font&gt;" style="text;html=1;align=center;verticalAlign=middle;whiteSpace=wrap;rounded=1;fillColor=#E6FFCC;strokeColor=#666666;gradientColor=none;shadow=1;" parent="1" vertex="1">
          <mxGeometry x="-1360" y="-658" width="70" height="58" as="geometry" />
        </mxCell>
        <mxCell id="S7neUsD2zat62h7z_fcm-21" style="edgeStyle=orthogonalEdgeStyle;rounded=0;orthogonalLoop=1;jettySize=auto;html=1;entryX=0;entryY=0.5;entryDx=0;entryDy=0;strokeWidth=2;shadow=1;" parent="1" source="S7neUsD2zat62h7z_fcm-13" target="S7neUsD2zat62h7z_fcm-18" edge="1">
          <mxGeometry relative="1" as="geometry" />
        </mxCell>
        <mxCell id="TYA4dlzusIyKd7sjcY-S-2" style="edgeStyle=orthogonalEdgeStyle;rounded=1;orthogonalLoop=1;jettySize=auto;html=1;entryX=0;entryY=0.75;entryDx=0;entryDy=0;curved=0;" parent="1" target="TYA4dlzusIyKd7sjcY-S-1" edge="1">
          <mxGeometry relative="1" as="geometry">
            <mxPoint x="-1330" y="-600" as="sourcePoint" />
            <Array as="points">
              <mxPoint x="-1330" y="-600" />
              <mxPoint x="-1330" y="-560" />
            </Array>
          </mxGeometry>
        </mxCell>
        <mxCell id="S7neUsD2zat62h7z_fcm-13" value="&lt;font color=&quot;#ffffff&quot;&gt;Workday Studio&lt;/font&gt;" style="shape=cylinder3;whiteSpace=wrap;html=1;boundedLbl=1;backgroundOutline=1;size=15;strokeColor=#E6E6E6;fillColor=#FFB570;gradientColor=none;shadow=1;" parent="1" vertex="1">
          <mxGeometry x="-1260" y="-680" width="80" height="80" as="geometry" />
        </mxCell>
        <mxCell id="S7neUsD2zat62h7z_fcm-25" style="edgeStyle=orthogonalEdgeStyle;rounded=0;orthogonalLoop=1;jettySize=auto;html=1;shadow=1;" parent="1" source="S7neUsD2zat62h7z_fcm-18" target="S7neUsD2zat62h7z_fcm-9" edge="1">
          <mxGeometry relative="1" as="geometry">
            <Array as="points">
              <mxPoint x="-1080" y="-643" />
              <mxPoint x="-1080" y="-643" />
            </Array>
          </mxGeometry>
        </mxCell>
        <mxCell id="S7neUsD2zat62h7z_fcm-18" value="custom&#xa;text file" style="shape=image;verticalLabelPosition=bottom;labelBackgroundColor=default;verticalAlign=top;aspect=fixed;imageAspect=0;image=data:image/png,iVBORw0KGgoAAAANSUhEUgAAAgAAAAIACAYAAAD0eNT6AAAAAXNSR0IArs4c6QAAIABJREFUeAHtnXuQVUWe57vnEbE7s7sRszsTE7ERGxux23/s7G7E/jH/zM7MzswfGxv7x+yrw6Jbx0eVD7q1seluu+3W6dYLQhXgA1GsAgVFEFTeoPIUBXnXLYp76wGo2CoKKooKCAoCuZHY2RZF3se5J/Pk61MRFQdO3Zvn5C+/+f1+zrl57/3GN/gxUoEDBw788+pw9YrKUGVmdaj6SnWo+l51qHqqOlQV/FIDNIAGbGpg6+4dZ5etX1syYmY0QgWoQHMVqO6r/ufqUHUeYY/B2zR42kZf9TTwyq4donvRIgEENOfbPIoK5KrA4ODgnw4MDyyoDlUv1JuY/A3jRgNowLYGJAA8snAhEJDL1XkyFWiiApXByt9Xh6of2Z7UtE9woAE00IwGFACMgIB7mrAyHkIFqECWClSGK7dx1Y8pN2PKPAadFKWBkQAwAgJYE5DF3HksFahXgepg9R+LmtAch/BAA2igWQ2MBgAgoJ6T8zcqkLECA8MD7c1ORh6HcaMBNFCkBnQAAARkNHkeTgV0FfjNSn/e0sdbGnlLJxrwUgO1AAAI0Dk6+6hAkxUQQvxOdai6o0ia51hcPaIBNJBFA/UAYAQEsDCwSd/nYVTgYgUqg5Wrs0xEHotxowE0ULQGGgHACAhgYSDZRgWaqYAQ4pvVoeq+oiczxyNA0AAayKKBZgAACGjG9XkMFfhNBfYO7v27LJOQx2LaaAANuNBAswAwAgJ4OYCkowL1KlAZqsx2MZk5JiGCBtBAFg1kAYAREMDLAfUCgL+lXYHqUPWNLJOQx2LaaAANuNBAVgAYAQHcCUg75ui9rgL9/f1/4mIic0wCBA2ggawaaAUARkAAdwJ0IcC+dCtQGa78ddZJyOMxbjSABlxooFUAAALSzTh6XqcClcHKt11MZI5JgKABNJBVA3kAYAQE8HJAnUzgTwlVoDpUvTbrJOTxGDcaQAMuNJAXAEZAAC8HJJRzdLVGBSrDlQ4XE5ljEiBoAA1k1YAJABgBAdwJqJEL7E6kAgAAJpzVhHk8mnGlAVMAAAQkEnB0s34FAADM3JWZc1y0l1UDJgEACKifDfw1gQoAAJhwVhPm8WjGlQZMAwAQkEDI0cXaFQAAMHNXZs5x0V5WDdgAACCgdj7wl8grAABgwllNmMejGVcasAUAQEDkQUf39BUAADBzV2bOcdFeVg3YBAAgQJ8R7I24AgAAJpzVhHk8mnGlAdsAAAREHHZ07fIKAACYuSsz57hoL6sGigAAIODynGBPpBUAADDhrCbM49GMKw0UBQBAQKSBR7curQAAgJm7MnOOi/ayaqBIAAACLs0K/hdhBQAATDirCfN4NONKA0UDABAQYejRpa8rAABg5q7MnOOivawacAEAQMDXecG/IqsAAIAJZzVhHo9mXGnAFQAAAZEFH935qgIAAGbuysw5LtrLqgGXAAAEkJrRVQAAwISzmjCPRzOuNOAaAICA6CIw7Q4BAJi5KzPnuGgvqwZ8AAAgIO3MjKr3AAAmnNWEeTyacaUBXwAACIgqBtPtDACAmbsyc46L9rJqwCcAAALSzc1oeg4AYMJZTZjHoxlXGvANAICAaKIwzY4AAJi5KzPnuGgvqwZ8BAAgIM3sjKLXAAAmnNWEeTyacaUBXwEACIgiDtPrBACAmbsyc46L9rJqwGcAAALSy8/gewwAYMJZTZjHoxlXGvAdAICA4CMxrQ4AAJi5KzPnuGgvqwZCAAAgIK0MDbq3AAAmnNWEeTyacaWBUAAACAg6FtM5eQAAM3dl5hwX7WXVQEgAAASkk6PB9hQAwISzmjCPRzOuNBAaAAABwUZjGicOAGDmrsyc46K9rBoIEQCAgDSyNMheAgCYcFYT5vFoxpUGQgUAICDIeIz/pAEAzNyVmXNctJdVAyEDABAQf54G10MAABPOasI8Hs240kDoAAAEBBeRcZ8wAICZuzJzjov2smogBgAAAuLO1KB6BwBgwllNmMejGVcaiAUAgICgYjLekwUAMHNXZs5x0V5WDcQEABICehYtEivWry3FmzD0zOsKAACYcFYT5vFoxpUGtu3eKWRwxvTbvWiRWLZ+7T1eBwUnF2cFAADM3JWZc1y0l1UDu/p6owp/BTLcCYgzX73vFQCACWc1YR6PZlxpoH9gb5QAIEGAOwHex2V8JwgAYOauzJzjor1WNDBnyeJoIYA7AfFlrNc9AgAw4VZMmOegG1caWLLmhWgBgDsBXsdlfCcHAGDkroyc46K9VjTw4rZXogYACQHcCYgva73sEQCACbdiwjwH3bjSwN7Bipj19NNAgJeJwkkFVQEAACN3ZeQcF+21qoFVGzdEDwC8HBBUlIZ5sgAAJtyqCfM8tONKA+XKHjHrmfjvAvByQJi5GsxZAwCYuCsT57hoL48G1m5+KYm7AEBAMHEa3okCAJhwHhPmuejHlQYqgxWxaPWqZCCAzwkIL1+9P2MAAAN3ZeAcF+3l1cCeSr94fOmSZCCAdwd4H6lhnSAAgAnnNWGej4ZcaqC3v0/MXQIEhJU8nK0XFQAAMG+X5s2x0Z8JDfTt3SPmL1/OnQAvUoWTCKYCAAAGbMKAaQMdudaA/HyAlRvWAwHBpA8n6rwCAADG7dq4OT4aNKmB7b27xKJVaSwOZE2A8wgN+wQAAMzXpPnSFnryRQPby7vE8vXrxGPPPhv1XQEgIOwMdnr2AACG7Ythcx5o0ZYGdvb1io1bt4jVL24QK9avE8vWrY3qd/m6tede3rn1vzsNEw4eXgUAAEzXlunSLtpCA8VpQHp5eAnEGTutAABQ3ATFDKk1GkADtjQAADiN0jAPDgBgSLYMiXbRFhooTgMAQJgZ7PSsAYDiJihmSK3RABqwpQEAwGmUhnlwAABDsmVItIu20EBxGgAAwsxgp2cNABQ3QTFDao0G0IAtDQAATqM0zIMDABiSLUOiXbSFBorTAAAQZgY7PWsAoLgJihlSazSABmxpAABwGqVhHhwAwJBsGRLtoi00UJwGAIAwM9jpWQMAxU1QzJBaowE0YEsDAIDTKA3z4AAAhmTLkGgXbaGB4jQAAISZwU7PGgAoboJihtQaDaABWxoAAJxGaZgHBwAwJFuGRLtoCw0UpwEAIMwMdnrWAEBxExQzpNZoAA3Y0gAA4DRKwzw4AIAh2TIk2kVbaKA4DQAAYWaw07MGAIqboJghtUYDaMCWBgAAp1Ea5sEBAAzJliHRLtpCA8VpAAAIM4OdnjUAUNwExQypNRpAA7Y0AAA4jdIwDw4AYEi2DIl20RYaKE4DAECYGez0rAGA4iYoZkit0QAasKUBAMBplIZ5cAAAQ7JlSLSLttBAcRoAAMLMYKdnDQAUN0ExQ2qNBtCALQ0AAE6jNMyDAwAYki1Dol20hQaK0wAAEGYGOz1rAKC4CYoZUms0gAZsaQAAcBqlYR4cAMCQbBkS7aItNFCcBgCAMDPY6VkDAMVNUMyQWqMBNGBLAwCA0ygN8+AAAIZky5BoF22hgeI0AACEmcFOzxoAKG6CYobUGg2gAVsaAACcRmmYBwcAMCRbhkS7aAsNFKcBACDMDHZ61gBAcRMUM6TWaAAN2NIAAOA0SsM8OACAIdkyJNpFW2igOA0AAGFmsNOzBgCKm6CYIbVGA2jAlgYAAKdRGubBAQAMyZYh0S7aQgPFaQAACDODnZ41AFDcBMUMqTUaQAO2NAAAOI3SMA8eGgD0VfrF7r4+fqkBGkADVjUgvcZWWNtoFwAIM4OdnrXvACAn4ZwFy8VP75op/uGmSaKtvcQvNUADaKAQDVw9dtJF75Ee5DsQAABOozTMg/sMAEtWrhMd46YUMtEBC8AKDaCBehq4ftwUsXTVem/vCgAAYWaw07P2FQDmzF8uxnRMIPy50kMDaMAbDUhPmjN/hZcQAAA4jdIwD+4jAMgrf8Kfq7F6V2P8DX240oD0Jh/vBAAAYWaw07P2DQD2VPaKG8ZN9Yb4XZkMxyXg0IC/GpAvTfq2JgAAcBqlYR7cNwCQi20wPn+Nj7FhbNDAVxqY+5RfLwUAAGFmsNOz9g0AfvqrmQAAr/miATTgvQZuv/sRr9YCAABOozTMg/sGALzVjytMrjDRQAgakG8RtPF+/lbbBADCzGCnZ+0TAMjX1EKY+JwjAYUG0IDUgE/rAAAAp1Ea5sF9AoDKYEV8h7f+AUHc/kYDAWhAelVl0J+PNgYAwsxgp2ftEwDIW183jp+G+QVgflwBcwWcugbGjr+XlwCcphcHz10B3wCga/qTAAAAgAbQgPcamDpjPgCQO4FowGkFfAOAtRs3izEdXF2lfnVF/5kDPmtAetTaTZsBAKfpxcFzV8A3AJAvA5SmzPGe/n02J86N8EQDdjUwYepcr8Jf+qb08tyBQANpVcBHAOjt3yNu+ekDQAC3gdEAGvBOAzf/5H4hParVt+vZeh4AkFZ2G+mtjwAgJ8j2Xb3iR3fM8G7yc2Vl98qK+lJfnzXwozsfuuhNtkI8T7sAgJFITKsRXwFAToQ91b3i0SeXietu7gQEuBJEA2jAmQbab+m66EX91b3eXfkraAAA0spuI731GQCUsPcOVsTqNZvE7HlLxX0PPyXkOwX4pQZoAA3Y1ID0mtlPLLvoPT6931/54ugtAGAkEtNqJAQAGC10/u/Ph48wFowFGvBDAwBAWtltpLcAgB+TFxNlHNAAGsijAQDASCSm1QgAgOnkMR2ei37QgB8aAADSym4jvQUA/Ji8mCjjgAbQQB4NAABGIjGtRgAATCeP6fBc9IMG/NAAAJBWdhvpLQDgx+TFRBkHNIAG8mgAADASiWk1AgBgOnlMh+eiHzTghwYAgLSy20hvAQA/Ji8myjigATSQRwMAgJFITKsRAADTyWM6PBf9oAE/NAAApJXdRnoLAPgxeTFRxgENoIE8GgAAjERiWo0AAJhOHtPhuegHDfihAQAgrew20lsAwI/Ji4kyDmgADeTRAABgJBLTagQAwHTymA7PRT9owA8NAABpZbeR3gIAfkxeTJRxQANoII8GAAAjkZhWIwAAppPHdHgu+kEDfmgAAEgru430FgDwY/JioowDGkADeTQAABiJxLQaAQAwnTymw3PRDxrwQwMAQFrZbaS3AIAfkxcTZRzQABrIowEAwEgkptUIAIDp5DEdnot+0IAfGgAA0spuI70FAPyYvJgo44AG0EAeDQAARiIxrUYAAEwnj+nwXPSDBvzQAACQVnYb6S0A4MfkxUQZBzSABvJoAAAwEolpNQIAYDp5TIfnoh804IcGAIC0sttIbwEAPyYvJso4oAE0kEcDAICRSEyrEQAA08ljOjwX/aABPzQAAKSV3UZ6CwD4MXkxUcYBDaCBPBoAAIxEYlqN+A4AlcGKWP7cBtH5wDxx68+ni45xXeKa70/mlxqgATRgVQPSa6TnSO+RHiS9KE9A234uAJBWdhvprc8AsG7TFvHDXzwo2tpL/FIDNIAGnGpg/B0zxPpNr3gLAQCAkUhMqxFfAWDxinXiyhsnOp3wgAfghQbQwEgNXHXjPWLxirVeQgAAkFZ2G+mtjwCwZsPL4sob7yH8ueJDA2jAOw1Ib1qzcbN3EAAAGInEtBrxDQAqg1Vx8233ezfpR14F8G+uCtFA2hr4/o/vE3s9WxMAAKSV3UZ66xsALHj2OcKfqz40gAa818DCJc97dRcAADASiWk14hsA3DFxlvcTn6u/tK/+GH/GX2rgzntmAQBpxWV8vfUNAORb/DBYDBYNoAHfNXDdzZ0AQHyRmFaPfAKAPZV+wp9bv2gADQShgTEdJSE9y/b7+5ttn5cA0spuI731CQDkopoxHROCmPy+X51wflxBowG7GpBe5dNCQADASCSm1YhPACBJV376FsZl17ioL/VFA/k1cP24Kd5c/UvvBADSym4jvfUNACZOmwsAcAsYDaAB7zUw6b4nAAAjKUQjzirgGwCseH6j9xOfq6f8V0/UkBqGroGVL2wEAJwlFwc2UgHfAEDeyvrZXY8AAVwBogE04K0Gbr+726vw5yUAI3GYXiM+AsD2Xb1Cvr4W+hUC589VLhqITwMdP5gitu7aBQCkF5fx9dhHAJA0++LmreKm8dOAAK4C0QAa8EYDY8ffK17cvM278OcOQHzZXEiPfAUAKeid5bKYOmO++M71vDWQK8n4riQZ03DGVHrQtBkLxK6+spfhDwAUEpfxHcRnAJCilr87envFvKdXia7pT178+E35+hu/1AANoAGbGpAf9Ss9R3qP9CDlR75upZfHl1D0yGoFQgAAXycc5/UVoFEH6oAG3GsAALAalXE2DgC4n7iYJ2OABtBAXg0AAHFmtNVeAQAYT17j4floCA241wAAYDUq42wcAHA/cTFPxgANoIG8GgAA4sxoq70CADCevMbD89EQGnCvAQDAalTG2TgA4H7iYp6MARpAA3k1AADEmdFWewUAYDx5jYfnoyE04F4DAIDVqIyzcQDA/cTFPBkDNIAG8moAAIgzo632CgDAePIaD89HQ2jAvQYAAKtRGWfjAID7iYt5MgZoAA3k1QAAEGdGW+0VAIDx5DUeno+G0IB7DQAAVqMyzsYBAPcTF/NkDNAAGsirAQAgzoy22isAAOPJazw8Hw2hAfcaAACsRmWcjQMA7icu5skYoAE0kFcDAECcGW21VwAAxpPXeHg+GkID7jUAAFiNyjgbBwDcT1zMkzFAA2ggrwYAgDgz2mqvAACMJ6/x8Hw0hAbcawAAsBqVcTYOALifuJgnY4AG0EBeDQAAcWa01V4BABhPXuPh+WgIDbjXAABgNSrjbBwAcD9xMU/GAA2ggbwaAADizGirvQIAMJ68xsPz0RAacK8BAMBqVMbZOADgfuJinowBGkADeTUAAMSZ0VZ7BQBgPHmNh+ejITTgXgMAgNWojLNxAMD9xMU8GQM0gAbyagAAiDOjrfYKAMB48hoPz0dDaMC9BgAAq1EZZ+MAgPuJi3kyBmgADeTVAAAQZ0Zb7VUIAPDS1u2iZ+4ScVfnY+LH//iQ+OHPH+SXGqABNGBVA9JrpOf0PL5EvPzKdpE3oG0/HwCwGpVxNu4zAGzduUvc3fWYGNNREm3t/FIDNIAG3GhAelBpyhyxddcub0EAAIgzo632ylcAWLNxs2i/pYvgB3zQABrwRgMdP5gipDfZvppvpX0AwGpUxtm4jwCwZftOce3Nnd5Meq663Fx1UXfq7qMGrv1+p3h56w7vIAAAiDOjrfbKNwCoDFbEj+6YQfhz1YcG0IC3GvjxnQ8J6VWtXKnbeg4AYDUq42zcNwBYvHKdt5Pex6sRzomrZDTgRgNLV60HAOKMxXR65RsA3NX1GADAlR8aQAPea0AuCrR1Nd9Ku9wBSCe3jfXUNwBg4Z+bqxmuIqk7GsimAbkgsJWgtvUcAMBYLKbTkE8A0F/dy1v+uPLz/sqPoMwWlLHWS741UHqWrUDP2i4AkE5uG+upTwCwBwAg/AAgNBCIBiQASM/KGtS2Hg8AGIvFdBryCQDkxODtf1xdxXrFSL/i0rZ8udJWmLfSLgCQTm4b66lvAPCryY9yBRTIFRCBFlegMZ7ZxlN+SmkrQW3rOQCAsVhMpyHfAOCZpWsAAAAADaAB7zXwzPI1AEA6URlnT30DAPnhGuNun+795OdqKdvVEvWiXjFp4NafP8gHAcUZiWn1yjcAkLfHNm3ZJq4eOwkI4CoQDaAB7zTwDzdNEhs3b/Xq6l/6Ji8BpJXdRnrrIwBIMa984UVxzfcmezf5Y7qKoS9claOBbBq45vuTL3qTrdfx87QLABiJxLQa8RUA5ESQ38H981I3EMBVIBpAA8418IsJPV5+CZCCBgAgrew20lufAUAJe92LW8T07kXi9ru7xc233S/Gjr+XX2qABtCAVQ1Ir5GeM71nkZAepPzI1y0AYCQS02okBADwdcJxXlXvTZExYoxS0QAAkFZ2G+ktAIBBpmKQ9BOtx6wBAMBIJKbVCACAKcZsivQNfaeiAQAgrew20lsAAINMxSDpJ1qPWQMAgJFITKsRAABTjNkU6Rv6TkUDAEBa2W2ktwAABpmKQdJPtB6zBgAAI5GYViMAAKYYsynSN/SdigYAgLSy20hvAQAMMhWDpJ9oPWYNAABGIjGtRgAATDFmU6Rv6DsVDQAAaWW3kd4CABhkKgZJP9F6zBoAAIxEYlqNAACYYsymSN/QdyoaAADSym4jvQUAMMhUDJJ+ovWYNQAAGInEtBoBADDFmE2RvqHvVDQAAKSV3UZ6CwBgkKkYJP1E6zFrAAAwEolpNQIAYIoxmyJ9Q9+paAAASCu7jfQWAMAgUzFI+onWY9YAAGAkEtNqBADAFGM2RfqGvlPRAACQVnYb6S0AgEGmYpD0E63HrAEAwEgkptUIAIApxmyK9A19p6IBACCt7DbSWwAAg0zFIOknWo9ZAwCAkUhMqxEAAFOM2RTpG/pORQMAQFrZbaS3AAAGmYpB0k+0HrMGAAAjkZhWIwAAphizKdI39J2KBgCAtLLbSG8BAAwyFYOkn2g9Zg0AAEYiMa1GAABMMWZTpG/oOxUNAABpZbeR3gIAGGQqBkk/0XrMGgAAjERiWo2EAAC9/XvE08vWiOndi8Q99z4u7u56jF9qEKwGJk6bKx54ZKFYtPQFsXtPn4g5lOhbcdAFAKSV3UZ66zMAyOB/sOdpcdWN94i29hK/1CA6DVx5w0Rx38ynxO4+QABYyAcLAICRSEyrEV8BYPP2HeLm2+6PzvABGUBOp4GxP7pXbNqyjbsBQ/lCMGWIAADSym4jvfURAHaWy0Iaos4o2UeAxqqB9lu6xNadu4AAIKAlDQAARiIxrUZ8BIA7JvYQ/tzuT1IDt/3y4ZbMP+UrX/r+1V0TACCt7DbSW98AYPW6TUkaf6xXtfQr+x2bJSvXAQHcBcisAQDASCSm1YhvADDpvscBAK7+k9bArzofzWz+XAWzdgAASCu7jfTWNwC4YdzUpM2fK+bsV8yx1ezqsZMAAO4AZNYAAGAkEtNqxCcA2DtYEWM6CIDYAo3+ZNc0bwvkij7rXR0AIK3sNtJbnwBgT2UvV//c/kcD7SWxfdfuzFeAWQODx8cFGQCAkUhMqxGfAEAa0jXfm0wAAAFJa0DeBasMxhVOwIb98QQA0spuI731DQB+XupO2vy5XZ79dnlsNfvxnQ9x9c8agMwaAACMRGJajfgGAPOeXgUAcAcgaQ3MfmJZZvPnCtv+FbbvNQYA0spuI731DQD6q3v5FEAAIFkAkJ8GKL8Dw/ew4fz8Aw4AwEgkptWIbwAgjWX1mk3iO9dPSDYEYrulTX+ae1ljTMcEwYcA+ResocAOAJBWdhvprY8AICfcgmefAwK4E5AMBMqFf3MWLOfKn9f+W9YAAGAkEtNqxFcAkBDw3NpN4uaf8I2AXEE3dwUdap3Gjr9XrHh+Y8vGH8oVKudp9+4GAJBWdhvprc8AIA1DfjjQoqUviLs6HxM3jZ8m5Penh2r0nHfcQd7s+H73honixh9OFb+c/OjFO11y3QvhaDccU6gvAGAkEtNqxHcASGHi0kfMHw2ggbwaAADSym4jvQUAMJ68xsPz0RAacK8BAMBIJKbVCADgfuJinowBGkADeTUAAKSV3UZ6CwBgPHmNh+ejITTgXgMAgJFITKsRAMD9xMU8GQM0gAbyagAASCu7jfQWAMB48hoPz0dDaMC9BgAAI5GYViMAgPuJi3kyBmgADeTVAACQVnYb6S0AgPHkNR6ej4bQgHsNAABGItHvRtraFv/ud68v/eu2G0rfartu4p/n/V297sUJTF73k5cxYAzQABrIowHp5Xnz4OLzbyh962LGtC3+Xb/TMIGzGzt29u+PaZ/wv8a0lx5pay8NtLWXzjT7iWPNPG7SfY/zKWR8/jgaQANoIHANSC9vxvMzPOaLtvZS9Yr20swrOkp/L7Mogcj1o4v/79rOf9XWUZrQ1l46mmHAMgsAAOCqI89VB89FP2jADw1YAIDReXL0YibdUPqXfqRknGfxzSvaS7e0tZc+sRn8qm0AwI/Ji4kyDmgADeTRQAEAoIDg4zHtpe9/4xvf+GacEeyoV1eOLf1xW3tprQrnIrYAAKaTx3R4LvpBA35ooEAA+AoEOkprZGY5isu4DvvtGyb927b20oEiQn/kMQAAPyYvJso4oAE0kEcDhQNA+8Vv93xDLkiPK40L7s3FFZftpTdHBnNR/wYAMJ08psNz0Q8a8EMDjgBAtF1Xeue7HZP+TcGxGcfh2toe+Kdt7aVKUYE/+jgAgB+TFxNlHNAAGsijAWcAIO8EdJT629tL/ySOVC6wF1e0l3pGh3KR/wcAMJ08psNz0Q8a8EMDTgGgvSTk2wULjM7wDzXmuol/1dZeulBk4I8+FgDgx+TFRBkHNIAG8mjANQC0tZfOt1078b+Gn8wF9aCto7RjdCAX/X8AANPJYzo8F/2gAT804AEAyHcHbCsoPsM+TFvHxL8tOux1xwMA/Ji8mCjjgAbQQB4NeAIA4or2if8t7HQu4Ozb2kvzdYFc9D4AANPJYzo8F/2gAT804AsAtLWXniggQsM9hPxM5bb20omiw153PADAj8mLiTIOaAAN5NGARwBw/O9Kpd8LN6Etn/kVHaW/1IWxi30AAKaTx3R4LvpBA35owCMAEN9pL/2F5RgNt/kr2ifc6iLsdccEAPyYvJgo44AG0EAeDfgEAPL7bMJNaMtnPqa99JAujF3sAwAwnTymw3PRDxrwQwM+AUBbe+lByzEabvNt7aWFLsJed0wAwI/Ji4kyDmgADeTRgE8AcMV1pQXhJrTlMx9z3YTlujB2sQ8AwHTymA7PRT9owA8N+AQAMuMsx2i4zV950+RnXYS97pgAgB+TFxNlHNAAGsijAZ8A4KqxU58JN6Etn3n7uOnzdGHsYh8AgOnkMR2ei37QgB8a8AkAOsbNmGc5RsNt/tY7F85ZFgTsAAAgAElEQVR0Efa6YwIAfkxeTJRxQANoII8GfAKA8b98ujvchLZ85r96YJPTbwAcCQIAAKaTx3R4LvpBA35owCcAuHv6S3Mtx2i4zU/u6Vt+5Q2Tj48MYlf/BgD8mLyYKOOABtBAHg34AgBXje36dHJPeWW4CW35zGVxxv/y6W2uQn/kcQEATCeP6fBc9IMG/NCALwAw/u5ndwIAdSBCFmfSzJ3DI4PY1b8BAD8mLybKOKABNJBHAz4AwJiOkrhn5s6DAEADAOjsKYsbf9xTdRX86rgAAKaTx3R4LvpBA35owAcA+N7P5g7IbAMAmgCASTN3vT6mY8I5FcYutgCAH5MXE2Uc0AAayKMB1wAw5vqJ5yc/sutNAKBO+Ms/STqSRZK/P5mw/BUXwa+OCQBgOnlMh+eiHzTghwZcA8DPJq/apXKNOwB1IGAkAHT2lM9eP77b2XoAAMCPyYuJMg5oAA3k0YBLALjpJ7P3d/aUzwMAdYJf/WkUAMg7AR9fe8v9b6mr8iK3AACmk8d0eC76QQN+aMAVALSPe/Dtzp7yCRX+cssdAJX2mq0GAERnd/nodbc+9GqR4S+PBQD4MXkxUcYBDaCBPBpwAQDXj3/4jck9vcdGhj8AoAn9kbu0ACCpqbt88gd3zN9dJAQAAJhOHtPhuegHDfihgaIB4NY7F+7p7Cl/Pjr8AYCRaa/5dy0AUIW8a/qWXVeNnXK0CBAAAPyYvJgo44AG0EAeDRQFAFffPO1o6cEt/SqvdFteAtAEv9rVCAAuFrS79/QvpqzdevX3ph6xCQIAAKaTx3R4LvpBA35owDYAXHPz/UfunLp+Z2dP+Qtd6I/cBwCotNdsmwKA37xNsLOnfGHiw9sHbrtn5ZaO8TOHTH+HAADgx+TFRBkHNIAG8mjANABcdVPn8RvGdw//dNKqrfc8vGPfyIBv9G8AQBP8aldGALj4eQEjCz65u/d4Z3f58KTu3Yfy/nb29L7T1VM+zC81QANoAA2EqwHp5XnzQD5/cnf5SGd372cjMyfrvwEAlfaabV4AyDoYPP6rD12iDtQBDaABNGBfAwCAJvjVLgDAvgCZ5NQYDaABNOBGAwCASnvNFgBwI0rMgLqjATSABuxrAADQBL/aBQDYFyCTnBqjATSABtxoAABQaa/ZAgBuRIkZUHc0gAbQgH0NAACa4Fe7AAD7AmSSU2M0gAbQgBsNAAAq7TVbAMCNKDED6o4G0AAasK8BAEAT/GoXAGBfgExyaowG0AAacKMBAEClvWYLALgRJWZA3dEAGkAD9jUAAGiCX+0CAOwLkElOjdEAGkADbjQAAKi012wBADeixAyoOxpAA2jAvgYAAE3wq10AgH0BMsmpMRpAA2jAjQYAAJX2mi0A4EaUmAF1RwNoAA3Y1wAAoAl+tQsAsC9AJjk1RgNoAA240QAAoNJeswUA3IgSM6DuaAANoAH7GgAANMGvdgEA9gXIJKfGaAANoAE3GgAAVNprtgCAG1FiBtQdDaABNGBfAwCAJvjVLgDAvgCZ5NQYDaABNOBGAwCASnvNFgBwI0rMgLqjATSABuxrAADQBL/aBQDYFyCTnBqjATSABtxoAABQaa/ZAgBuRIkZUHc0gAbQgH0NAACa4Fe7AAD7AmSSU2M0gAbQgBsNAAAq7TVbAMCNKDED6o4G0AAasK8BAEAT/GoXAGBfgExyaowG0AAacKMBAEClvWYLALgRJWZA3dEAGkAD9jUAAGiCX+0CAOwLsNYkn7VoUCxe85p4/uU3xZotb0X1+9ymX4tFz70qHnqyImr13/b+B+ftvXgOyzccFEvXHRSy3raPGUr7s58eFMvWHRSyNk8/96qQtXJ17lIj8hykZmKbB3Juyznes2jAWX1djasvxwUAVNprtgBAsQAwdXaf2LDtbXHsk89FKj/vvv+ZWLru9cIMUBruW++e0Jb3+Mkz4uVd74p7H9tT2Pn4YoT3zdkjNu9+V5z87Ky2NrJmsnZFna8EkMMffKY9lxh3yjm/YevbQnpAUTXmOGUBAGiCX+0CAIoDAHkV8OHHp2P0tqb69Ppbn4j75/ZbMz8Z6kOvHWvqXD7+9AvxxNJ91s7FN+Odt2yf+OT4F03VZvj1Y1YBSWrg4NufNnUuMT7o6LHTomchdwSKmiMAgEp7zRYAKAYAZPif/vzLGP0sU5/e//CUkFeipie/DP9aV/21TvCLM+eEDEbT5+Jbe08u3yfOnD1Xqwza/W8fPmEFAuTYSw2k/iO9gJcFivFeAEAT/GoXAGBfhFMf7RMffZzOLf9G5i6vME2HZN/gB40Oq/27NOLup+K9Gpu5oCpOnW4NPMuDHxgfp30Hm7tDox2syHbKu4HSG0zPBdq71NMBAJX2mi0AcKlYbEyeTTsORWZd+bszf8V+Y8Y3Z/FwrhN67+gpMS3CNQGyT+/lvNp+7NkhY+O0YOX+XOMU45M3bj9krL42vCuGNgEATfCrXQCAfQD45ERzr73GaHC1+iSvBE2ZS2Xfh7UO0/T+gVc/MnY+pvqVt53BVz9quv+1Hrh3+Kixuux/4+Nah0l2/6cnvjBW37x6ifX5AIBKe80WALALAPIKip/LKyBff59iaDX0ic/OXH6AFvbId2fEYoIvbjdz1+nTE2eM1ESOddZ1CC0MYZBPedTgXZZY9GuyHwCAJvjVLgDALgAsW38wSFMq4qQfnl/NHS4PPN5v7FTPn78gnlp1IPc5mTSvVtpauPqAkH0x9SNr3Mp5jHyOXIvAj74C8jMqRtaKf5v1ZABApb1mCwCYFdvoyfvCy2/qZz17xZzF+V9flhBh8if0RYF5Fv3VquMMAx/mlHedRq1zi2G/9IjRvsH/zfkyAKAJfrULADAnNN2kXbL29Rg8ykofTASLfE+56Z9QFwWaWPSnq+V9c/LfAXhofkXXNPuEEEvWFPchWTqPin0fAKDSXrMFAOwCgPz4WX4ur4C80u6aZab2ciGV6Z8QFwWaWPQ3uo4fHzezSK1rVp84/UVrb0ccfU6x/Z/PAzDjA7VABgDQBL/aBQDYFZ8UJZ8BcLllDxwwt+q+t/r+5QcwsCekRYGmFv2NLtuuynvGbk/bAJTR5xva/z88dtpYfWsFYOr7AQCV9potAGAfAFgHcKktX7ggxNwlw8aMT36xjclFb+psQ1kUaHrRn+r/ufMXjH5anVzzIceen68r8PxLvP5vG1AAAE3wq10AgH0AkLc/333/5NezPvF/yU/tMz3pt/UdsVJV+Sl6cmGd6fM11d4jT7X+SX+NCra1fNh4v/cMtfaJjY3ONcS/v/PeSSG9wZQWaEfv5QCASnvNFgDQi8b0ZJJfecoHAgnx5rvHjb3/f+QYyfeZy8+vt/EjP7vex28PnPboHnHkqJ1v05PhZONb62SbUgOp/0gvMLEIduQc4N96LwcANMGvdgEAetHYmEzyO9ezfmFNTEbZP3zUSqiosZoxryJMfSjQ6LrL16/VcXzZVvfn/wTE0f2U/5dfmSy1aqufEgL27juqO3QS+6QH2KyvrXELtV0AQKW9ZgsAFAcAagLJ70GXJmDjdWvfHPTsl+eF/AjYJwr61j25tuDLL89bKYNPiwJtLfr78tz5wsZKfhPjgTc+FlIjsf/IuS7vfPChP8X7LQCgCX61CwAoXpAKBOR72OVHBS967lUjvyY+alXeUjZxPnJh2qPPDAl5m1r1t6jt6k2/tpIn0sRlv4rqR63jyC9SsgWPzzv4UBqpEakVWVsT2jPxsoicSybORbYh57ic67XGk/12PRgAUGmv2QIAdsVX5OQ28T7rNw4dj8KoWv164Ebk4PqTAm180p/qs42v/y1S/+pYUsN5f+RcUu2xDdsjAQBN8KtdAEDY4h5pTgDA12MZ46LAEBf9jdRnUf8GAL6eB0XV3OfjAAAq7TVbACCeyQIAXDqWsS0KtLXo7+RnZ4V8l4rPJp7l3ACAS+dBltrF+FgAQBP8ahcAEM9kAQAuH8tYFgVuNPT1vqNvjRe56K+ocAEALp8HRdXex+MAACrtNVsAIJ7JAgDoxzL0RYE2F/3F+E10AIB+HvgYzkWcEwCgCX61CwCIZ7IAALXHMtRFgSz6qz2mtcIDAMhes1q1jGE/AKDSXrMFAOKZLABA7bEMcVEgi/5qj2e9YAIAWqtbvZqG/DcAQBP8ahcAEM9kAQDqj6VcFCg/5c7Gj41PCmTRX/3xrBVKAEBrdatVz9D3AwAq7TVbACCeyQIANB7LUBYFsuiv8VjWCiYAoPXa1appyPsBAE3wq10AQDyTBQBobix9XxTIor/mxrFWKAEA+epXq66h7gcAVNprtgBAPJMFAGh+LH1dFMiiv+bHsFYgAQD5a1irtiHuBwA0wa92AQDxTBYAoPmx9HFR4MVFfx+E9fW+PgYCAND8PPBx/EyfEwCg0l6zBQDimSwAQLax9G1RIIv+so1fraAAAMzUsVZ9Q9sPAGiCX+0CAOKZLABA9rH0ZVEgi/6yj12tIAIAzNWyVo1D2g8AqLTXbAGAeCYLANDaWLpeFCgX/Z07f8HGuxNFjJ/01yh8AIDW5kGjuob6dwBAE/xqFwAQz2QBAFofS1eLAln01/qY1QokAMB8TWvVOoT9AIBKe80WAIhnsgAArY+li0WBLPprfbzqBQ8AYKeu9Wru898AAE3wq10AQDyTBQDIN5ZFLwqs7P/Qym3/k6fi+nrfrOECAOSbB1nr7fvjAQCV9potABDPZAEA8o9lUYsCN247ZCX85df7zlu2T/huyjbPDwDIPw9sjk/RbQMAmuBXuwCAeCYLAGBmLG0vCmTRn5lxqhUkAIDd+taqu6/7AQCV9potABDPZAEAzI2lrUWBp05/KeSvjR95zr6acJHnBQCYmwdFjputYwEAmuBXuwCAeCYLAGBuLG0uCrQR/u+8d1JMnd0HAPSUBQBgbh7YCuUi2wUAVNprtgBAPJMFADA7ljYXBZqEgNQX/Y0OEwDA7DwYXd/Q/g8AaIJf7QIA4pksAID5sbS5KNAEBLDo7/IxBwAur0looW3yfAEAlfaaLQAQz2QBAOyMpa1FgSYAIMVP+msUDgCAnXnQqO6+/h0A0AS/2gUAxDNZAAB7Y2lrUWAeCCiz6E+75gEAsDcPfA35eucFAKi012wBgHgmCwBgbyx9WxTIor/aYw0A1K5NvaCM9W8AgCb41S4AIJ7JAgDYHUtfFgWy6K/+OAMA9esTa9DX6hcAoNJeswUA4pksAID9sXS9KJBFf43HGABoXKNaYRnjfgBAE/xqFwAQz2QBAIoZS5eLAln013iMAYDGNYox6Gv1CQBQaa/ZAgDxTBYAoLixdLEokEV/zY0vANBcnWoFZmz7AQBN8KtdAEA8kwUAKG4si14UyKK/5scWAGi+VrGFva4/AIBKe80WAIhnsgAAxY5lUYsCLy76m1/RvuVNZ3ip7wMAip0HvusNANAEv9oFAMQzWQCA4sfS9qJAFv1lH1MAIHvNfA/xPOcHAKi012wBgHgmCwDgZiy39R3J83k+dZ8r285jfik+FwBwMw981RoAoAl+tQsAiGeyAADFj+XMBVVrX+8ryUCOaffCASCgp/mxBQCar5WvoW3yvAAAlfaaLQAQz2QBAIody2mP7hFHjn5W9wrexB8/+OiUuPexPUBAkxAAABQ7D0yGtY22AABN8KtdAEA8kwUAKHYsq/s/NJHvTbUx9NpHAAAAgAaa1MBIkAAAVNprtgBAsaExUpim/w0AFDeWL24/1FRwm3zQxu2HCIAmAoA7AMXNA9MeZqM9AEAT/GoXABDPZAEAihnLhasPiPPnL5jM9qbaunDhgnjm+VeBgAYQAAAUMw9shLWNNgEAlfaaLQAQz2QBAOyPpe1Ff41IQI4xiwLrjzMAUL8+NkLW5zYBAE3wq10AQDyTBQCwO5ZFLfprBAEsCqw/zgBA/fr4HNY2zg0AUGmv2QIA8UwWAMDuWBa56K8RBAy9doyXAmq8FAAA2J0HNkLaZpsAgCb41S4AIJ7JAgDYG0sXi/4aQQCLAvXjDQDo62IzZH1uGwBQaa/ZAgDxTBYAwM5Yulr01wgAWBSoH28AQF8Xn0Pa5rkBAJrgV7sAgHgmCwBgfixdL/prBAFyzFkUeOm4AwCX1sNmuIbQNgCg0l6zBQDimSwAgNmx9GXRXyMIYFHgpeMOAFxajxBC2uY5AgCa4Fe7AIB4JgsAYHYsfVr01wgCWBT49dgDAF/XwmawhtI2AKDSXrMFAOKZLACAubGUC+xs/Miv95W/Nn7kQsVQTNnmeQIA5uaBzXEqqm0AQBP8ahcAEM9kAQDMjKXNRX/Pv/ymWL3p1zbyX7Ao8KvxBwDMzIOiAtr2cQAAlfaaLQAQz2QBAPKPpc1Ff70D7//2Cr088IEVCJAaSH1RIACQfx7YDuUi2wcANMGvdgEA8UwWACDfWNpc9PfOeyfF1Nl9vwWAKbP7xNuHT1iBgNQXBQIA+eZBkeFcxLEAAJX2mi0AEM9kAQDyjaWtRX/HT54RD87b+9vwV6Y3/Ym94pMTX1iBgJQXBQIA+eaB0mcsWwBAE/xqFwAQz2QBAFofS1uf9CcX/D2xbN9l4a/Mde6SYXH2SxYFqnqY2AIArc8DE/X3rQ0AQKW9ZgsAxDNZAIDWxtL2or9GhsiiwNbGrVZdAQCz9axV51D2AwCa4Fe7AIB4JgsAkH0si1r018gsWRSYfexq1RQAMFfLWjUOaT8AoNJeswUA4pksAEC2sSxy0V8jw2RRYLaxq1dPAMBcLevVOZS/AQCa4Fe7AIB4JgsAkG0si17018gwWRSYbfxq1RMAMFPHWvUNbT8AoNJeswUA4pksAEDzY+lq0V8j82RRYPNjWKuWAED+GtaqbYj7AQBN8KtdAEA8kwUAaG4sXS/6a2SiLApsbhxr1REAyFe/WnUNdT8AoNJeswUA4pksAEDjsbS56E8u5DNlkiwKbDyWtWoNALReu1o1DXk/AKAJfrULAIhnsgAA9cfSp0V/jQyVRYH1x7Je/QCA1mtXr66h/g0AUGmv2QIA8UwWAKD+WPq26K+RobIosP541qofANBa3WrVM/T9AIAm+NUuACCeyQIA1B5LXxf9NTJXFgXWHtNatQMAstesVi1j2A8AqLTXbAGAeCYLAKAfy/kr9ovz5y9Y+cx9+fW+tk2SRYH6ca1VdwAgW71q1TGW/QCAJvjVLgAgnskCAFw+lqEs+mtktuVBvj64UY3U3wGAy+eBqk2KWwBApb1mCwDEM1kAgEvHMqRFf42MmUWBl45tvXoBAM3Xql4dY/kbAKAJfrULAIhnsgAAl45laIv+GhkuiwIvHd9a9QIAmqtTrfrFth8AUGmv2QIA8UwWAODrsQx10V8j82VR4NdjXKtWAEDjGtWqXYz7AQBN8KtdAEA8kwUA+GosQ1/018iEWRRYf84CAPXr00hfsf0dAFBpr9kCAPFMFgCgLKwu+hs090l/eU2WRYG15y0AULs2eXUX4vMBAE3wq10AQDyTJXUAiGnRXyOjZVFg7XkLANSuTSNdxfh3AEClvWYLAMQzWVIHAFuL/k6eOiseerJi/f3+Wc2XRYH6uQsA6OuSVV+xPB4A0AS/2gUAxDNZUgaAFza/aeWDfr48d148sWyfd+GvzPmJpfuEPEcbP2s2v+Vtv1X/dVsAIB5P041v1n0AgEp7zRYAiGeypAoA8ur8izPnbGSgeP4l+5/0l9XQRj/+uZd+baXvsqYzPLzzMbr/o/8PAMTjaaPHtpX/AwCa4Fe7AIB4JkuqAPBK+bCVAJQL7VoxHBfPsbUocEvvu8HUQNUdAIjH09SY5tkCACrtNVsAIJ7JkioAfPjxaeMAcOjICSEX2uUxniKfa2tR4NFjp4Opgao3ABCPp6kxzbMFADTBr3YBAPFMlhQBYNpje8SFC2a/6Ofior/5/i36a2SCNhYFytrKGjc6tk9/BwDi8TQTugIAVNprtgBAPJPl9Odf5r4SfuPQp0GZ/cPzq7n7PLIBuaBunseL/hoZoo1PCgxtHYDUcN4fOZca1Zq/h+GdAIAm+NUuACAMETdjNsc+/Tyv74nBVz8KyvgenLc3d59HNhDCor9GWjC9KFDeWWh0TJ/+PvTasZFD2tK/P/rk86D67FP9fTsXAEClvWYLAMQDAL8+dLwlsxv5pG19R4IzvlOn89/5kDUIadFfI5M1tSjws1Nng9PD9j1HRkq6pX/LlxEa1Zi/h+GdAIAm+NUuACAMETdjNia+AOfJ5fuDM779b3zcksmPfNKhIyeDWvTXSA+mFgUOv34sOD3I74LI+7Nh29vB9buRJlL9OwCg0l6zBQDiAQD5Wu3ZL1v/UBi54rtrVnj1WLj6QC6/P/HZGTFjXniL/hoZunx55PjJM7lqs2DlgeCCUGr4w2OtvzPkzNnzUeqhkV5i/TsAoAl+tQsACC/w6k3UV3pbf0/8M8+/GpzZq1ocaPEuQOiL/lT/a23zLAp87c1PgtXDsy+81jL4bN4d3mcf1Bp/9pcFAKDSXrMFAOICgK5ZfaKVVdDyddOQzUJewWddBCnf4rZiwxtB97uZMVu+4WDmt0rKRXDyDkIz7fv6mB392dcCHHz7UyHnkK994ryy+zUAoAl+tQsAyC4o3yeh/FY8uZq/2Z+d/e8Feet/9Dg8NL8i3v/wVFPdPnP2nJDBOLqNWP8v+yr73MzPe0dPefnlR62MzUu73hHNfkzEvoPHxL2BfeZBKzVJ7TkAgEp7zRYAiA8A1ASXV7fySq7Wz9uHT4gnl/v7RTeqH1m2cvGbNP2Tn53Vdvvc+Qti6LWPxCNPVZMJf1U/2WfZd1kD3Y9cC7Fpx6GoFkPKvsuFrVLrtX7kJ0kuX58ODCo9pLIFADTBr3YBAPECgJrgjz07JNZueUts7Tss5BoB+T7xmQviDkAJAk+tOiA2bj8k5B0O+Zn2S9cdFKG9p12NocmtrMGSta+Ll3a+I+RLPxu2vi0WrNwf/a1vqXn5OQ9yDsi5IOeEnBsma0tb/vkpAKDSXrMFAPwTLCbCmKABNIAGzGgAANAEv9oFAJgRGZOVOqIBNIAG/NMAAKDSXrMFAPwTLCbCmKABNIAGzGgAANAEv9oFAJgRGZOVOqIBNIAG/NMAAKDSXrMFAPwTLCbCmKABNIAGzGgAANAEv9oFAJgRGZOVOqIBNIAG/NMAAKDSXrMFAPwTLCbCmKABNIAGzGgAANAEv9oFAJgRGZOVOqIBNIAG/NMAAKDSXrOd3NO3HNH6J1rGhDFBA2gADRjQQHd5mSb62CUr0NlTno/IDIishzbQERpAA2jAPw30ziPta1Sgs7vvXv8GjEnEmKABNIAG0IARDUytEX/s7uruuxGRGREZnynOXRA0gAbQgGcamNxTvp6kr1GBKbN2/xcAAABAA2gADaCBGDUwZWbvf6oRf+wWQnyzs6f8fowDT58wNDSABtBA0ho4LDOOpK9Tgc6e3hlMkqQnCbctPbttyXxkPqIBAxroLt9fJ/r4k6yAvEXS2VO+gOAMCI4gASbQABpAAz5o4PzUR/b8GSnfRAX4PADCHwBEA2gADUSjgVnlxU1EHw+RFeh6ZM+3OnvKn0cz+BC4DwTOOaBDNIAGXGjgdFd3+d+R7hkq0NlTvh0A4AoADaABNIAGgtbArL6fZIg+HiorIFdLdnWXVwc98NC2C9rmmOgODaABPzQwq7yClf8tMs2986t/2NlT3gEEcAWABtAAGkADgWlgW2l23x+0GH88TVag9MjwP+vs6V0X2MD7QZ9cBTAOaAANoAEHGujdVHpo178gxQ1UoFR6+fcm95RLnT3l84AAVwFoAA2gATTgqQYuyM+ymT277/cNRB9NjKzAlFm9f9PZUx7wdOAdUCYmgBbQABpAA55ooDpldt9fj8ws/m24AqWS+J3JPb1jWBvApPdk0gN+3GJGA+lq4EJXT3l7V3dfm8wmw3FHc/UqID8vYPKsvls7e8pLOmeVhzp7yicIBcAADaABNIAGLGngxMWsmVVe3NVTHnfP7L5/Xy+j+FvBFfjq7YMDf9TVne93W7kyrq9SFfxSAzSABtBAuBqQXp43D+TzeTtfwWHu8nCV4UpHdagq+KUGaAANoIFwNSC93GWWcOwAKwAAhDvhMWvGDg2gAaUBACDAAHZ9ygAABqIMhC1aQAPhagAAcJ2mAR4fAAh3wmPWjB0aQANKAwBAgAHs+pQBAAxEGQhbtIAGwtUAAOA6TQM8PgAQ7oTHrBk7NIAGlAYAgAAD2PUpAwAYiDIQtmgBDYSrAQDAdZoGeHwAINwJj1kzdmgADSgNAAABBrDrUwYAMBBlIGzRAhoIVwMAgOs0DfD4AEC4Ex6zZuzQABpQGgAAAgxg16cMAGAgykDYogU0EK4GAADXaRrg8QGAcCc8Zs3YoQE0oDQAAAQYwK5PGQDAQJSBsEULaCBcDQAArtM0wOMDAOFOeMyasUMDaEBpAAAIMIBdnzIAgIEoA2GLFtBAuBoAAFynaYDHBwDCnfCYNWOHBtCA0gAAEGAAuz5lAAADUQbCFi2ggXA1AAC4TtMAjw8AhDvhMWvGDg2gAaUBACDAAHZ9ygAABqIMhC1aQAPhagAAcJ2mAR4fAAh3wmPWjB0aQANKAwBAgAHs+pQBAAxEGQhbtIAGwtUAAOA6TQM8PgAQ7oTHrBk7NIAGlAYAgAAD2PUpAwAYiDIQtmgBDYSrAQDAdZoGeHwAINwJj1kzdmgADSgNAAABBrDrUwYAMBBlIGzRAhoIVwMAgOs0DfD4AEC4Ex6zZuzQABpQGgAAAgxg16cMAGAgykDYogU0EK4GAADXaRrg8QGAcCc8Zs3YoQE0oDQAAAQYwK5PGQDAQJSBsEULaCBcDQAArtM0wOMDAOFOeMyasUMDaEBpAAAIMIBdnzIAgIEoA2GLFtBAuBoAAFynaYDHBwDCnfCYNWOHBtCA0gAAEGAAuz5lAPGGVnMAAAJuSURBVAADUQbCFi2ggXA1AAC4TtMAjw8AhDvhMWvGDg2gAaUBACDAAHZ9ytWh6rVKQGwxEzSABtBAsBq41nWecPzAKlAZrHybCR/shBeMHWOHBtCA1MDAvoH/G1j8cLquK7B3aO9fYSAYCBpAA2ggcA3sq/6F6zzh+IFVoO/Vvj9m4gc+8Yc4fzSMBlLXwMDAwB8FFj+crg8VqA5V30h98tB/AgQNoIFgNTBcPeBDlnAOAVZgYHBgVrDC5+qXdQBoAA0kroHKUOXhAKOHU/ahAgMDA38LAHD1gwbQABoIUwODg4N/6UOWcA4BVkAI8c2BoYFhJn+Yk59xY9zQQMIaGK4OSA8PMHo4ZV8qMDA8cBUmkrCJJH4LFe2j/VA1UBmsjPElRziPQCsgCbIyVNke6iTgvDFwNIAGEtTAVq7+Aw1d3067f7j/P1aHqqcSnEQsouIOABpAA6Fp4OTAwMB/8C1HOJ+AK1AZrFxTHapeAAK4mkIDaAANeKsB6dFXBhw1nLqvFagOV+9g4ns78UO7SuF8ubJGA4Y1MDA0cLuv+cF5RVCB6lD1R9wJAAIAQTSABrzSwPnqYPWHEUQMXfC9AtXh6v+sDlePYgBeGQBXU4avptA3+g5EAx9UBiv/w/fc4PwiqkB/f/+fVAYrj1eHqucDmSQEJAGJBtBATBo4Xx2uzpHf2xJRtNCVkCowODj4ZwPDA3OrQ9WTgABXTGgADaAB6xo4IYOflf4hJWXk51qtVv9wYHjg/1SHqzMGhgZerg5VDwMF1o0gpqsZ+sLVORq4XAPywurd6lD1Jemt1eHq/+7r6/uDyOOksO79f9SOGaS6gGs9AAAAAElFTkSuQmCC;shadow=1;" parent="1" vertex="1">
          <mxGeometry x="-1130" y="-659.87" width="40" height="40" as="geometry" />
        </mxCell>
        <mxCell id="S7neUsD2zat62h7z_fcm-19" value="&lt;span style=&quot;&quot;&gt;&lt;font style=&quot;font-size: 14px;&quot;&gt;SEW&lt;/font&gt;&lt;/span&gt;" style="text;strokeColor=none;fillColor=none;html=1;fontSize=24;fontStyle=1;verticalAlign=middle;align=center;shadow=1;" parent="1" vertex="1">
          <mxGeometry x="-930" y="-601.5" width="80" height="20" as="geometry" />
        </mxCell>
        <mxCell id="S7neUsD2zat62h7z_fcm-29" value="&lt;font style=&quot;font-size: 16px;&quot;&gt;PAYMENT FILE INTEGRATION - TO BE&lt;/font&gt;" style="text;html=1;align=center;verticalAlign=middle;whiteSpace=wrap;rounded=0;fontStyle=1;shadow=1;fillColor=#fff2cc;strokeColor=#d6b656;" parent="1" vertex="1">
          <mxGeometry x="-1420" y="-840" width="420" height="30" as="geometry" />
        </mxCell>
        <mxCell id="TYA4dlzusIyKd7sjcY-S-9" style="edgeStyle=orthogonalEdgeStyle;rounded=1;orthogonalLoop=1;jettySize=auto;html=1;curved=0;" parent="1" source="TYA4dlzusIyKd7sjcY-S-1" edge="1">
          <mxGeometry relative="1" as="geometry">
            <mxPoint x="-1003" y="-580" as="targetPoint" />
            <Array as="points">
              <mxPoint x="-1003" y="-560" />
            </Array>
          </mxGeometry>
        </mxCell>
        <mxCell id="TYA4dlzusIyKd7sjcY-S-1" value="BACS18 &#xa;Standard File" style="shape=image;verticalLabelPosition=bottom;labelBackgroundColor=default;verticalAlign=top;aspect=fixed;imageAspect=0;image=data:image/png,iVBORw0KGgoAAAANSUhEUgAAAgAAAAIACAYAAAD0eNT6AAAAAXNSR0IArs4c6QAAIABJREFUeAHtnXuQVUWe57vnEbE7s7sRszsTE7ERGxux23/s7G7E/jH/zM7MzswfGxv7x+yrw6Jbx0eVD7q1seluu+3W6dYLQhXgA1GsAgVFEFTeoPIUBXnXLYp76wGo2CoKKooKCAoCuZHY2RZF3se5J/Pk61MRFQdO3Zvn5C+/+f1+zrl57/3GN/gxUoEDBw788+pw9YrKUGVmdaj6SnWo+l51qHqqOlQV/FIDNIAGbGpg6+4dZ5etX1syYmY0QgWoQHMVqO6r/ufqUHUeYY/B2zR42kZf9TTwyq4donvRIgEENOfbPIoK5KrA4ODgnw4MDyyoDlUv1JuY/A3jRgNowLYGJAA8snAhEJDL1XkyFWiiApXByt9Xh6of2Z7UtE9woAE00IwGFACMgIB7mrAyHkIFqECWClSGK7dx1Y8pN2PKPAadFKWBkQAwAgJYE5DF3HksFahXgepg9R+LmtAch/BAA2igWQ2MBgAgoJ6T8zcqkLECA8MD7c1ORh6HcaMBNFCkBnQAAARkNHkeTgV0FfjNSn/e0sdbGnlLJxrwUgO1AAAI0Dk6+6hAkxUQQvxOdai6o0ia51hcPaIBNJBFA/UAYAQEsDCwSd/nYVTgYgUqg5Wrs0xEHotxowE0ULQGGgHACAhgYSDZRgWaqYAQ4pvVoeq+oiczxyNA0AAayKKBZgAACGjG9XkMFfhNBfYO7v27LJOQx2LaaAANuNBAswAwAgJ4OYCkowL1KlAZqsx2MZk5JiGCBtBAFg1kAYAREMDLAfUCgL+lXYHqUPWNLJOQx2LaaAANuNBAVgAYAQHcCUg75ui9rgL9/f1/4mIic0wCBA2ggawaaAUARkAAdwJ0IcC+dCtQGa78ddZJyOMxbjSABlxooFUAAALSzTh6XqcClcHKt11MZI5JgKABNJBVA3kAYAQE8HJAnUzgTwlVoDpUvTbrJOTxGDcaQAMuNJAXAEZAAC8HJJRzdLVGBSrDlQ4XE5ljEiBoAA1k1YAJABgBAdwJqJEL7E6kAgAAJpzVhHk8mnGlAVMAAAQkEnB0s34FAADM3JWZc1y0l1UDJgEACKifDfw1gQoAAJhwVhPm8WjGlQZMAwAQkEDI0cXaFQAAMHNXZs5x0V5WDdgAACCgdj7wl8grAABgwllNmMejGVcasAUAQEDkQUf39BUAADBzV2bOcdFeVg3YBAAgQJ8R7I24AgAAJpzVhHk8mnGlAdsAAAREHHZ07fIKAACYuSsz57hoL6sGigAAIODynGBPpBUAADDhrCbM49GMKw0UBQBAQKSBR7curQAAgJm7MnOOi/ayaqBIAAACLs0K/hdhBQAATDirCfN4NONKA0UDABAQYejRpa8rAABg5q7MnOOivawacAEAQMDXecG/IqsAAIAJZzVhHo9mXGnAFQAAAZEFH935qgIAAGbuysw5LtrLqgGXAAAEkJrRVQAAwISzmjCPRzOuNOAaAICA6CIw7Q4BAJi5KzPnuGgvqwZ8AAAgIO3MjKr3AAAmnNWEeTyacaUBXwAACIgqBtPtDACAmbsyc46L9rJqwCcAAALSzc1oeg4AYMJZTZjHoxlXGvANAICAaKIwzY4AAJi5KzPnuGgvqwZ8BAAgIM3sjKLXAAAmnNWEeTyacaUBXwEACIgiDtPrBACAmbsyc46L9rJqwGcAAALSy8/gewwAYMJZTZjHoxlXGvAdAICA4CMxrQ4AAJi5KzPnuGgvqwZCAAAgIK0MDbq3AAAmnNWEeTyacaWBUAAACAg6FtM5eQAAM3dl5hwX7WXVQEgAAASkk6PB9hQAwISzmjCPRzOuNBAaAAABwUZjGicOAGDmrsyc46K9rBoIEQCAgDSyNMheAgCYcFYT5vFoxpUGQgUAICDIeIz/pAEAzNyVmXNctJdVAyEDABAQf54G10MAABPOasI8Hs240kDoAAAEBBeRcZ8wAICZuzJzjov2smogBgAAAuLO1KB6BwBgwllNmMejGVcaiAUAgICgYjLekwUAMHNXZs5x0V5WDcQEABICehYtEivWry3FmzD0zOsKAACYcFYT5vFoxpUGtu3eKWRwxvTbvWiRWLZ+7T1eBwUnF2cFAADM3JWZc1y0l1UDu/p6owp/BTLcCYgzX73vFQCACWc1YR6PZlxpoH9gb5QAIEGAOwHex2V8JwgAYOauzJzjor1WNDBnyeJoIYA7AfFlrNc9AgAw4VZMmOegG1caWLLmhWgBgDsBXsdlfCcHAGDkroyc46K9VjTw4rZXogYACQHcCYgva73sEQCACbdiwjwH3bjSwN7Bipj19NNAgJeJwkkFVQEAACN3ZeQcF+21qoFVGzdEDwC8HBBUlIZ5sgAAJtyqCfM8tONKA+XKHjHrmfjvAvByQJi5GsxZAwCYuCsT57hoL48G1m5+KYm7AEBAMHEa3okCAJhwHhPmuejHlQYqgxWxaPWqZCCAzwkIL1+9P2MAAAN3ZeAcF+3l1cCeSr94fOmSZCCAdwd4H6lhnSAAgAnnNWGej4ZcaqC3v0/MXQIEhJU8nK0XFQAAMG+X5s2x0Z8JDfTt3SPmL1/OnQAvUoWTCKYCAAAGbMKAaQMdudaA/HyAlRvWAwHBpA8n6rwCAADG7dq4OT4aNKmB7b27xKJVaSwOZE2A8wgN+wQAAMzXpPnSFnryRQPby7vE8vXrxGPPPhv1XQEgIOwMdnr2AACG7Ythcx5o0ZYGdvb1io1bt4jVL24QK9avE8vWrY3qd/m6tede3rn1vzsNEw4eXgUAAEzXlunSLtpCA8VpQHp5eAnEGTutAABQ3ATFDKk1GkADtjQAADiN0jAPDgBgSLYMiXbRFhooTgMAQJgZ7PSsAYDiJihmSK3RABqwpQEAwGmUhnlwAABDsmVItIu20EBxGgAAwsxgp2cNABQ3QTFDao0G0IAtDQAATqM0zIMDABiSLUOiXbSFBorTAAAQZgY7PWsAoLgJihlSazSABmxpAABwGqVhHhwAwJBsGRLtoi00UJwGAIAwM9jpWQMAxU1QzJBaowE0YEsDAIDTKA3z4AAAhmTLkGgXbaGB4jQAAISZwU7PGgAoboJihtQaDaABWxoAAJxGaZgHBwAwJFuGRLtoCw0UpwEAIMwMdnrWAEBxExQzpNZoAA3Y0gAA4DRKwzw4AIAh2TIk2kVbaKA4DQAAYWaw07MGAIqboJghtUYDaMCWBgAAp1Ea5sEBAAzJliHRLtpCA8VpAAAIM4OdnjUAUNwExQypNRpAA7Y0AAA4jdIwDw4AYEi2DIl20RYaKE4DAECYGez0rAGA4iYoZkit0QAasKUBAMBplIZ5cAAAQ7JlSLSLttBAcRoAAMLMYKdnDQAUN0ExQ2qNBtCALQ0AAE6jNMyDAwAYki1Dol20hQaK0wAAEGYGOz1rAKC4CYoZUms0gAZsaQAAcBqlYR4cAMCQbBkS7aItNFCcBgCAMDPY6VkDAMVNUMyQWqMBNGBLAwCA0ygN8+AAAIZky5BoF22hgeI0AACEmcFOzxoAKG6CYobUGg2gAVsaAACcRmmYBwcAMCRbhkS7aAsNFKcBACDMDHZ61gBAcRMUM6TWaAAN2NIAAOA0SsM8OACAIdkyJNpFW2igOA0AAGFmsNOzBgCKm6CYIbVGA2jAlgYAAKdRGubBAQAMyZYh0S7aQgPFaQAACDODnZ41AFDcBMUMqTUaQAO2NAAAOI3SMA8eGgD0VfrF7r4+fqkBGkADVjUgvcZWWNtoFwAIM4OdnrXvACAn4ZwFy8VP75op/uGmSaKtvcQvNUADaKAQDVw9dtJF75Ee5DsQAABOozTMg/sMAEtWrhMd46YUMtEBC8AKDaCBehq4ftwUsXTVem/vCgAAYWaw07P2FQDmzF8uxnRMIPy50kMDaMAbDUhPmjN/hZcQAAA4jdIwD+4jAMgrf8Kfq7F6V2P8DX240oD0Jh/vBAAAYWaw07P2DQD2VPaKG8ZN9Yb4XZkMxyXg0IC/GpAvTfq2JgAAcBqlYR7cNwCQi20wPn+Nj7FhbNDAVxqY+5RfLwUAAGFmsNOz9g0AfvqrmQAAr/miATTgvQZuv/sRr9YCAABOozTMg/sGALzVjytMrjDRQAgakG8RtPF+/lbbBADCzGCnZ+0TAMjX1EKY+JwjAYUG0IDUgE/rAAAAp1Ea5sF9AoDKYEV8h7f+AUHc/kYDAWhAelVl0J+PNgYAwsxgp2ftEwDIW183jp+G+QVgflwBcwWcugbGjr+XlwCcphcHz10B3wCga/qTAAAAgAbQgPcamDpjPgCQO4FowGkFfAOAtRs3izEdXF2lfnVF/5kDPmtAetTaTZsBAKfpxcFzV8A3AJAvA5SmzPGe/n02J86N8EQDdjUwYepcr8Jf+qb08tyBQANpVcBHAOjt3yNu+ekDQAC3gdEAGvBOAzf/5H4hParVt+vZeh4AkFZ2G+mtjwAgJ8j2Xb3iR3fM8G7yc2Vl98qK+lJfnzXwozsfuuhNtkI8T7sAgJFITKsRXwFAToQ91b3i0SeXietu7gQEuBJEA2jAmQbab+m66EX91b3eXfkraAAA0spuI731GQCUsPcOVsTqNZvE7HlLxX0PPyXkOwX4pQZoAA3Y1ID0mtlPLLvoPT6931/54ugtAGAkEtNqJAQAGC10/u/Ph48wFowFGvBDAwBAWtltpLcAgB+TFxNlHNAAGsijAQDASCSm1QgAgOnkMR2ei37QgB8aAADSym4jvQUA/Ji8mCjjgAbQQB4NAABGIjGtRgAATCeP6fBc9IMG/NAAAJBWdhvpLQDgx+TFRBkHNIAG8mgAADASiWk1AgBgOnlMh+eiHzTghwYAgLSy20hvAQA/Ji8myjigATSQRwMAgJFITKsRAADTyWM6PBf9oAE/NAAApJXdRnoLAPgxeTFRxgENoIE8GgAAjERiWo0AAJhOHtPhuegHDfihAQAgrew20lsAwI/Ji4kyDmgADeTRAABgJBLTagQAwHTymA7PRT9owA8NAABpZbeR3gIAfkxeTJRxQANoII8GAAAjkZhWIwAAppPHdHgu+kEDfmgAAEgru430FgDwY/JioowDGkADeTQAABiJxLQaAQAwnTymw3PRDxrwQwMAQFrZbaS3AIAfkxcTZRzQABrIowEAwEgkptUIAIDp5DEdnot+0IAfGgAA0spuI70FAPyYvJgo44AG0EAeDQAARiIxrUYAAEwnj+nwXPSDBvzQAACQVnYb6S0A4MfkxUQZBzSABvJoAAAwEolpNQIAYDp5TIfnoh804IcGAIC0sttIbwEAPyYvJso4oAE0kEcDAICRSEyrEQAA08ljOjwX/aABPzQAAKSV3UZ6CwD4MXkxUcYBDaCBPBoAAIxEYlqN+A4AlcGKWP7cBtH5wDxx68+ni45xXeKa70/mlxqgATRgVQPSa6TnSO+RHiS9KE9A234uAJBWdhvprc8AsG7TFvHDXzwo2tpL/FIDNIAGnGpg/B0zxPpNr3gLAQCAkUhMqxFfAWDxinXiyhsnOp3wgAfghQbQwEgNXHXjPWLxirVeQgAAkFZ2G+mtjwCwZsPL4sob7yH8ueJDA2jAOw1Ib1qzcbN3EAAAGInEtBrxDQAqg1Vx8233ezfpR14F8G+uCtFA2hr4/o/vE3s9WxMAAKSV3UZ66xsALHj2OcKfqz40gAa818DCJc97dRcAADASiWk14hsA3DFxlvcTn6u/tK/+GH/GX2rgzntmAQBpxWV8vfUNAORb/DBYDBYNoAHfNXDdzZ0AQHyRmFaPfAKAPZV+wp9bv2gADQShgTEdJSE9y/b7+5ttn5cA0spuI731CQDkopoxHROCmPy+X51wflxBowG7GpBe5dNCQADASCSm1YhPACBJV376FsZl17ioL/VFA/k1cP24Kd5c/UvvBADSym4jvfUNACZOmwsAcAsYDaAB7zUw6b4nAAAjKUQjzirgGwCseH6j9xOfq6f8V0/UkBqGroGVL2wEAJwlFwc2UgHfAEDeyvrZXY8AAVwBogE04K0Gbr+726vw5yUAI3GYXiM+AsD2Xb1Cvr4W+hUC589VLhqITwMdP5gitu7aBQCkF5fx9dhHAJA0++LmreKm8dOAAK4C0QAa8EYDY8ffK17cvM278OcOQHzZXEiPfAUAKeid5bKYOmO++M71vDWQK8n4riQZ03DGVHrQtBkLxK6+spfhDwAUEpfxHcRnAJCilr87envFvKdXia7pT178+E35+hu/1AANoAGbGpAf9Ss9R3qP9CDlR75upZfHl1D0yGoFQgAAXycc5/UVoFEH6oAG3GsAALAalXE2DgC4n7iYJ2OABtBAXg0AAHFmtNVeAQAYT17j4floCA241wAAYDUq42wcAHA/cTFPxgANoIG8GgAA4sxoq70CADCevMbD89EQGnCvAQDAalTG2TgA4H7iYp6MARpAA3k1AADEmdFWewUAYDx5jYfnoyE04F4DAIDVqIyzcQDA/cTFPBkDNIAG8moAAIgzo632CgDAePIaD89HQ2jAvQYAAKtRGWfjAID7iYt5MgZoAA3k1QAAEGdGW+0VAIDx5DUeno+G0IB7DQAAVqMyzsYBAPcTF/NkDNAAGsirAQAgzoy22isAAOPJazw8Hw2hAfcaAACsRmWcjQMA7icu5skYoAE0kFcDAECcGW21VwAAxpPXeHg+GkID7jUAAFiNyjgbBwDcT1zMkzFAA2ggrwYAgDgz2mqvAACMJ6/x8Hw0hAbcawAAsBqVcTYOALifuJgnY4AG0EBeDQAAcWa01V4BABhPXuPh+WgIDbjXAABgNSrjbBwAcD9xMU/GAA2ggbwaAADizGirvQIAMJ68xsPz0RAacK8BAMBqVMbZOADgfuJinowBGkADeTUAAMSZ0VZ7BQBgPHmNh+ejITTgXgMAgNWojLNxAMD9xMU8GQM0gAbyagAAiDOjrfYKAMB48hoPz0dDaMC9BgAAq1EZZ+MAgPuJi3kyBmgADeTVAAAQZ0Zb7VUIAPDS1u2iZ+4ScVfnY+LH//iQ+OHPH+SXGqABNGBVA9JrpOf0PL5EvPzKdpE3oG0/HwCwGpVxNu4zAGzduUvc3fWYGNNREm3t/FIDNIAG3GhAelBpyhyxddcub0EAAIgzo632ylcAWLNxs2i/pYvgB3zQABrwRgMdP5gipDfZvppvpX0AwGpUxtm4jwCwZftOce3Nnd5Meq663Fx1UXfq7qMGrv1+p3h56w7vIAAAiDOjrfbKNwCoDFbEj+6YQfhz1YcG0IC3GvjxnQ8J6VWtXKnbeg4AYDUq42zcNwBYvHKdt5Pex6sRzomrZDTgRgNLV60HAOKMxXR65RsA3NX1GADAlR8aQAPea0AuCrR1Nd9Ku9wBSCe3jfXUNwBg4Z+bqxmuIqk7GsimAbkgsJWgtvUcAMBYLKbTkE8A0F/dy1v+uPLz/sqPoMwWlLHWS741UHqWrUDP2i4AkE5uG+upTwCwBwAg/AAgNBCIBiQASM/KGtS2Hg8AGIvFdBryCQDkxODtf1xdxXrFSL/i0rZ8udJWmLfSLgCQTm4b66lvAPCryY9yBRTIFRCBFlegMZ7ZxlN+SmkrQW3rOQCAsVhMpyHfAOCZpWsAAAAADaAB7zXwzPI1AEA6URlnT30DAPnhGuNun+795OdqKdvVEvWiXjFp4NafP8gHAcUZiWn1yjcAkLfHNm3ZJq4eOwkI4CoQDaAB7zTwDzdNEhs3b/Xq6l/6Ji8BpJXdRnrrIwBIMa984UVxzfcmezf5Y7qKoS9claOBbBq45vuTL3qTrdfx87QLABiJxLQa8RUA5ESQ38H981I3EMBVIBpAA8418IsJPV5+CZCCBgAgrew20lufAUAJe92LW8T07kXi9ru7xc233S/Gjr+XX2qABtCAVQ1Ir5GeM71nkZAepPzI1y0AYCQS02okBADwdcJxXlXvTZExYoxS0QAAkFZ2G+ktAIBBpmKQ9BOtx6wBAMBIJKbVCACAKcZsivQNfaeiAQAgrew20lsAAINMxSDpJ1qPWQMAgJFITKsRAABTjNkU6Rv6TkUDAEBa2W2ktwAABpmKQdJPtB6zBgAAI5GYViMAAKYYsynSN/SdigYAgLSy20hvAQAMMhWDpJ9oPWYNAABGIjGtRgAATDFmU6Rv6DsVDQAAaWW3kd4CABhkKgZJP9F6zBoAAIxEYlqNAACYYsymSN/QdyoaAADSym4jvQUAMMhUDJJ+ovWYNQAAGInEtBoBADDFmE2RvqHvVDQAAKSV3UZ6CwBgkKkYJP1E6zFrAAAwEolpNQIAYIoxmyJ9Q9+paAAASCu7jfQWAMAgUzFI+onWY9YAAGAkEtNqBADAFGM2RfqGvlPRAACQVnYb6S0AgEGmYpD0E63HrAEAwEgkptUIAIApxmyK9A19p6IBACCt7DbSWwAAg0zFIOknWo9ZAwCAkUhMqxEAAFOM2RTpG/pORQMAQFrZbaS3AAAGmYpB0k+0HrMGAAAjkZhWIwAAphizKdI39J2KBgCAtLLbSG8BAAwyFYOkn2g9Zg0AAEYiMa1GAABMMWZTpG/oOxUNAABpZbeR3gIAGGQqBkk/0XrMGgAAjERiWo2EAAC9/XvE08vWiOndi8Q99z4u7u56jF9qEKwGJk6bKx54ZKFYtPQFsXtPn4g5lOhbcdAFAKSV3UZ66zMAyOB/sOdpcdWN94i29hK/1CA6DVx5w0Rx38ynxO4+QABYyAcLAICRSEyrEV8BYPP2HeLm2+6PzvABGUBOp4GxP7pXbNqyjbsBQ/lCMGWIAADSym4jvfURAHaWy0Iaos4o2UeAxqqB9lu6xNadu4AAIKAlDQAARiIxrUZ8BIA7JvYQ/tzuT1IDt/3y4ZbMP+UrX/r+1V0TACCt7DbSW98AYPW6TUkaf6xXtfQr+x2bJSvXAQHcBcisAQDASCSm1YhvADDpvscBAK7+k9bArzofzWz+XAWzdgAASCu7jfTWNwC4YdzUpM2fK+bsV8yx1ezqsZMAAO4AZNYAAGAkEtNqxCcA2DtYEWM6CIDYAo3+ZNc0bwvkij7rXR0AIK3sNtJbnwBgT2UvV//c/kcD7SWxfdfuzFeAWQODx8cFGQCAkUhMqxGfAEAa0jXfm0wAAAFJa0DeBasMxhVOwIb98QQA0spuI731DQB+XupO2vy5XZ79dnlsNfvxnQ9x9c8agMwaAACMRGJajfgGAPOeXgUAcAcgaQ3MfmJZZvPnCtv+FbbvNQYA0spuI731DQD6q3v5FEAAIFkAkJ8GKL8Dw/ew4fz8Aw4AwEgkptWIbwAgjWX1mk3iO9dPSDYEYrulTX+ae1ljTMcEwYcA+ResocAOAJBWdhvprY8AICfcgmefAwK4E5AMBMqFf3MWLOfKn9f+W9YAAGAkEtNqxFcAkBDw3NpN4uaf8I2AXEE3dwUdap3Gjr9XrHh+Y8vGH8oVKudp9+4GAJBWdhvprc8AIA1DfjjQoqUviLs6HxM3jZ8m5Penh2r0nHfcQd7s+H73honixh9OFb+c/OjFO11y3QvhaDccU6gvAGAkEtNqxHcASGHi0kfMHw2ggbwaAADSym4jvQUAMJ68xsPz0RAacK8BAMBIJKbVCADgfuJinowBGkADeTUAAKSV3UZ6CwBgPHmNh+ejITTgXgMAgJFITKsRAMD9xMU8GQM0gAbyagAASCu7jfQWAMB48hoPz0dDaMC9BgAAI5GYViMAgPuJi3kyBmgADeTVAACQVnYb6S0AgPHkNR6ej4bQgHsNAABGItHvRtraFv/ud68v/eu2G0rfartu4p/n/V297sUJTF73k5cxYAzQABrIowHp5Xnz4OLzbyh962LGtC3+Xb/TMIGzGzt29u+PaZ/wv8a0lx5pay8NtLWXzjT7iWPNPG7SfY/zKWR8/jgaQANoIHANSC9vxvMzPOaLtvZS9Yr20swrOkp/L7Mogcj1o4v/79rOf9XWUZrQ1l46mmHAMgsAAOCqI89VB89FP2jADw1YAIDReXL0YibdUPqXfqRknGfxzSvaS7e0tZc+sRn8qm0AwI/Ji4kyDmgADeTRQAEAoIDg4zHtpe9/4xvf+GacEeyoV1eOLf1xW3tprQrnIrYAAKaTx3R4LvpBA35ooEAA+AoEOkprZGY5isu4DvvtGyb927b20oEiQn/kMQAAPyYvJso4oAE0kEcDhQNA+8Vv93xDLkiPK40L7s3FFZftpTdHBnNR/wYAMJ08psNz0Q8a8EMDjgBAtF1Xeue7HZP+TcGxGcfh2toe+Kdt7aVKUYE/+jgAgB+TFxNlHNAAGsijAWcAIO8EdJT629tL/ySOVC6wF1e0l3pGh3KR/wcAMJ08psNz0Q8a8EMDTgGgvSTk2wULjM7wDzXmuol/1dZeulBk4I8+FgDgx+TFRBkHNIAG8mjANQC0tZfOt1078b+Gn8wF9aCto7RjdCAX/X8AANPJYzo8F/2gAT804AEAyHcHbCsoPsM+TFvHxL8tOux1xwMA/Ji8mCjjgAbQQB4NeAIA4or2if8t7HQu4Ozb2kvzdYFc9D4AANPJYzo8F/2gAT804AsAtLWXniggQsM9hPxM5bb20omiw153PADAj8mLiTIOaAAN5NGARwBw/O9Kpd8LN6Etn/kVHaW/1IWxi30AAKaTx3R4LvpBA35owCMAEN9pL/2F5RgNt/kr2ifc6iLsdccEAPyYvJgo44AG0EAeDfgEAPL7bMJNaMtnPqa99JAujF3sAwAwnTymw3PRDxrwQwM+AUBbe+lByzEabvNt7aWFLsJed0wAwI/Ji4kyDmgADeTRgE8AcMV1pQXhJrTlMx9z3YTlujB2sQ8AwHTymA7PRT9owA8N+AQAMuMsx2i4zV950+RnXYS97pgAgB+TFxNlHNAAGsijAZ8A4KqxU58JN6Etn3n7uOnzdGHsYh8AgOnkMR2ei37QgB8a8AkAOsbNmGc5RsNt/tY7F85ZFgTsAAAgAElEQVR0Efa6YwIAfkxeTJRxQANoII8GfAKA8b98ujvchLZ85r96YJPTbwAcCQIAAKaTx3R4LvpBA35owCcAuHv6S3Mtx2i4zU/u6Vt+5Q2Tj48MYlf/BgD8mLyYKOOABtBAHg34AgBXje36dHJPeWW4CW35zGVxxv/y6W2uQn/kcQEATCeP6fBc9IMG/NCALwAw/u5ndwIAdSBCFmfSzJ3DI4PY1b8BAD8mLybKOKABNJBHAz4AwJiOkrhn5s6DAEADAOjsKYsbf9xTdRX86rgAAKaTx3R4LvpBA35owAcA+N7P5g7IbAMAmgCASTN3vT6mY8I5FcYutgCAH5MXE2Uc0AAayKMB1wAw5vqJ5yc/sutNAKBO+Ms/STqSRZK/P5mw/BUXwa+OCQBgOnlMh+eiHzTghwZcA8DPJq/apXKNOwB1IGAkAHT2lM9eP77b2XoAAMCPyYuJMg5oAA3k0YBLALjpJ7P3d/aUzwMAdYJf/WkUAMg7AR9fe8v9b6mr8iK3AACmk8d0eC76QQN+aMAVALSPe/Dtzp7yCRX+cssdAJX2mq0GAERnd/nodbc+9GqR4S+PBQD4MXkxUcYBDaCBPBpwAQDXj3/4jck9vcdGhj8AoAn9kbu0ACCpqbt88gd3zN9dJAQAAJhOHtPhuegHDfihgaIB4NY7F+7p7Cl/Pjr8AYCRaa/5dy0AUIW8a/qWXVeNnXK0CBAAAPyYvJgo44AG0EAeDRQFAFffPO1o6cEt/SqvdFteAtAEv9rVCAAuFrS79/QvpqzdevX3ph6xCQIAAKaTx3R4LvpBA35owDYAXHPz/UfunLp+Z2dP+Qtd6I/cBwCotNdsmwKA37xNsLOnfGHiw9sHbrtn5ZaO8TOHTH+HAADgx+TFRBkHNIAG8mjANABcdVPn8RvGdw//dNKqrfc8vGPfyIBv9G8AQBP8aldGALj4eQEjCz65u/d4Z3f58KTu3Yfy/nb29L7T1VM+zC81QANoAA2EqwHp5XnzQD5/cnf5SGd372cjMyfrvwEAlfaabV4AyDoYPP6rD12iDtQBDaABNGBfAwCAJvjVLgDAvgCZ5NQYDaABNOBGAwCASnvNFgBwI0rMgLqjATSABuxrAADQBL/aBQDYFyCTnBqjATSABtxoAABQaa/ZAgBuRIkZUHc0gAbQgH0NAACa4Fe7AAD7AmSSU2M0gAbQgBsNAAAq7TVbAMCNKDED6o4G0AAasK8BAEAT/GoXAGBfgExyaowG0AAacKMBAEClvWYLALgRJWZA3dEAGkAD9jUAAGiCX+0CAOwLkElOjdEAGkADbjQAAKi012wBADeixAyoOxpAA2jAvgYAAE3wq10AgH0BMsmpMRpAA2jAjQYAAJX2mi0A4EaUmAF1RwNoAA3Y1wAAoAl+tQsAsC9AJjk1RgNoAA240QAAoNJeswUA3IgSM6DuaAANoAH7GgAANMGvdgEA9gXIJKfGaAANoAE3GgAAVNprtgCAG1FiBtQdDaABNGBfAwCAJvjVLgDAvgCZ5NQYDaABNOBGAwCASnvNFgBwI0rMgLqjATSABuxrAADQBL/aBQDYFyCTnBqjATSABtxoAABQaa/ZAgBuRIkZUHc0gAbQgH0NAACa4Fe7AAD7AmSSU2M0gAbQgBsNAAAq7TVbAMCNKDED6o4G0AAasK8BAEAT/GoXAGBfgExyaowG0AAacKMBAEClvWYLALgRJWZA3dEAGkAD9jUAAGiCX+0CAOwLsNYkn7VoUCxe85p4/uU3xZotb0X1+9ymX4tFz70qHnqyImr13/b+B+ftvXgOyzccFEvXHRSy3raPGUr7s58eFMvWHRSyNk8/96qQtXJ17lIj8hykZmKbB3Juyznes2jAWX1djasvxwUAVNprtgBAsQAwdXaf2LDtbXHsk89FKj/vvv+ZWLru9cIMUBruW++e0Jb3+Mkz4uVd74p7H9tT2Pn4YoT3zdkjNu9+V5z87Ky2NrJmsnZFna8EkMMffKY9lxh3yjm/YevbQnpAUTXmOGUBAGiCX+0CAIoDAHkV8OHHp2P0tqb69Ppbn4j75/ZbMz8Z6kOvHWvqXD7+9AvxxNJ91s7FN+Odt2yf+OT4F03VZvj1Y1YBSWrg4NufNnUuMT7o6LHTomchdwSKmiMAgEp7zRYAKAYAZPif/vzLGP0sU5/e//CUkFeipie/DP9aV/21TvCLM+eEDEbT5+Jbe08u3yfOnD1Xqwza/W8fPmEFAuTYSw2k/iO9gJcFivFeAEAT/GoXAGBfhFMf7RMffZzOLf9G5i6vME2HZN/gB40Oq/27NOLup+K9Gpu5oCpOnW4NPMuDHxgfp30Hm7tDox2syHbKu4HSG0zPBdq71NMBAJX2mi0AcKlYbEyeTTsORWZd+bszf8V+Y8Y3Z/FwrhN67+gpMS3CNQGyT+/lvNp+7NkhY+O0YOX+XOMU45M3bj9krL42vCuGNgEATfCrXQCAfQD45ERzr73GaHC1+iSvBE2ZS2Xfh7UO0/T+gVc/MnY+pvqVt53BVz9quv+1Hrh3+Kixuux/4+Nah0l2/6cnvjBW37x6ifX5AIBKe80WALALAPIKip/LKyBff59iaDX0ic/OXH6AFvbId2fEYoIvbjdz1+nTE2eM1ESOddZ1CC0MYZBPedTgXZZY9GuyHwCAJvjVLgDALgAsW38wSFMq4qQfnl/NHS4PPN5v7FTPn78gnlp1IPc5mTSvVtpauPqAkH0x9SNr3Mp5jHyOXIvAj74C8jMqRtaKf5v1ZABApb1mCwCYFdvoyfvCy2/qZz17xZzF+V9flhBh8if0RYF5Fv3VquMMAx/mlHedRq1zi2G/9IjRvsH/zfkyAKAJfrULADAnNN2kXbL29Rg8ykofTASLfE+56Z9QFwWaWPSnq+V9c/LfAXhofkXXNPuEEEvWFPchWTqPin0fAKDSXrMFAOwCgPz4WX4ur4C80u6aZab2ciGV6Z8QFwWaWPQ3uo4fHzezSK1rVp84/UVrb0ccfU6x/Z/PAzDjA7VABgDQBL/aBQDYFZ8UJZ8BcLllDxwwt+q+t/r+5QcwsCekRYGmFv2NLtuuynvGbk/bAJTR5xva/z88dtpYfWsFYOr7AQCV9potAGAfAFgHcKktX7ggxNwlw8aMT36xjclFb+psQ1kUaHrRn+r/ufMXjH5anVzzIceen68r8PxLvP5vG1AAAE3wq10AgH0AkLc/333/5NezPvF/yU/tMz3pt/UdsVJV+Sl6cmGd6fM11d4jT7X+SX+NCra1fNh4v/cMtfaJjY3ONcS/v/PeSSG9wZQWaEfv5QCASnvNFgDQi8b0ZJJfecoHAgnx5rvHjb3/f+QYyfeZy8+vt/EjP7vex28PnPboHnHkqJ1v05PhZONb62SbUgOp/0gvMLEIduQc4N96LwcANMGvdgEAetHYmEzyO9ezfmFNTEbZP3zUSqiosZoxryJMfSjQ6LrL16/VcXzZVvfn/wTE0f2U/5dfmSy1aqufEgL27juqO3QS+6QH2KyvrXELtV0AQKW9ZgsAFAcAagLJ70GXJmDjdWvfHPTsl+eF/AjYJwr61j25tuDLL89bKYNPiwJtLfr78tz5wsZKfhPjgTc+FlIjsf/IuS7vfPChP8X7LQCgCX61CwAoXpAKBOR72OVHBS967lUjvyY+alXeUjZxPnJh2qPPDAl5m1r1t6jt6k2/tpIn0sRlv4rqR63jyC9SsgWPzzv4UBqpEakVWVsT2jPxsoicSybORbYh57ic67XGk/12PRgAUGmv2QIAdsVX5OQ28T7rNw4dj8KoWv164Ebk4PqTAm180p/qs42v/y1S/+pYUsN5f+RcUu2xDdsjAQBN8KtdAEDY4h5pTgDA12MZ46LAEBf9jdRnUf8GAL6eB0XV3OfjAAAq7TVbACCeyQIAXDqWsS0KtLXo7+RnZ4V8l4rPJp7l3ACAS+dBltrF+FgAQBP8ahcAEM9kAQAuH8tYFgVuNPT1vqNvjRe56K+ocAEALp8HRdXex+MAACrtNVsAIJ7JAgDoxzL0RYE2F/3F+E10AIB+HvgYzkWcEwCgCX61CwCIZ7IAALXHMtRFgSz6qz2mtcIDAMhes1q1jGE/AKDSXrMFAOKZLABA7bEMcVEgi/5qj2e9YAIAWqtbvZqG/DcAQBP8ahcAEM9kAQDqj6VcFCg/5c7Gj41PCmTRX/3xrBVKAEBrdatVz9D3AwAq7TVbACCeyQIANB7LUBYFsuiv8VjWCiYAoPXa1appyPsBAE3wq10AQDyTBQBobix9XxTIor/mxrFWKAEA+epXq66h7gcAVNprtgBAPJMFAGh+LH1dFMiiv+bHsFYgAQD5a1irtiHuBwA0wa92AQDxTBYAoPmx9HFR4MVFfx+E9fW+PgYCAND8PPBx/EyfEwCg0l6zBQDimSwAQLax9G1RIIv+so1fraAAAMzUsVZ9Q9sPAGiCX+0CAOKZLABA9rH0ZVEgi/6yj12tIAIAzNWyVo1D2g8AqLTXbAGAeCYLANDaWLpeFCgX/Z07f8HGuxNFjJ/01yh8AIDW5kGjuob6dwBAE/xqFwAQz2QBAFofS1eLAln01/qY1QokAMB8TWvVOoT9AIBKe80WAIhnsgAArY+li0WBLPprfbzqBQ8AYKeu9Wru898AAE3wq10AQDyTBQDIN5ZFLwqs7P/Qym3/k6fi+nrfrOECAOSbB1nr7fvjAQCV9potABDPZAEA8o9lUYsCN247ZCX85df7zlu2T/huyjbPDwDIPw9sjk/RbQMAmuBXuwCAeCYLAGBmLG0vCmTRn5lxqhUkAIDd+taqu6/7AQCV9potABDPZAEAzI2lrUWBp05/KeSvjR95zr6acJHnBQCYmwdFjputYwEAmuBXuwCAeCYLAGBuLG0uCrQR/u+8d1JMnd0HAPSUBQBgbh7YCuUi2wUAVNprtgBAPJMFADA7ljYXBZqEgNQX/Y0OEwDA7DwYXd/Q/g8AaIJf7QIA4pksAID5sbS5KNAEBLDo7/IxBwAur0looW3yfAEAlfaaLQAQz2QBAOyMpa1FgSYAIMVP+msUDgCAnXnQqO6+/h0A0AS/2gUAxDNZAAB7Y2lrUWAeCCiz6E+75gEAsDcPfA35eucFAKi012wBgHgmCwBgbyx9WxTIor/aYw0A1K5NvaCM9W8AgCb41S4AIJ7JAgDYHUtfFgWy6K/+OAMA9esTa9DX6hcAoNJeswUA4pksAID9sXS9KJBFf43HGABoXKNaYRnjfgBAE/xqFwAQz2QBAIoZS5eLAln013iMAYDGNYox6Gv1CQBQaa/ZAgDxTBYAoLixdLEokEV/zY0vANBcnWoFZmz7AQBN8KtdAEA8kwUAKG4si14UyKK/5scWAGi+VrGFva4/AIBKe80WAIhnsgAAxY5lUYsCLy76m1/RvuVNZ3ip7wMAip0HvusNANAEv9oFAMQzWQCA4sfS9qJAFv1lH1MAIHvNfA/xPOcHAKi012wBgHgmCwDgZiy39R3J83k+dZ8r285jfik+FwBwMw981RoAoAl+tQsAiGeyAADFj+XMBVVrX+8ryUCOaffCASCgp/mxBQCar5WvoW3yvAAAlfaaLQAQz2QBAIody2mP7hFHjn5W9wrexB8/+OiUuPexPUBAkxAAABQ7D0yGtY22AABN8KtdAEA8kwUAKHYsq/s/NJHvTbUx9NpHAAAAgAaa1MBIkAAAVNprtgBAsaExUpim/w0AFDeWL24/1FRwm3zQxu2HCIAmAoA7AMXNA9MeZqM9AEAT/GoXABDPZAEAihnLhasPiPPnL5jM9qbaunDhgnjm+VeBgAYQAAAUMw9shLWNNgEAlfaaLQAQz2QBAOyPpe1Ff41IQI4xiwLrjzMAUL8+NkLW5zYBAE3wq10AQDyTBQCwO5ZFLfprBAEsCqw/zgBA/fr4HNY2zg0AUGmv2QIA8UwWAMDuWBa56K8RBAy9doyXAmq8FAAA2J0HNkLaZpsAgCb41S4AIJ7JAgDYG0sXi/4aQQCLAvXjDQDo62IzZH1uGwBQaa/ZAgDxTBYAwM5Yulr01wgAWBSoH28AQF8Xn0Pa5rkBAJrgV7sAgHgmCwBgfixdL/prBAFyzFkUeOm4AwCX1sNmuIbQNgCg0l6zBQDimSwAgNmx9GXRXyMIYFHgpeMOAFxajxBC2uY5AgCa4Fe7AIB4JgsAYHYsfVr01wgCWBT49dgDAF/XwmawhtI2AKDSXrMFAOKZLACAubGUC+xs/Miv95W/Nn7kQsVQTNnmeQIA5uaBzXEqqm0AQBP8ahcAEM9kAQDMjKXNRX/Pv/ymWL3p1zbyX7Ao8KvxBwDMzIOiAtr2cQAAlfaaLQAQz2QBAPKPpc1Ff70D7//2Cr088IEVCJAaSH1RIACQfx7YDuUi2wcANMGvdgEA8UwWACDfWNpc9PfOeyfF1Nl9vwWAKbP7xNuHT1iBgNQXBQIA+eZBkeFcxLEAAJX2mi0AEM9kAQDyjaWtRX/HT54RD87b+9vwV6Y3/Ym94pMTX1iBgJQXBQIA+eaB0mcsWwBAE/xqFwAQz2QBAFofS1uf9CcX/D2xbN9l4a/Mde6SYXH2SxYFqnqY2AIArc8DE/X3rQ0AQKW9ZgsAxDNZAIDWxtL2or9GhsiiwNbGrVZdAQCz9axV51D2AwCa4Fe7AIB4JgsAkH0si1r018gsWRSYfexq1RQAMFfLWjUOaT8AoNJeswUA4pksAEC2sSxy0V8jw2RRYLaxq1dPAMBcLevVOZS/AQCa4Fe7AIB4JgsAkG0si17018gwWRSYbfxq1RMAMFPHWvUNbT8AoNJeswUA4pksAEDzY+lq0V8j82RRYPNjWKuWAED+GtaqbYj7AQBN8KtdAEA8kwUAaG4sXS/6a2SiLApsbhxr1REAyFe/WnUNdT8AoNJeswUA4pksAEDjsbS56E8u5DNlkiwKbDyWtWoNALReu1o1DXk/AKAJfrULAIhnsgAA9cfSp0V/jQyVRYH1x7Je/QCA1mtXr66h/g0AUGmv2QIA8UwWAKD+WPq26K+RobIosP541qofANBa3WrVM/T9AIAm+NUuACCeyQIA1B5LXxf9NTJXFgXWHtNatQMAstesVi1j2A8AqLTXbAGAeCYLAKAfy/kr9ovz5y9Y+cx9+fW+tk2SRYH6ca1VdwAgW71q1TGW/QCAJvjVLgAgnskCAFw+lqEs+mtktuVBvj64UY3U3wGAy+eBqk2KWwBApb1mCwDEM1kAgEvHMqRFf42MmUWBl45tvXoBAM3Xql4dY/kbAKAJfrULAIhnsgAAl45laIv+GhkuiwIvHd9a9QIAmqtTrfrFth8AUGmv2QIA8UwWAODrsQx10V8j82VR4NdjXKtWAEDjGtWqXYz7AQBN8KtdAEA8kwUA+GosQ1/018iEWRRYf84CAPXr00hfsf0dAFBpr9kCAPFMFgCgLKwu+hs090l/eU2WRYG15y0AULs2eXUX4vMBAE3wq10AQDyTJXUAiGnRXyOjZVFg7XkLANSuTSNdxfh3AEClvWYLAMQzWVIHAFuL/k6eOiseerJi/f3+Wc2XRYH6uQsA6OuSVV+xPB4A0AS/2gUAxDNZUgaAFza/aeWDfr48d148sWyfd+GvzPmJpfuEPEcbP2s2v+Vtv1X/dVsAIB5P041v1n0AgEp7zRYAiGeypAoA8ur8izPnbGSgeP4l+5/0l9XQRj/+uZd+baXvsqYzPLzzMbr/o/8PAMTjaaPHtpX/AwCa4Fe7AIB4JkuqAPBK+bCVAJQL7VoxHBfPsbUocEvvu8HUQNUdAIjH09SY5tkCACrtNVsAIJ7JkioAfPjxaeMAcOjICSEX2uUxniKfa2tR4NFjp4Opgao3ABCPp6kxzbMFADTBr3YBAPFMlhQBYNpje8SFC2a/6Ofior/5/i36a2SCNhYFytrKGjc6tk9/BwDi8TQTugIAVNprtgBAPJPl9Odf5r4SfuPQp0GZ/cPzq7n7PLIBuaBunseL/hoZoo1PCgxtHYDUcN4fOZca1Zq/h+GdAIAm+NUuACAMETdjNsc+/Tyv74nBVz8KyvgenLc3d59HNhDCor9GWjC9KFDeWWh0TJ/+PvTasZFD2tK/P/rk86D67FP9fTsXAEClvWYLAMQDAL8+dLwlsxv5pG19R4IzvlOn89/5kDUIadFfI5M1tSjws1Nng9PD9j1HRkq6pX/LlxEa1Zi/h+GdAIAm+NUuACAMETdjNia+AOfJ5fuDM779b3zcksmPfNKhIyeDWvTXSA+mFgUOv34sOD3I74LI+7Nh29vB9buRJlL9OwCg0l6zBQDiAQD5Wu3ZL1v/UBi54rtrVnj1WLj6QC6/P/HZGTFjXniL/hoZunx55PjJM7lqs2DlgeCCUGr4w2OtvzPkzNnzUeqhkV5i/TsAoAl+tQsACC/w6k3UV3pbf0/8M8+/GpzZq1ocaPEuQOiL/lT/a23zLAp87c1PgtXDsy+81jL4bN4d3mcf1Bp/9pcFAKDSXrMFAOICgK5ZfaKVVdDyddOQzUJewWddBCnf4rZiwxtB97uZMVu+4WDmt0rKRXDyDkIz7fv6mB392dcCHHz7UyHnkK994ryy+zUAoAl+tQsAyC4o3yeh/FY8uZq/2Z+d/e8Feet/9Dg8NL8i3v/wVFPdPnP2nJDBOLqNWP8v+yr73MzPe0dPefnlR62MzUu73hHNfkzEvoPHxL2BfeZBKzVJ7TkAgEp7zRYAiA8A1ASXV7fySq7Wz9uHT4gnl/v7RTeqH1m2cvGbNP2Tn53Vdvvc+Qti6LWPxCNPVZMJf1U/2WfZd1kD3Y9cC7Fpx6GoFkPKvsuFrVLrtX7kJ0kuX58ODCo9pLIFADTBr3YBAPECgJrgjz07JNZueUts7Tss5BoB+T7xmQviDkAJAk+tOiA2bj8k5B0O+Zn2S9cdFKG9p12NocmtrMGSta+Ll3a+I+RLPxu2vi0WrNwf/a1vqXn5OQ9yDsi5IOeEnBsma0tb/vkpAKDSXrMFAPwTLCbCmKABNIAGzGgAANAEv9oFAJgRGZOVOqIBNIAG/NMAAKDSXrMFAPwTLCbCmKABNIAGzGgAANAEv9oFAJgRGZOVOqIBNIAG/NMAAKDSXrMFAPwTLCbCmKABNIAGzGgAANAEv9oFAJgRGZOVOqIBNIAG/NMAAKDSXrMFAPwTLCbCmKABNIAGzGgAANAEv9oFAJgRGZOVOqIBNIAG/NMAAKDSXrOd3NO3HNH6J1rGhDFBA2gADRjQQHd5mSb62CUr0NlTno/IDIishzbQERpAA2jAPw30ziPta1Sgs7vvXv8GjEnEmKABNIAG0IARDUytEX/s7uruuxGRGREZnynOXRA0gAbQgGcamNxTvp6kr1GBKbN2/xcAAABAA2gADaCBGDUwZWbvf6oRf+wWQnyzs6f8fowDT58wNDSABtBA0ho4LDOOpK9Tgc6e3hlMkqQnCbctPbttyXxkPqIBAxroLt9fJ/r4k6yAvEXS2VO+gOAMCI4gASbQABpAAz5o4PzUR/b8GSnfRAX4PADCHwBEA2gADUSjgVnlxU1EHw+RFeh6ZM+3OnvKn0cz+BC4DwTOOaBDNIAGXGjgdFd3+d+R7hkq0NlTvh0A4AoADaABNIAGgtbArL6fZIg+HiorIFdLdnWXVwc98NC2C9rmmOgODaABPzQwq7yClf8tMs2986t/2NlT3gEEcAWABtAAGkADgWlgW2l23x+0GH88TVag9MjwP+vs6V0X2MD7QZ9cBTAOaAANoAEHGujdVHpo178gxQ1UoFR6+fcm95RLnT3l84AAVwFoAA2gATTgqQYuyM+ymT277/cNRB9NjKzAlFm9f9PZUx7wdOAdUCYmgBbQABpAA55ooDpldt9fj8ws/m24AqWS+J3JPb1jWBvApPdk0gN+3GJGA+lq4EJXT3l7V3dfm8wmw3FHc/UqID8vYPKsvls7e8pLOmeVhzp7yicIBcAADaABNIAGLGngxMWsmVVe3NVTHnfP7L5/Xy+j+FvBFfjq7YMDf9TVne93W7kyrq9SFfxSAzSABtBAuBqQXp43D+TzeTtfwWHu8nCV4UpHdagq+KUGaAANoIFwNSC93GWWcOwAKwAAhDvhMWvGDg2gAaUBACDAAHZ9ygAABqIMhC1aQAPhagAAcJ2mAR4fAAh3wmPWjB0aQANKAwBAgAHs+pQBAAxEGQhbtIAGwtUAAOA6TQM8PgAQ7oTHrBk7NIAGlAYAgAAD2PUpAwAYiDIQtmgBDYSrAQDAdZoGeHwAINwJj1kzdmgADSgNAAABBrDrUwYAMBBlIGzRAhoIVwMAgOs0DfD4AEC4Ex6zZuzQABpQGgAAAgxg16cMAGAgykDYogU0EK4GAADXaRrg8QGAcCc8Zs3YoQE0oDQAAAQYwK5PGQDAQJSBsEULaCBcDQAArtM0wOMDAOFOeMyasUMDaEBpAAAIMIBdnzIAgIEoA2GLFtBAuBoAAFynaYDHBwDCnfCYNWOHBtCA0gAAEGAAuz5lAAADUQbCFi2ggXA1AAC4TtMAjw8AhDvhMWvGDg2gAaUBACDAAHZ9ygAABqIMhC1aQAPhagAAcJ2mAR4fAAh3wmPWjB0aQANKAwBAgAHs+pQBAAxEGQhbtIAGwtUAAOA6TQM8PgAQ7oTHrBk7NIAGlAYAgAAD2PUpAwAYiDIQtmgBDYSrAQDAdZoGeHwAINwJj1kzdmgADSgNAAABBrDrUwYAMBBlIGzRAhoIVwMAgOs0DfD4AEC4Ex6zZuzQABpQGgAAAgxg16cMAGAgykDYogU0EK4GAADXaRrg8QGAcCc8Zs3YoQE0oDQAAAQYwK5PGQDAQJSBsEULaCBcDQAArtM0wOMDAOFOeMyasUMDaEBpAAAIMIBdnzIAgIEoA2GLFtBAuBoAAFynaYDHBwDCnfCYNWOHBtCA0gAAEGAAuz5lAPGGVnMAAAJuSURBVAADUQbCFi2ggXA1AAC4TtMAjw8AhDvhMWvGDg2gAaUBACDAAHZ9ytWh6rVKQGwxEzSABtBAsBq41nWecPzAKlAZrHybCR/shBeMHWOHBtCA1MDAvoH/G1j8cLquK7B3aO9fYSAYCBpAA2ggcA3sq/6F6zzh+IFVoO/Vvj9m4gc+8Yc4fzSMBlLXwMDAwB8FFj+crg8VqA5V30h98tB/AgQNoIFgNTBcPeBDlnAOAVZgYHBgVrDC5+qXdQBoAA0kroHKUOXhAKOHU/ahAgMDA38LAHD1gwbQABoIUwODg4N/6UOWcA4BVkAI8c2BoYFhJn+Yk59xY9zQQMIaGK4OSA8PMHo4ZV8qMDA8cBUmkrCJJH4LFe2j/VA1UBmsjPElRziPQCsgCbIyVNke6iTgvDFwNIAGEtTAVq7+Aw1d3067f7j/P1aHqqcSnEQsouIOABpAA6Fp4OTAwMB/8C1HOJ+AK1AZrFxTHapeAAK4mkIDaAANeKsB6dFXBhw1nLqvFagOV+9g4ns78UO7SuF8ubJGA4Y1MDA0cLuv+cF5RVCB6lD1R9wJAAIAQTSABrzSwPnqYPWHEUQMXfC9AtXh6v+sDlePYgBeGQBXU4avptA3+g5EAx9UBiv/w/fc4PwiqkB/f/+fVAYrj1eHqucDmSQEJAGJBtBATBo4Xx2uzpHf2xJRtNCVkCowODj4ZwPDA3OrQ9WTgABXTGgADaAB6xo4IYOflf4hJWXk51qtVv9wYHjg/1SHqzMGhgZerg5VDwMF1o0gpqsZ+sLVORq4XAPywurd6lD1Jemt1eHq/+7r6/uDyOOksO79f9SOGaS6gGs9AAAAAElFTkSuQmCC;shadow=1;fontSize=10;" parent="1" vertex="1">
          <mxGeometry x="-1240" y="-590" width="40" height="40" as="geometry" />
        </mxCell>
        <mxCell id="WpvzncnOpUpJatyWA8I4-1" value="&lt;div&gt;&lt;br&gt;&lt;/div&gt;&lt;div&gt;&lt;br&gt;&lt;/div&gt;&lt;div&gt;&lt;span style=&quot;background-color: initial;&quot;&gt;HCM, Recruiting&lt;/span&gt;&lt;br&gt;&lt;/div&gt;&lt;div&gt;&lt;span style=&quot;background-color: initial;&quot;&gt;UK Payroll&lt;/span&gt;&lt;/div&gt;" style="shape=cylinder3;whiteSpace=wrap;html=1;boundedLbl=1;backgroundOutline=1;size=15;fillColor=#ffe6cc;strokeColor=#FFFFFF;shadow=1;" parent="1" vertex="1">
          <mxGeometry x="-1375" y="-214.22000000000003" width="160" height="140" as="geometry" />
        </mxCell>
        <mxCell id="WpvzncnOpUpJatyWA8I4-2" value="" style="shape=image;verticalLabelPosition=bottom;labelBackgroundColor=default;verticalAlign=top;aspect=fixed;imageAspect=0;image=data:image/png,iVBORw0KGgoAAAANSUhEUgAAANMAAABVCAYAAADT7tEcAAAAAXNSR0IArs4c6QAAAARnQU1BAACxjwv8YQUAAAAJcEhZcwAAFxEAABcRAcom8z8AACAVSURBVHhe7V0HdFzVmb4jWbbBGEJJYnYTSNndAAmQShpZSCPZQLLZTZxCc2Jr3psZNTdCnKbkUGzJFnLBYGOCg40tvfdmVFwxgdiwCyEcWkJJII26xoAdSZaLbEuz3/e/+55Go6myjGXzvnPumdHc/t//u/9/y3tSAUY2Xq5Vp+ycqy7MFfYgdM1T5ydr1VidLUCANyf6VqhxW+eqcR2z1Xt21qub9zaqFV31buisV08lb1TJnGGxSvYtUMmuueoBL1/vfLViZ52ajTJPZNl9CLq6AAGOLnTXqQ/33ai+DMvy830L1FYQYSuItF3IcVN/6AVJkCZv6J6H9AtT8t7sE+wVxG/d2yDlV7DOjnr1Xt2MAAGOTCSXqlNgaebsvUHdBuvRKRYFBNjXqJL7EfjZnYEoQw0kWGrZQjbUibi/7p+vlnTWqauSywPXMMARgleuU29PLlMXwhLduH+hejm5yLUcINQg5T/UwSMqiCSWS4i2QD3fVad+gr8vxPrsWN3sAAFGFuBizQJpHqPi0l2jEtNapCt5MWFPg0sCht34nilNoWEX2nIAbWLbSPADC9TdXfOUoZsfIMDhRXe9mnBgkZoE4vxJ3CoEKm4+940ko3Iz9MBqeeue9CDl1KvXkWcHrVumNHTlSDqvvLx160/m6wFJO+eqp/tuUpf88So1XncrQIA3DslaVYJ10A/33KD+QKXkbE9FTlfc1EACcZOAhKOFIAH4iXK2QaGvxeeP00PHHPWdXXPVx7bPUZ/C+ut7u+cNTgOLuBChh9aLZYrlQR35NjOQR6ydpEcf9s1Xm/FbRHcxQIBDD8zsk3oXqie5HiI5MimqF0ggKrhYEKSHsj4JAj2OdUvjjtnq3L6F6tyOG9R7dNFDBso9q6dBncsyO+uUdaARddSrP0u9sHpisXKQndaKO4vcvEB4fOds9TlddIAAww+sL87ouxEWZK7qpeJlU04osWw4eBYCf++FKzcH+WYlbVWqizvk4JkT2nMtrM+NXnsYaI3QlsHtRoDl83YAd8DS/RiTxVt1cQECHDzg0o3qu1mdh7XLX5PLsisjg8zwsAZ7G9RepP8fWJ7P4PMcXdRhA11FWKevod1/EEvpEiZjYN9kfXYr/mYfGtWZupgAAYaO5FJVBsti9cJFowuUSfkYfEuEdL2L1WqQ6mJdxIgD114HFqkNJJS3dsvUJwZv9w+kmqOzBwhQPHZco07vrldNtDTZtqXp6jEei/fdIN3dexrVhTr7iMaTtWp032J1EazQ70GmPq6rMvWPQawUiAfrVvf6teqfdREBAhSGjjplQMn2cVbOtjbyZm0o5eo9N6iLkC3k5j5ywDUcrM7lsFTruQ7kjmCmvnIy4WZLT6Pa0TFHfUlnDxAgN7pApH2LVK8cuqYplb+egDVC3DN0mXS2Ixr2RFUKIv0MfdxBK5RpAuFvvQvlFsXOHXXqEp01QIDMIJFobXiYmb7JwL97QTAs5PfD5bmj6yjc6UIfz8JksYVWiJNGav9FBvWuNd7bqHaBXIGFCpAZUI7yfQtVbyZXR3bpeMeuQe3orFNf0VmOSrzQoI4BqSJw7fq4oZIuC04qB0Co/QtV1/bZI3ejJcBhAmZcU2bjDBaJ6wW5UbBQPfSPOvVZneWoB9ZSl4Iwz2c6U/MsFNaKu4M1VAAfUJTJPQtUX7pFIqnkTAbKBMW6bsccdYLO8qZB13XqjN3z1G3eLYp0+dBCwZp3dgYWKoBnkTKtkTwiwTJdrZO/aYEJZwk3XQYRyrNQDWrv9qPc/Q2QA7RI+7JZJO7YgUhQlh/r5G92hCCLX2YiFINs2ixQXUf7ejJABtAt4TZvJovEXay+wCJlxO5GtTirhYI88X3v3jr1rzp5gKMdyYmqFIP+2/SdqsAiFQbI6pZMayjZ8XRlukwnDXA0A+uj4/c0qjtkhypFERhIpD4eWDaoWTp5gAxIwuWD9V6ciVD8uxeyxeccbrHrLAGORnTUq6rkLYO3ekksbkR0zVM/0kkD5EFnvVqW0bpz4waT0vbr1Sd10gBHG7oa1Zkg0YuDNhzg7yeXiCI066QBCsDWGWoc1pXynr/0dSfvLe5qUPfvvE69XScPcLQAVmcMSPMgF8+pg87AA9me+erVzgb1CZ08QIGATL8B2e3jPcZ0QtEDwOctOmmAowFyM3quqty/QB1I9/G5cwe35JUdc9T5OnmAIgHX+dLeBaqLN0VSZcs1KLyAzs656j900gBHOjoXqZM767LMnstUsnOOmq6TBhgiYKF+pS2RHyhrrqm66tRzOlmAIx0g0kKegaRvOuwDuXY3qk3dN6hTddIAQ8SeevVeWKLfc8JKlTE9gQM3qh5YrwqdNMCRCr6xZ898tT19kOmC0C15eY46TScNcJDYWac+K++WSJm0aJ34yD/c6Ue3zlVv00kDHGng+xs669VmDjB37FLJxN8wW87n49s6eYCDRN+tajzWn+08f0p1p2W3FL+BbHU6aYAjDbvmqq9yG5yvr0ol0v4F4vK92tGg/kUnDTBM2DlbfQFeQE/6g4UcB5Cqo2P2wb8jMMBhANZK9/IMJHVQeaDI+3hwRb6okwUYZkDuNek3TOSqEb2BOjVXJwtwpKBrjjp/d6PaLsRJGVRuRGBA730jXwb5ZkP3tepUrEef4QZPquwPQPaYzB7ZOT84yD1iwPeAd85T1+hbDf5gypWhxWp/d2Nw7nGosbNeTe+7WfWmWidZO92skljHXsn7fTppgJGMzkb1vl3zVBd37LyBZJCdprnqzuB/wR56wM07DkR6hv/cLXUMxFrVq7+9GZ9aPiKxvUGdLRsPKSfyPO/YO1/1ds5RM3Wyw4va2hJlPFzmh4n2yHM7a5Mlo6PWdFW1dkmoev2ScZXOd6XdBQIWKMGHBlOtkzw/Vq92dtSqk3SyACMZO+rVOUkMYiqZ+GpjDO7+voYRMohh5yJVteE5ZdjPqcq1z4VMp/2sWntkbdMbViQ0/e6kmnpXUk37dTJUua5XheNf0LF5satBnccbEKnjoHf19vCfCuhkAUYyOOt1zlVtXDNxMCXcJGRaNGI2HsLxb6hp9yRVRXtS1WxKlprOC+f+aO3IevWwaf2YJFKm44aaO5Oq3PovHZsXfXVqPIjTnj4OWMfOh6sdnO8dKeAt8T2NasWBBerB3kXqwT0NI2xL1oh/HZbJVdKKNcnSiP3sh65q+ycdOzJgWFerqZv6yVS1PqnC1td0bEEgabB2vZ3jcADjsOsGNS+ZDDYfAgwn3iRkChDg0CMgU4AAw4SATAECDBMCMgUIMEwIyBQgwDAhIFOAAMOEgExHMWo3j1Ixe4KKrZugZm6eoKYsK+6mAPNJQBkzfzdB1daO0jF5cfLkW8dLnQyTlr9F/1wcjKVlUq/0ISXMRJumWAd/64Fls30ZcKKx9ASJ8+tE2gvy9P9gyHT5irf58p6yemg3sKust/rjJUF/T8Vwk2lymzvOfp263intxffhkqXH+mVR3kPBNxuOcXVm3YRjUc7pk5YP053NWOsHVSTRrSLxbhVt7Vaxtr8pw/mojs2NsD0DCtENgbuhci3KaWlFeXkfU56AQS2JtTyqYu2ok/W2P1twvcDba5reVRJbcwXa3aYqUK/XBi9EW7pR3t9U9Z3fV5euKv4KS8w+Thn2Lapyndsv05mtqhaM0bFqVHj1x0sr2p4QmXl1Sv8TbTn7P1QyhZsuwti8ljJWu1TEmaxj84Pkq9loKtPehjHqb7OJsvhZs/EqZa5y3xVuNP1wWMgUsT6nqjZegTofkXH260RgPwy7E2NXM6rc+YzOkRvlLf8WirU/4JfFsTGabynqfqMQuW2LqzPx7pLKNd1l0eYrdexBwmw5D41KooIkFDCpZmxOhkznNh2bHdOsYyCM10XQ0VY3xBB4nyvc/DGdKjNoDU2nXa6p6LyhaXcnQxHrWp0iN6JNnyqpbH82xLoq17rt9trgB/zGPvFaTOW6h6GAP9S5C0O45b0YNCg8AuVjOj3yO/odiiSWo/ztbt9T6mZ9TGtY2d9oOhQyTWn+CvrZKWWzvmrkj7b0oZ7LdYqcGAt5QXEeU9N/445RJnlNvwefib+LsplWWMbxYMhkWN9Ge3tE/pRhxjFCQD2hWBsnvxt0zuzgmETbnnX1huMLvQHpx8Scwh6LJ+kMZ4mCrrntQZh5H8bLLk43ssJo+aQMjic4KFBJLP738TXW+3SKjBgVtWeFKtb2QkmTbkgguAqiws40lUxmvzrCi50miEghs85K5DHjTwpBcwFllpj2lVDmf8gAMy/rZfsp4NQgBEC7TNtVhmr8Vm79QpeUH+XWuyHk/b7QzfhOKNkX0cc7RCnZT4mjUuCTMpDZPL5AJotsKJZM5c1fQh27ZdIw0BfWW7l2J2bkr+oUOXGMaZ1XUgGLJnUiP9vJNldvHCwvfhrO7xCWS32eThRJplKj+Voofa+ML9ucqT6ZiPA7y/cmPcP+ZV4rU25NF5Jy3JkX5YZM60EdmxvGr09AHZ1+vfysXPcqxmyY/h1ORcvJaFibqpLZ12+g3G7OBdNaqKa6lyFDUDoo+R5RXg626WzVqbLDsJ7rJ9NalOE8rWOyY8rqL4J4+6QODhIHgcphWFfBpYDLlxJoXdkPxlOJqPAcxHKsBwpBKpnYRhk81oXfWI4rK+222LtCbNNVmOXCzk91CZlROJlCykh8Ge4ILFIKkWKte1BHYQ85VqDcCMiROllGWg6EDGs7fq8YIC/DvkHkSSWnRWZ9Xp5iyGTal4mye0SSSc15HfoyJbU+jPcv4AF1a31xx4nW0LAW65IyYyIm4rC1S9rKfEKI9dsKIkQ0/h6OlU8mTrCGdZ+OHSYY8Z/03xJGpzh4YbgGWXD8NOskWIc1ImSZwex7Q0bzXBk0CBGD9fJpP1yXfZ1CN4huknQK9SHPmIg1X8dmBtsTbXnFtWIkh8wq+1S5/T2dYhBC0dbZWAv0EwoDi9+eE1cmH9LJJANHC5TgIwlbSqLxb7v+tz3hxGjTO8vY/khipSy2c6FQMk1cekLItGFRIGOZOKCcFWs71ORVX9cp8sO0E+LSeO2XWdzZgnZmXtNFWqKQEV2u/jwMhZIp0vwBktUnEolS0b4dZVyoUwxEVeIdsIJ3Sfmsh/mira+KO5cFpxpLjy0xrM39lhP10FPg+j0fTHsl6uqTfNSJ2JpekLxRxw4PxsXsGSVVa/tcpWOnIATDXp3NXSmNNH8pxFmfaTnzhO1NYh04Y6MMun+jYk72/yphWCt8n5wzPmcZI36Gjs0Mw1rvKwbbyXpzEMlH2FqGtBAa8lHwaOOYqLPiyymbCRmRkUwyo3VgdjxOpyoehZLJSFzvKgz6yjbIhGOX69i8KINiw/3ZKgoqbaecW/tKI02X6CSZYdi/7VdUHQolk2H/yicGZVXRvksmzhw4sdo+rbSi5QW4hW4+TuqRONZPOZYJ9JoqN+gxRXCt229z7nDy4caIs1G8FWmfHtfIiuF9p99ZMfs4zIJ/dGd9No4zi7NDTGomUECVFJpWasNei4b+iM/nSP6pVPr4jTr1YBjWIn+3KCKzfY+KNp2pYwdhfFXTp0qjide1Muv22U/DKhSm1NGWe3wFhhAxs/Womjxb8elk4kxLMnPSKOKp00EohEyGVedOTK5rWQLlHh1pLu5F+Fy3pm4iUGZh6wFoVe62yw6cHlsvbyFkogsVbd3mk7eC3k3zOh2bE6GIdZs7UULGlHesrQN5P6yjB4Nra3pGnrvNybVqbbIskviATjEYfI6seuOufoPBCdx+Qo4Khh1h+1F/RnLJ9AIGffDsDWuFNdIvZTbgYFPBY87nRcmm6s5BkKVR52HOOjqXjwmx+OmlEecRn7h0DQ3r1ox1eTCdb/UrBpX6HuaJ6Nj8MKwWf0aiMDFDj4o0T9WxmZFOJvY31v443M2sLkhByECmc6dZ/Q8HRpzrxZcXItGSboKSWJvPq1p5vE5RGMoTVQPIJHIuYNPiKripJibH1DV0IWQyYE28pQJlTHmFV39cx+ZGzD4f6beJLnleh7E65zHJ2EjT1aGKdnhT7oTD+kDKRTp6MEwnZYdST4wRq/CjhaIQbv6G2xk0Tpi+fj8aeZ2O7UfVs2OgZJ3iw3tkql5zmoquOhGK94TMSGhwCGuV0ormL+lcPkCkS0L+Ah6d4pbsFCv7op2Hsob9k373AXVWru+Ashf85Cfa+QH0ZadPDHftgFk6B9LJxDYb1h06dujIQKaPz+LhJSwGz7I8i0RLKN9bHpLD2iLAQ8hS01rly0z6zDqtb+okuRFuqlTTUohYEJnglvrehiaT0fzvOjY/wtZTojsy2bVzMp6oYzLiHdOWnYTx2C16yDqRNxSJP//WTOthunKmjbWyt2mBMa1a/49Cd0SLxxS4WR5BWKHL4sHnTXT9DOclNy1cpojTPSZmuW9INazf++6fDKQ1+IWPRuvnfWUCEUOV7dtHR5qy705NWj4BirVXSMs8MsPaG3RsYZj8v+ORp8Mvg/Ub1j06NjPSyUTLZjiOjh06MpCpwbKOGQ3lkXUo3V7G0WWOtT2kzF8V/Uj7+Ij1Pkxa/WMp5XECs76lk+TGEG5AYHJaOMDtkrW0dYGOzg/D+ZMQkPlpZUz7yZzHK1xTRZzFvseBUII2j2bb0xFOnIqx7B04Mdp36thDAJ5+m/FXUpV2lGklPtGQdvZjOteo6vX7RGCwPiGzud7fqKA7JZbJnZkgkPtBhv6rGvJmnrghgmYdcCVC4TxnBFxUGg5P/P124e/iBGGsOQXC6z9fEGW279axmfGGkAnucMR+/J1TnfeHovHHfWVyJ6r7lbHqFJ2rOBirzpAx8MjEw81I/PVR+Q7TPRRJpgk1TWeOjTmv+fLFMgF/P316Teu7dJL8SCMTZP/X3GQCwtbZWJq83j8BcYziS9LPK0dHrIWhyjV9IhMGeUGMdZOOPkQw7Vn9QownR1e29p5U2TzwrTSGc7trteiicdHY/AMdw8Xr+4RkHETX/L424K4eNzoMe5tvbl2//CEdmxkumeCiHYVkQtmYcF4oMe2/+BOM5yKVr/qIzlE8OA5SliYTyFBiWL+eWOhbkIq1TLGW82Us2Xamp1WNFHgrwcNgMj2bl0yE6SzzzjulfuoWt+hTwa10Eo1pqAP0dKgThxSG8ws1A2sYEoUVU4GiiYt1rHtfLRJPiEKjUaFIYscY7v54YCeEILpT0ZZtqnzFu3WsUjM2jUO5r7odxkAz5Fv7HM1kghxApGfKInZCyOQpIyzWKKO5RecoHulkoszCdquOzY9iyWTGPy0bSj6ZZLIdvN7OhSGSqcSM/wzt2y91C5kwiYctX2fp8sLq/8XfZaTuGdafVTTHOeiwIAwrVLn2/+gWeELEQrZf2SlQClbiqBDcak0BbwGb9n2+UGQBbS3XsRAYNxOcrQPIZKzJ/X+SjmYyQU5Y2zw1cY59Asqu82XLdvIyZ7SINUcqhExULk0mktO0Hv3grAK3gYsk0/ga5+NlFZCTRyb0ryzqOOfMWDFOJ8mPoVom977dS35e7kiHrT/oWBA9YfqWi4FeVdi6QsceYvB6RbUeVLAZbshDUMZjJW5y0+dFmRnH9U7EuUt+T0XYjvlbkBwQ3ur14M4iPSJ0Kikvypp5/OrwylOlLE+paa7D9hodWxhGNJnsZ2O1sPjoZyja0iPK4N8eWNOByaT4/9phxM8IcUL0lBukKqts6zmpqin3FTEPRZKJpCmLYL3sTQaorzTWsv+YQrfGiaGSiSi3wiI3sUxt9JheOanKOkvyU+dSN0aqNvC2fe6D62GD6TzmC4UWhCf+PAOamCyFJWpwG50AyeJ94yoSgwZ6VLR5VkjOG6AQTBtre0AUk6AyekSjX21Y03OedBOXrTwegt0wQNCx9qfQlrN0ivy4HO7lgN08EgMWNBfeQDK5h7aQQyTxNcjMtcIklMivvQNpM1/HyYLjpyw7qSRsbXI3g1APg6tQhe3mhZtnFOXmEWbiGj8PlVbWgE2Ftzts/3HIZOIBb6qbKdv68VnqAnk6oad/DLmL57Qf1KF7UeB5UyThXi0Sdyz+mpwST9o8FgTZI7+5V1PQsMEu2thY/PRQtPVJLRD3NoThnhmUGs2WO6j4nfepeNBbCHg+IqYa+Vim5LUNHZsfEedaKJbrV8tuztq+kGnlfszkDSeThtH07ZBYf7aVhFqXLInE/3G8d/xQKMJ0b/TEJe1HmYWcq/DhRtO6xp/NGQoiU3yhuyGFNlPOHP9ctxhSwQNpM2VdUyyZJL+zzr2Bg/rR3lFYh46tsD45YAyrNvSCtMXdJDkolCfeIQPp+dvVG0Es3QDDcnfi5IaE/TjSZD5MNOz7+91BfJYnPnH69PgZZZWtO2TWZahav1VF89xM92BYX4aA+UCZLpOD69w2YNs9F0xYNhE08nIi4Ge+mwyHiUwn1Cx/S4lhPSmzKNNQOWRGtYt7M225c/WAS66uguW/DAq5hExnt7/drPPmJxOsXtU692DcIxMfMiwEUR63bBp4164YMhFRyLVyfZc3XugDx2sv5OdebO33sjKvG/n8Vc3dJvL8t/7l4DEGSlTCSj0lcmeoZeicgU7uFYWmYoatqM4yCGOi9q/kkQSSUj6dVejUlaKQMnNQmeCGFAr3+ad7fQVjG7hr8/2V+V09eVH+upddF4+KuZE7aFtSn5rNiMNlmQhOaLH2R7TsXOWUPC0/0yny4oRK63Mlsbb++4xQJpD0xVO99W82RO2PuB6JnnQYCiETwTNDuqa6b2j36zJ2eYC19xpXN3R9zFssmYAQJ/jUIwZv7BiETPZz/vrfAzdJDCeCNPXwfuagjLmQwffzPltXEORgFbOaN5Ozk5HEIpjHle46BwrJK0CmM03nGITR3E0yHPfEmZ3gbgt3VTzlEKtl5z5fSkOJac0UYnsConWsaH8IpMx6Q+A4Y9UpEM4Lsl3PdtM15cNg0fhndZLsOJxkIqbcfmaIdXuTAL+LwsEFKxDo+8O+ksoEREJBUbKBm0Gx9idcxUMeLxRIplKz+Sv9j7ywf2t7Q7HWxDtyKWbYqoYcYJV0Hsk3NDIdE7O1jqWU5QXqXHnzZYPW6Lz5w3t7nPCn3nWNXCgOW5WqWLc6G0oMp0IeCZdGyGAsxAx/k3xnYyvanpTt12wQV9He55OJN9L50BjzclAjLVi/2N/RqQuHYV3vDhZnTVoZuj/OE3Jj+XLMMKkhbF0cql6/xScDAycBw7Z0ablxuMk0sXZ0yGy+UdY9Xn/RlhAUe2yMSlEATOe7IcrfszK05rHWbWVR6+cn8C5lqrzMtrNQvvtIOMkj/UadzFeoZeKzXGYi7rv4CLyHGYrYbXJ3M6W+cVgihHj3k+1j+e4BvhuGSCa4tu9XsZZ9fn/9AHJVrtsvTy2nYlLrWzCmFe7/ynKWjKuwLsUEtF4IZ8ZrhsU6va3aOac0mnhehO8KZikqu1W+y5UNK/c5z0S7NMRn7WVQxM14EaFRBMdBClsH1BW3n6xTF4doYp4MOH16WhuZiZztaN/WAYG7OP6sDGGKuxp/BO15py4pNw43mQQY1EjL4gGKxiOJWNsjqgaKkAe18DJQ/haXkJCBWOe2ZMhd6L+SJi+uJzi23JzZGOKDiV7fCyUTcGx45anQnef6Nz9QrztGA+sznFfld6nT+RPq+02/RRsimXiOaWLSn643qzyZye2HuI26Brr2U+7kZdmr9fnnfLRhJfo5e6JtlyLfNYNcwiGDW8dUIApU3DQb6w58d8m1UafKDq6p5FEJdIpC8g6CQa4y095xMh+pHhpCKtw8W3a82D4hKMrmZ2oQRUC9HCz68RXtD6rJqwuvkxsUJKy3YSFkhG9/sBhEJufPZ/8AljwLzqqtHV0asZ4RhfYURIiN8SnkWRxa7Yp2dy0hZSA/5ZIuL7rwiB8Via+UfKb9oIw1x4/E4C5vgTiOj1REWy3Jx3ppKdLrY0B9oVj7XrlFY9inSfu894gY1ktFk4kotz+I/r4g5UtfEWru7IMOL9EpBoJuXtiZXBLDsqX8jg/Cit6MJUUN9PdsnWIYYNo3qxlb3INXukcMPD9yO/whnSo7ypv+E0pzQPJxoFgOP69+AAPm/HRiMa9nyoCxVYmrS6rWb4aQdshWOctODdxK56BUrLlPVa75urpsQXHPA/Gmcdh6Xs3c7CrTzC08pM7+vEyh4K7RD+532zjzPt66f+kj03PfEys1HchyXY8vS4YfPQRFyXPw7OHSm04sibZOgSx+J0Rmf3w56e9VGx7DuFbzsXDJw6dm0Wc1A7Ll2deU5k/L74Vi4sRSTEZLSyrXPMqHG2U8Uut0n316Wk2+/aOiC1w2RFtf49uxRO9gHYdEJsKwfuc+vQAiCani27Kurel+ms7MMTE+77Tx4rKYMxl9ryr4wdOCII9aoFAzMU2e2mTgd6O5KusTuOmga1C9oT8/Q/UmlJHnEfViwKd+WWZqHQyxtmkYoIN7+IsHwyxb9/u46UO8xZ0Kvt+gcp3bRn7qM7i84OLel6Xl5g1bl+rYwsDNpUg8qmKpY6o/uZZJxTexXjCap4IETFPUoXEqLqldeuyYaHyKjEdqnRLSFDza/DGpj2kP5gWivDzt7epxqWLYL/L/9OrYjDi20roY7uBPxvFB1wABAig1vqLl5JDJq0ncooc7K6Syr8x70yZAgAADMcqwpodquCblZgbXzHD3hnphOECANzOwBm3Vm2TuRk00YSm+0z5AgABFgM/jeTcwGKbdzaOH/K9dDhAgQAqiLT/zj3L0xkMomnh2LLfcAwQIUAD4BqTqjQtlo0GIxHPNhGy/l0WsSTpVgAABsmLS8rEhvuU32topZ1jcbPBuxMg78VoWy/Z+gAAB8oC30XmPjofA4ta1yYZDSaztRRWJ1+pUAQIEKAh86yt37sTFa9taVtH6G3liIUCAAEVCXqbCWzpOPd98dUG+f4EaIECAkQSl/h8mmq15k1yedAAAAABJRU5ErkJggg==;" parent="1" vertex="1">
          <mxGeometry x="-1338.38" y="-174.21999999999997" width="80.5" height="32.43" as="geometry" />
        </mxCell>
        <mxCell id="WpvzncnOpUpJatyWA8I4-3" value="MaxiMo" style="shape=cylinder3;whiteSpace=wrap;html=1;boundedLbl=1;backgroundOutline=1;size=15;fillColor=#e1d5e7;strokeColor=#9673a6;" parent="1" vertex="1">
          <mxGeometry x="-830" y="-310" width="80" height="80" as="geometry" />
        </mxCell>
        <mxCell id="WpvzncnOpUpJatyWA8I4-4" value="" style="edgeStyle=orthogonalEdgeStyle;rounded=1;orthogonalLoop=1;jettySize=auto;html=1;entryX=0.855;entryY=0;entryDx=0;entryDy=4.35;entryPerimeter=0;dashed=1;curved=0;" parent="1" target="WpvzncnOpUpJatyWA8I4-1" edge="1">
          <mxGeometry relative="1" as="geometry">
            <Array as="points">
              <mxPoint x="-1238" y="-270" />
            </Array>
            <mxPoint x="-940" y="-270" as="sourcePoint" />
          </mxGeometry>
        </mxCell>
        <mxCell id="WpvzncnOpUpJatyWA8I4-5" value="Time Sheets/Time Blocks&lt;div&gt;as &lt;b&gt;Work schedules&lt;/b&gt;&lt;/div&gt;" style="edgeLabel;html=1;align=center;verticalAlign=middle;resizable=0;points=[];" parent="WpvzncnOpUpJatyWA8I4-4" vertex="1" connectable="0">
          <mxGeometry x="-0.115" y="1" relative="1" as="geometry">
            <mxPoint as="offset" />
          </mxGeometry>
        </mxCell>
        <mxCell id="WpvzncnOpUpJatyWA8I4-6" value="Genesys&lt;div&gt;Call Centre Only&lt;/div&gt;" style="shape=cylinder3;whiteSpace=wrap;html=1;boundedLbl=1;backgroundOutline=1;size=15;fillColor=#e1d5e7;strokeColor=#9673a6;" parent="1" vertex="1">
          <mxGeometry x="-958.06" y="-310" width="80" height="80" as="geometry" />
        </mxCell>
        <mxCell id="WpvzncnOpUpJatyWA8I4-7" style="edgeStyle=orthogonalEdgeStyle;rounded=1;orthogonalLoop=1;jettySize=auto;html=1;entryX=0.994;entryY=0.444;entryDx=0;entryDy=0;entryPerimeter=0;dashed=1;curved=0;startArrow=classic;startFill=1;endArrow=none;endFill=0;" parent="1" source="WpvzncnOpUpJatyWA8I4-6" target="WpvzncnOpUpJatyWA8I4-1" edge="1">
          <mxGeometry relative="1" as="geometry">
            <Array as="points">
              <mxPoint x="-920" y="-152" />
            </Array>
          </mxGeometry>
        </mxCell>
        <mxCell id="WpvzncnOpUpJatyWA8I4-8" value="Absence Balance / Holiday Entitlements" style="edgeLabel;html=1;align=center;verticalAlign=middle;resizable=0;points=[];" parent="WpvzncnOpUpJatyWA8I4-7" vertex="1" connectable="0">
          <mxGeometry x="0.064" y="-2" relative="1" as="geometry">
            <mxPoint as="offset" />
          </mxGeometry>
        </mxCell>
        <mxCell id="WpvzncnOpUpJatyWA8I4-9" style="edgeStyle=orthogonalEdgeStyle;rounded=0;orthogonalLoop=1;jettySize=auto;html=1;entryX=0;entryY=0.5;entryDx=0;entryDy=0;dashed=1;strokeColor=#007FFF;" parent="1" target="WpvzncnOpUpJatyWA8I4-13" edge="1">
          <mxGeometry relative="1" as="geometry">
            <Array as="points">
              <mxPoint x="-1202" y="-104.5" />
              <mxPoint x="-1202" y="-104.5" />
            </Array>
            <mxPoint x="-1207" y="-104.27999999999997" as="sourcePoint" />
          </mxGeometry>
        </mxCell>
        <mxCell id="WpvzncnOpUpJatyWA8I4-10" value="ABSENCE" style="edgeLabel;html=1;align=center;verticalAlign=middle;resizable=0;points=[];" parent="WpvzncnOpUpJatyWA8I4-9" vertex="1" connectable="0">
          <mxGeometry x="-0.125" y="-2" relative="1" as="geometry">
            <mxPoint as="offset" />
          </mxGeometry>
        </mxCell>
        <mxCell id="WpvzncnOpUpJatyWA8I4-11" style="edgeStyle=orthogonalEdgeStyle;rounded=1;orthogonalLoop=1;jettySize=auto;html=1;entryX=1;entryY=0.5;entryDx=0;entryDy=0;exitX=1;exitY=0.5;exitDx=0;exitDy=0;dashed=1;strokeColor=#007FFF;curved=0;" parent="1" source="WpvzncnOpUpJatyWA8I4-13" target="WpvzncnOpUpJatyWA8I4-16" edge="1">
          <mxGeometry relative="1" as="geometry">
            <Array as="points">
              <mxPoint x="-1032" y="-105.5" />
              <mxPoint x="-1032" y="-107.5" />
              <mxPoint x="-952" y="-107.5" />
              <mxPoint x="-952" y="-42.5" />
            </Array>
          </mxGeometry>
        </mxCell>
        <mxCell id="WpvzncnOpUpJatyWA8I4-12" value="Boomerang&lt;div&gt;Integration&lt;/div&gt;" style="edgeLabel;html=1;align=center;verticalAlign=middle;resizable=0;points=[];" parent="WpvzncnOpUpJatyWA8I4-11" vertex="1" connectable="0">
          <mxGeometry x="0.2814" y="2" relative="1" as="geometry">
            <mxPoint as="offset" />
          </mxGeometry>
        </mxCell>
        <mxCell id="WpvzncnOpUpJatyWA8I4-13" value="Work Schedules" style="rounded=1;whiteSpace=wrap;html=1;fillColor=#D5E8D4;strokeColor=none;" parent="1" vertex="1">
          <mxGeometry x="-1102" y="-120" width="120" height="30" as="geometry" />
        </mxCell>
        <mxCell id="WpvzncnOpUpJatyWA8I4-14" style="edgeStyle=orthogonalEdgeStyle;rounded=1;orthogonalLoop=1;jettySize=auto;html=1;entryX=0.855;entryY=1;entryDx=0;entryDy=-4.35;entryPerimeter=0;dashed=1;strokeColor=#007FFF;curved=0;" parent="1" source="WpvzncnOpUpJatyWA8I4-16" edge="1">
          <mxGeometry relative="1" as="geometry">
            <Array as="points">
              <mxPoint x="-1230" y="-42.5" />
            </Array>
            <mxPoint x="-1230" y="-82.27999999999997" as="targetPoint" />
          </mxGeometry>
        </mxCell>
        <mxCell id="WpvzncnOpUpJatyWA8I4-15" value="PAYROLL" style="edgeLabel;html=1;align=center;verticalAlign=middle;resizable=0;points=[];" parent="WpvzncnOpUpJatyWA8I4-14" vertex="1" connectable="0">
          <mxGeometry x="-0.0856" y="3" relative="1" as="geometry">
            <mxPoint as="offset" />
          </mxGeometry>
        </mxCell>
        <mxCell id="WpvzncnOpUpJatyWA8I4-16" value="Work Shifts" style="rounded=1;whiteSpace=wrap;html=1;fillColor=#D5E8D4;strokeColor=none;" parent="1" vertex="1">
          <mxGeometry x="-1132" y="-57.5" width="120" height="30" as="geometry" />
        </mxCell>
        <mxCell id="WpvzncnOpUpJatyWA8I4-18" value="1" style="ellipse;whiteSpace=wrap;html=1;aspect=fixed;fillColor=#6a00ff;strokeColor=#3700CC;fontColor=#ffffff;" parent="1" vertex="1">
          <mxGeometry x="-1200" y="-310" width="30" height="30" as="geometry" />
        </mxCell>
        <mxCell id="WpvzncnOpUpJatyWA8I4-19" value="2" style="ellipse;whiteSpace=wrap;html=1;aspect=fixed;fillColor=#6a00ff;strokeColor=#3700CC;fontColor=#ffffff;" parent="1" vertex="1">
          <mxGeometry x="-1200" y="-190" width="30" height="30" as="geometry" />
        </mxCell>
        <mxCell id="WpvzncnOpUpJatyWA8I4-20" value="3" style="ellipse;whiteSpace=wrap;html=1;aspect=fixed;fillColor=#6a00ff;strokeColor=#3700CC;fontColor=#ffffff;" parent="1" vertex="1">
          <mxGeometry x="-1200" y="-90" width="30" height="30" as="geometry" />
        </mxCell>
        <mxCell id="WpvzncnOpUpJatyWA8I4-21" value="&lt;ul style=&quot;font-size: 11px;&quot;&gt;&lt;li&gt;Overtime recording&lt;/li&gt;&lt;li&gt;Scheduling&lt;/li&gt;&lt;li&gt;Absence Recording&lt;/li&gt;&lt;/ul&gt;" style="text;html=1;align=left;verticalAlign=middle;whiteSpace=wrap;rounded=0;" parent="1" vertex="1">
          <mxGeometry x="-1000" y="-350" width="180.5" height="30" as="geometry" />
        </mxCell>
        <mxCell id="WpvzncnOpUpJatyWA8I4-22" value="&lt;font style=&quot;font-size: 11px;&quot;&gt;Absence &amp;amp; Workshifts&lt;/font&gt;" style="text;html=1;align=center;verticalAlign=middle;whiteSpace=wrap;rounded=0;" parent="1" vertex="1">
          <mxGeometry x="-840" y="-350" width="100" height="30" as="geometry" />
        </mxCell>
        <mxCell id="Quokv1effK1ixG7RQ9Ke-1" value="&lt;div&gt;&lt;br&gt;&lt;/div&gt;&lt;div&gt;&lt;br&gt;&lt;/div&gt;&lt;div&gt;&lt;span style=&quot;background-color: initial;&quot;&gt;HCM, Recruiting&lt;/span&gt;&lt;br&gt;&lt;/div&gt;&lt;div&gt;&lt;span style=&quot;background-color: initial;&quot;&gt;UK Payroll&lt;/span&gt;&lt;/div&gt;" style="shape=cylinder3;whiteSpace=wrap;html=1;boundedLbl=1;backgroundOutline=1;size=15;fillColor=#ffe6cc;strokeColor=#FFFFFF;shadow=1;" parent="1" vertex="1">
          <mxGeometry x="-1470" y="435.78" width="160" height="140" as="geometry" />
        </mxCell>
        <mxCell id="Quokv1effK1ixG7RQ9Ke-2" value="" style="shape=image;verticalLabelPosition=bottom;labelBackgroundColor=default;verticalAlign=top;aspect=fixed;imageAspect=0;image=data:image/png,iVBORw0KGgoAAAANSUhEUgAAANMAAABVCAYAAADT7tEcAAAAAXNSR0IArs4c6QAAAARnQU1BAACxjwv8YQUAAAAJcEhZcwAAFxEAABcRAcom8z8AACAVSURBVHhe7V0HdFzVmb4jWbbBGEJJYnYTSNndAAmQShpZSCPZQLLZTZxCc2Jr3psZNTdCnKbkUGzJFnLBYGOCg40tvfdmVFwxgdiwCyEcWkJJII26xoAdSZaLbEuz3/e/+55Go6myjGXzvnPumdHc/t//u/9/y3tSAUY2Xq5Vp+ycqy7MFfYgdM1T5ydr1VidLUCANyf6VqhxW+eqcR2z1Xt21qub9zaqFV31buisV08lb1TJnGGxSvYtUMmuueoBL1/vfLViZ52ajTJPZNl9CLq6AAGOLnTXqQ/33ai+DMvy830L1FYQYSuItF3IcVN/6AVJkCZv6J6H9AtT8t7sE+wVxG/d2yDlV7DOjnr1Xt2MAAGOTCSXqlNgaebsvUHdBuvRKRYFBNjXqJL7EfjZnYEoQw0kWGrZQjbUibi/7p+vlnTWqauSywPXMMARgleuU29PLlMXwhLduH+hejm5yLUcINQg5T/UwSMqiCSWS4i2QD3fVad+gr8vxPrsWN3sAAFGFuBizQJpHqPi0l2jEtNapCt5MWFPg0sCht34nilNoWEX2nIAbWLbSPADC9TdXfOUoZsfIMDhRXe9mnBgkZoE4vxJ3CoEKm4+940ko3Iz9MBqeeue9CDl1KvXkWcHrVumNHTlSDqvvLx160/m6wFJO+eqp/tuUpf88So1XncrQIA3DslaVYJ10A/33KD+QKXkbE9FTlfc1EACcZOAhKOFIAH4iXK2QaGvxeeP00PHHPWdXXPVx7bPUZ/C+ut7u+cNTgOLuBChh9aLZYrlQR35NjOQR6ydpEcf9s1Xm/FbRHcxQIBDD8zsk3oXqie5HiI5MimqF0ggKrhYEKSHsj4JAj2OdUvjjtnq3L6F6tyOG9R7dNFDBso9q6dBncsyO+uUdaARddSrP0u9sHpisXKQndaKO4vcvEB4fOds9TlddIAAww+sL87ouxEWZK7qpeJlU04osWw4eBYCf++FKzcH+WYlbVWqizvk4JkT2nMtrM+NXnsYaI3QlsHtRoDl83YAd8DS/RiTxVt1cQECHDzg0o3qu1mdh7XLX5PLsisjg8zwsAZ7G9RepP8fWJ7P4PMcXdRhA11FWKevod1/EEvpEiZjYN9kfXYr/mYfGtWZupgAAYaO5FJVBsti9cJFowuUSfkYfEuEdL2L1WqQ6mJdxIgD114HFqkNJJS3dsvUJwZv9w+kmqOzBwhQPHZco07vrldNtDTZtqXp6jEei/fdIN3dexrVhTr7iMaTtWp032J1EazQ70GmPq6rMvWPQawUiAfrVvf6teqfdREBAhSGjjplQMn2cVbOtjbyZm0o5eo9N6iLkC3k5j5ywDUcrM7lsFTruQ7kjmCmvnIy4WZLT6Pa0TFHfUlnDxAgN7pApH2LVK8cuqYplb+egDVC3DN0mXS2Ixr2RFUKIv0MfdxBK5RpAuFvvQvlFsXOHXXqEp01QIDMIJFobXiYmb7JwL97QTAs5PfD5bmj6yjc6UIfz8JksYVWiJNGav9FBvWuNd7bqHaBXIGFCpAZUI7yfQtVbyZXR3bpeMeuQe3orFNf0VmOSrzQoI4BqSJw7fq4oZIuC04qB0Co/QtV1/bZI3ejJcBhAmZcU2bjDBaJ6wW5UbBQPfSPOvVZneWoB9ZSl4Iwz2c6U/MsFNaKu4M1VAAfUJTJPQtUX7pFIqnkTAbKBMW6bsccdYLO8qZB13XqjN3z1G3eLYp0+dBCwZp3dgYWKoBnkTKtkTwiwTJdrZO/aYEJZwk3XQYRyrNQDWrv9qPc/Q2QA7RI+7JZJO7YgUhQlh/r5G92hCCLX2YiFINs2ixQXUf7ejJABtAt4TZvJovEXay+wCJlxO5GtTirhYI88X3v3jr1rzp5gKMdyYmqFIP+2/SdqsAiFQbI6pZMayjZ8XRlukwnDXA0A+uj4/c0qjtkhypFERhIpD4eWDaoWTp5gAxIwuWD9V6ciVD8uxeyxeccbrHrLAGORnTUq6rkLYO3ekksbkR0zVM/0kkD5EFnvVqW0bpz4waT0vbr1Sd10gBHG7oa1Zkg0YuDNhzg7yeXiCI066QBCsDWGWoc1pXynr/0dSfvLe5qUPfvvE69XScPcLQAVmcMSPMgF8+pg87AA9me+erVzgb1CZ08QIGATL8B2e3jPcZ0QtEDwOctOmmAowFyM3quqty/QB1I9/G5cwe35JUdc9T5OnmAIgHX+dLeBaqLN0VSZcs1KLyAzs656j900gBHOjoXqZM767LMnstUsnOOmq6TBhgiYKF+pS2RHyhrrqm66tRzOlmAIx0g0kKegaRvOuwDuXY3qk3dN6hTddIAQ8SeevVeWKLfc8JKlTE9gQM3qh5YrwqdNMCRCr6xZ898tT19kOmC0C15eY46TScNcJDYWac+K++WSJm0aJ34yD/c6Ue3zlVv00kDHGng+xs669VmDjB37FLJxN8wW87n49s6eYCDRN+tajzWn+08f0p1p2W3FL+BbHU6aYAjDbvmqq9yG5yvr0ol0v4F4vK92tGg/kUnDTBM2DlbfQFeQE/6g4UcB5Cqo2P2wb8jMMBhANZK9/IMJHVQeaDI+3hwRb6okwUYZkDuNek3TOSqEb2BOjVXJwtwpKBrjjp/d6PaLsRJGVRuRGBA730jXwb5ZkP3tepUrEef4QZPquwPQPaYzB7ZOT84yD1iwPeAd85T1+hbDf5gypWhxWp/d2Nw7nGosbNeTe+7WfWmWidZO92skljHXsn7fTppgJGMzkb1vl3zVBd37LyBZJCdprnqzuB/wR56wM07DkR6hv/cLXUMxFrVq7+9GZ9aPiKxvUGdLRsPKSfyPO/YO1/1ds5RM3Wyw4va2hJlPFzmh4n2yHM7a5Mlo6PWdFW1dkmoev2ScZXOd6XdBQIWKMGHBlOtkzw/Vq92dtSqk3SyACMZO+rVOUkMYiqZ+GpjDO7+voYRMohh5yJVteE5ZdjPqcq1z4VMp/2sWntkbdMbViQ0/e6kmnpXUk37dTJUua5XheNf0LF5satBnccbEKnjoHf19vCfCuhkAUYyOOt1zlVtXDNxMCXcJGRaNGI2HsLxb6hp9yRVRXtS1WxKlprOC+f+aO3IevWwaf2YJFKm44aaO5Oq3PovHZsXfXVqPIjTnj4OWMfOh6sdnO8dKeAt8T2NasWBBerB3kXqwT0NI2xL1oh/HZbJVdKKNcnSiP3sh65q+ycdOzJgWFerqZv6yVS1PqnC1td0bEEgabB2vZ3jcADjsOsGNS+ZDDYfAgwn3iRkChDg0CMgU4AAw4SATAECDBMCMgUIMEwIyBQgwDAhIFOAAMOEgExHMWo3j1Ixe4KKrZugZm6eoKYsK+6mAPNJQBkzfzdB1daO0jF5cfLkW8dLnQyTlr9F/1wcjKVlUq/0ISXMRJumWAd/64Fls30ZcKKx9ASJ8+tE2gvy9P9gyHT5irf58p6yemg3sKust/rjJUF/T8Vwk2lymzvOfp263intxffhkqXH+mVR3kPBNxuOcXVm3YRjUc7pk5YP053NWOsHVSTRrSLxbhVt7Vaxtr8pw/mojs2NsD0DCtENgbuhci3KaWlFeXkfU56AQS2JtTyqYu2ok/W2P1twvcDba5reVRJbcwXa3aYqUK/XBi9EW7pR3t9U9Z3fV5euKv4KS8w+Thn2Lapyndsv05mtqhaM0bFqVHj1x0sr2p4QmXl1Sv8TbTn7P1QyhZsuwti8ljJWu1TEmaxj84Pkq9loKtPehjHqb7OJsvhZs/EqZa5y3xVuNP1wWMgUsT6nqjZegTofkXH260RgPwy7E2NXM6rc+YzOkRvlLf8WirU/4JfFsTGabynqfqMQuW2LqzPx7pLKNd1l0eYrdexBwmw5D41KooIkFDCpZmxOhkznNh2bHdOsYyCM10XQ0VY3xBB4nyvc/DGdKjNoDU2nXa6p6LyhaXcnQxHrWp0iN6JNnyqpbH82xLoq17rt9trgB/zGPvFaTOW6h6GAP9S5C0O45b0YNCg8AuVjOj3yO/odiiSWo/ztbt9T6mZ9TGtY2d9oOhQyTWn+CvrZKWWzvmrkj7b0oZ7LdYqcGAt5QXEeU9N/445RJnlNvwefib+LsplWWMbxYMhkWN9Ge3tE/pRhxjFCQD2hWBsnvxt0zuzgmETbnnX1huMLvQHpx8Scwh6LJ+kMZ4mCrrntQZh5H8bLLk43ssJo+aQMjic4KFBJLP738TXW+3SKjBgVtWeFKtb2QkmTbkgguAqiws40lUxmvzrCi50miEghs85K5DHjTwpBcwFllpj2lVDmf8gAMy/rZfsp4NQgBEC7TNtVhmr8Vm79QpeUH+XWuyHk/b7QzfhOKNkX0cc7RCnZT4mjUuCTMpDZPL5AJotsKJZM5c1fQh27ZdIw0BfWW7l2J2bkr+oUOXGMaZ1XUgGLJnUiP9vJNldvHCwvfhrO7xCWS32eThRJplKj+Voofa+ML9ucqT6ZiPA7y/cmPcP+ZV4rU25NF5Jy3JkX5YZM60EdmxvGr09AHZ1+vfysXPcqxmyY/h1ORcvJaFibqpLZ12+g3G7OBdNaqKa6lyFDUDoo+R5RXg626WzVqbLDsJ7rJ9NalOE8rWOyY8rqL4J4+6QODhIHgcphWFfBpYDLlxJoXdkPxlOJqPAcxHKsBwpBKpnYRhk81oXfWI4rK+222LtCbNNVmOXCzk91CZlROJlCykh8Ge4ILFIKkWKte1BHYQ85VqDcCMiROllGWg6EDGs7fq8YIC/DvkHkSSWnRWZ9Xp5iyGTal4mye0SSSc15HfoyJbU+jPcv4AF1a31xx4nW0LAW65IyYyIm4rC1S9rKfEKI9dsKIkQ0/h6OlU8mTrCGdZ+OHSYY8Z/03xJGpzh4YbgGWXD8NOskWIc1ImSZwex7Q0bzXBk0CBGD9fJpP1yXfZ1CN4huknQK9SHPmIg1X8dmBtsTbXnFtWIkh8wq+1S5/T2dYhBC0dbZWAv0EwoDi9+eE1cmH9LJJANHC5TgIwlbSqLxb7v+tz3hxGjTO8vY/khipSy2c6FQMk1cekLItGFRIGOZOKCcFWs71ORVX9cp8sO0E+LSeO2XWdzZgnZmXtNFWqKQEV2u/jwMhZIp0vwBktUnEolS0b4dZVyoUwxEVeIdsIJ3Sfmsh/mira+KO5cFpxpLjy0xrM39lhP10FPg+j0fTHsl6uqTfNSJ2JpekLxRxw4PxsXsGSVVa/tcpWOnIATDXp3NXSmNNH8pxFmfaTnzhO1NYh04Y6MMun+jYk72/yphWCt8n5wzPmcZI36Gjs0Mw1rvKwbbyXpzEMlH2FqGtBAa8lHwaOOYqLPiyymbCRmRkUwyo3VgdjxOpyoehZLJSFzvKgz6yjbIhGOX69i8KINiw/3ZKgoqbaecW/tKI02X6CSZYdi/7VdUHQolk2H/yicGZVXRvksmzhw4sdo+rbSi5QW4hW4+TuqRONZPOZYJ9JoqN+gxRXCt229z7nDy4caIs1G8FWmfHtfIiuF9p99ZMfs4zIJ/dGd9No4zi7NDTGomUECVFJpWasNei4b+iM/nSP6pVPr4jTr1YBjWIn+3KCKzfY+KNp2pYwdhfFXTp0qjide1Muv22U/DKhSm1NGWe3wFhhAxs/Womjxb8elk4kxLMnPSKOKp00EohEyGVedOTK5rWQLlHh1pLu5F+Fy3pm4iUGZh6wFoVe62yw6cHlsvbyFkogsVbd3mk7eC3k3zOh2bE6GIdZs7UULGlHesrQN5P6yjB4Nra3pGnrvNybVqbbIskviATjEYfI6seuOufoPBCdx+Qo4Khh1h+1F/RnLJ9AIGffDsDWuFNdIvZTbgYFPBY87nRcmm6s5BkKVR52HOOjqXjwmx+OmlEecRn7h0DQ3r1ox1eTCdb/UrBpX6HuaJ6Nj8MKwWf0aiMDFDj4o0T9WxmZFOJvY31v443M2sLkhByECmc6dZ/Q8HRpzrxZcXItGSboKSWJvPq1p5vE5RGMoTVQPIJHIuYNPiKripJibH1DV0IWQyYE28pQJlTHmFV39cx+ZGzD4f6beJLnleh7E65zHJ2EjT1aGKdnhT7oTD+kDKRTp6MEwnZYdST4wRq/CjhaIQbv6G2xk0Tpi+fj8aeZ2O7UfVs2OgZJ3iw3tkql5zmoquOhGK94TMSGhwCGuV0ormL+lcPkCkS0L+Ah6d4pbsFCv7op2Hsob9k373AXVWru+Ashf85Cfa+QH0ZadPDHftgFk6B9LJxDYb1h06dujIQKaPz+LhJSwGz7I8i0RLKN9bHpLD2iLAQ8hS01rly0z6zDqtb+okuRFuqlTTUohYEJnglvrehiaT0fzvOjY/wtZTojsy2bVzMp6oYzLiHdOWnYTx2C16yDqRNxSJP//WTOthunKmjbWyt2mBMa1a/49Cd0SLxxS4WR5BWKHL4sHnTXT9DOclNy1cpojTPSZmuW9INazf++6fDKQ1+IWPRuvnfWUCEUOV7dtHR5qy705NWj4BirVXSMs8MsPaG3RsYZj8v+ORp8Mvg/Ub1j06NjPSyUTLZjiOjh06MpCpwbKOGQ3lkXUo3V7G0WWOtT2kzF8V/Uj7+Ij1Pkxa/WMp5XECs76lk+TGEG5AYHJaOMDtkrW0dYGOzg/D+ZMQkPlpZUz7yZzHK1xTRZzFvseBUII2j2bb0xFOnIqx7B04Mdp36thDAJ5+m/FXUpV2lGklPtGQdvZjOteo6vX7RGCwPiGzud7fqKA7JZbJnZkgkPtBhv6rGvJmnrghgmYdcCVC4TxnBFxUGg5P/P124e/iBGGsOQXC6z9fEGW279axmfGGkAnucMR+/J1TnfeHovHHfWVyJ6r7lbHqFJ2rOBirzpAx8MjEw81I/PVR+Q7TPRRJpgk1TWeOjTmv+fLFMgF/P316Teu7dJL8SCMTZP/X3GQCwtbZWJq83j8BcYziS9LPK0dHrIWhyjV9IhMGeUGMdZOOPkQw7Vn9QownR1e29p5U2TzwrTSGc7trteiicdHY/AMdw8Xr+4RkHETX/L424K4eNzoMe5tvbl2//CEdmxkumeCiHYVkQtmYcF4oMe2/+BOM5yKVr/qIzlE8OA5SliYTyFBiWL+eWOhbkIq1TLGW82Us2Xamp1WNFHgrwcNgMj2bl0yE6SzzzjulfuoWt+hTwa10Eo1pqAP0dKgThxSG8ws1A2sYEoUVU4GiiYt1rHtfLRJPiEKjUaFIYscY7v54YCeEILpT0ZZtqnzFu3WsUjM2jUO5r7odxkAz5Fv7HM1kghxApGfKInZCyOQpIyzWKKO5RecoHulkoszCdquOzY9iyWTGPy0bSj6ZZLIdvN7OhSGSqcSM/wzt2y91C5kwiYctX2fp8sLq/8XfZaTuGdafVTTHOeiwIAwrVLn2/+gWeELEQrZf2SlQClbiqBDcak0BbwGb9n2+UGQBbS3XsRAYNxOcrQPIZKzJ/X+SjmYyQU5Y2zw1cY59Asqu82XLdvIyZ7SINUcqhExULk0mktO0Hv3grAK3gYsk0/ga5+NlFZCTRyb0ryzqOOfMWDFOJ8mPoVom977dS35e7kiHrT/oWBA9YfqWi4FeVdi6QsceYvB6RbUeVLAZbshDUMZjJW5y0+dFmRnH9U7EuUt+T0XYjvlbkBwQ3ur14M4iPSJ0Kikvypp5/OrwylOlLE+paa7D9hodWxhGNJnsZ2O1sPjoZyja0iPK4N8eWNOByaT4/9phxM8IcUL0lBukKqts6zmpqin3FTEPRZKJpCmLYL3sTQaorzTWsv+YQrfGiaGSiSi3wiI3sUxt9JheOanKOkvyU+dSN0aqNvC2fe6D62GD6TzmC4UWhCf+PAOamCyFJWpwG50AyeJ94yoSgwZ6VLR5VkjOG6AQTBtre0AUk6AyekSjX21Y03OedBOXrTwegt0wQNCx9qfQlrN0ivy4HO7lgN08EgMWNBfeQDK5h7aQQyTxNcjMtcIklMivvQNpM1/HyYLjpyw7qSRsbXI3g1APg6tQhe3mhZtnFOXmEWbiGj8PlVbWgE2Ftzts/3HIZOIBb6qbKdv68VnqAnk6oad/DLmL57Qf1KF7UeB5UyThXi0Sdyz+mpwST9o8FgTZI7+5V1PQsMEu2thY/PRQtPVJLRD3NoThnhmUGs2WO6j4nfepeNBbCHg+IqYa+Vim5LUNHZsfEedaKJbrV8tuztq+kGnlfszkDSeThtH07ZBYf7aVhFqXLInE/3G8d/xQKMJ0b/TEJe1HmYWcq/DhRtO6xp/NGQoiU3yhuyGFNlPOHP9ctxhSwQNpM2VdUyyZJL+zzr2Bg/rR3lFYh46tsD45YAyrNvSCtMXdJDkolCfeIQPp+dvVG0Es3QDDcnfi5IaE/TjSZD5MNOz7+91BfJYnPnH69PgZZZWtO2TWZahav1VF89xM92BYX4aA+UCZLpOD69w2YNs9F0xYNhE08nIi4Ge+mwyHiUwn1Cx/S4lhPSmzKNNQOWRGtYt7M225c/WAS66uguW/DAq5hExnt7/drPPmJxOsXtU692DcIxMfMiwEUR63bBp4164YMhFRyLVyfZc3XugDx2sv5OdebO33sjKvG/n8Vc3dJvL8t/7l4DEGSlTCSj0lcmeoZeicgU7uFYWmYoatqM4yCGOi9q/kkQSSUj6dVejUlaKQMnNQmeCGFAr3+ad7fQVjG7hr8/2V+V09eVH+upddF4+KuZE7aFtSn5rNiMNlmQhOaLH2R7TsXOWUPC0/0yny4oRK63Mlsbb++4xQJpD0xVO99W82RO2PuB6JnnQYCiETwTNDuqa6b2j36zJ2eYC19xpXN3R9zFssmYAQJ/jUIwZv7BiETPZz/vrfAzdJDCeCNPXwfuagjLmQwffzPltXEORgFbOaN5Ozk5HEIpjHle46BwrJK0CmM03nGITR3E0yHPfEmZ3gbgt3VTzlEKtl5z5fSkOJac0UYnsConWsaH8IpMx6Q+A4Y9UpEM4Lsl3PdtM15cNg0fhndZLsOJxkIqbcfmaIdXuTAL+LwsEFKxDo+8O+ksoEREJBUbKBm0Gx9idcxUMeLxRIplKz+Sv9j7ywf2t7Q7HWxDtyKWbYqoYcYJV0Hsk3NDIdE7O1jqWU5QXqXHnzZYPW6Lz5w3t7nPCn3nWNXCgOW5WqWLc6G0oMp0IeCZdGyGAsxAx/k3xnYyvanpTt12wQV9He55OJN9L50BjzclAjLVi/2N/RqQuHYV3vDhZnTVoZuj/OE3Jj+XLMMKkhbF0cql6/xScDAycBw7Z0ablxuMk0sXZ0yGy+UdY9Xn/RlhAUe2yMSlEATOe7IcrfszK05rHWbWVR6+cn8C5lqrzMtrNQvvtIOMkj/UadzFeoZeKzXGYi7rv4CLyHGYrYbXJ3M6W+cVgihHj3k+1j+e4BvhuGSCa4tu9XsZZ9fn/9AHJVrtsvTy2nYlLrWzCmFe7/ynKWjKuwLsUEtF4IZ8ZrhsU6va3aOac0mnhehO8KZikqu1W+y5UNK/c5z0S7NMRn7WVQxM14EaFRBMdBClsH1BW3n6xTF4doYp4MOH16WhuZiZztaN/WAYG7OP6sDGGKuxp/BO15py4pNw43mQQY1EjL4gGKxiOJWNsjqgaKkAe18DJQ/haXkJCBWOe2ZMhd6L+SJi+uJzi23JzZGOKDiV7fCyUTcGx45anQnef6Nz9QrztGA+sznFfld6nT+RPq+02/RRsimXiOaWLSn643qzyZye2HuI26Brr2U+7kZdmr9fnnfLRhJfo5e6JtlyLfNYNcwiGDW8dUIApU3DQb6w58d8m1UafKDq6p5FEJdIpC8g6CQa4y095xMh+pHhpCKtw8W3a82D4hKMrmZ2oQRUC9HCz68RXtD6rJqwuvkxsUJKy3YSFkhG9/sBhEJufPZ/8AljwLzqqtHV0asZ4RhfYURIiN8SnkWRxa7Yp2dy0hZSA/5ZIuL7rwiB8Via+UfKb9oIw1x4/E4C5vgTiOj1REWy3Jx3ppKdLrY0B9oVj7XrlFY9inSfu894gY1ktFk4kotz+I/r4g5UtfEWru7IMOL9EpBoJuXtiZXBLDsqX8jg/Cit6MJUUN9PdsnWIYYNo3qxlb3INXukcMPD9yO/whnSo7ypv+E0pzQPJxoFgOP69+AAPm/HRiMa9nyoCxVYmrS6rWb4aQdshWOctODdxK56BUrLlPVa75urpsQXHPA/Gmcdh6Xs3c7CrTzC08pM7+vEyh4K7RD+532zjzPt66f+kj03PfEys1HchyXY8vS4YfPQRFyXPw7OHSm04sibZOgSx+J0Rmf3w56e9VGx7DuFbzsXDJw6dm0Wc1A7Ll2deU5k/L74Vi4sRSTEZLSyrXPMqHG2U8Uut0n316Wk2+/aOiC1w2RFtf49uxRO9gHYdEJsKwfuc+vQAiCani27Kurel+ms7MMTE+77Tx4rKYMxl9ryr4wdOCII9aoFAzMU2e2mTgd6O5KusTuOmga1C9oT8/Q/UmlJHnEfViwKd+WWZqHQyxtmkYoIN7+IsHwyxb9/u46UO8xZ0Kvt+gcp3bRn7qM7i84OLel6Xl5g1bl+rYwsDNpUg8qmKpY6o/uZZJxTexXjCap4IETFPUoXEqLqldeuyYaHyKjEdqnRLSFDza/DGpj2kP5gWivDzt7epxqWLYL/L/9OrYjDi20roY7uBPxvFB1wABAig1vqLl5JDJq0ncooc7K6Syr8x70yZAgAADMcqwpodquCblZgbXzHD3hnphOECANzOwBm3Vm2TuRk00YSm+0z5AgABFgM/jeTcwGKbdzaOH/K9dDhAgQAqiLT/zj3L0xkMomnh2LLfcAwQIUAD4BqTqjQtlo0GIxHPNhGy/l0WsSTpVgAABsmLS8rEhvuU32topZ1jcbPBuxMg78VoWy/Z+gAAB8oC30XmPjofA4ta1yYZDSaztRRWJ1+pUAQIEKAh86yt37sTFa9taVtH6G3liIUCAAEVCXqbCWzpOPd98dUG+f4EaIECAkQSl/h8mmq15k1yedAAAAABJRU5ErkJggg==;" parent="1" vertex="1">
          <mxGeometry x="-1433.38" y="475.78000000000003" width="80.5" height="32.43" as="geometry" />
        </mxCell>
        <mxCell id="Quokv1effK1ixG7RQ9Ke-3" value="MaxiMo" style="shape=cylinder3;whiteSpace=wrap;html=1;boundedLbl=1;backgroundOutline=1;size=15;fillColor=#e1d5e7;strokeColor=#9673a6;" parent="1" vertex="1">
          <mxGeometry x="-925" y="340" width="80" height="80" as="geometry" />
        </mxCell>
        <mxCell id="Quokv1effK1ixG7RQ9Ke-4" value="" style="edgeStyle=orthogonalEdgeStyle;rounded=1;orthogonalLoop=1;jettySize=auto;html=1;entryX=0.855;entryY=0;entryDx=0;entryDy=4.35;entryPerimeter=0;dashed=1;curved=0;" parent="1" target="Quokv1effK1ixG7RQ9Ke-1" edge="1">
          <mxGeometry relative="1" as="geometry">
            <Array as="points">
              <mxPoint x="-1333" y="380" />
            </Array>
            <mxPoint x="-1035" y="380" as="sourcePoint" />
          </mxGeometry>
        </mxCell>
        <mxCell id="Quokv1effK1ixG7RQ9Ke-5" value="&lt;div&gt;&lt;b&gt;Work schedules&lt;/b&gt;&lt;/div&gt;" style="edgeLabel;html=1;align=center;verticalAlign=middle;resizable=0;points=[];" parent="Quokv1effK1ixG7RQ9Ke-4" vertex="1" connectable="0">
          <mxGeometry x="-0.115" y="1" relative="1" as="geometry">
            <mxPoint as="offset" />
          </mxGeometry>
        </mxCell>
        <mxCell id="Quokv1effK1ixG7RQ9Ke-27" value="&lt;span style=&quot;background-color: rgb(255, 255, 204);&quot;&gt;API&amp;nbsp;&lt;/span&gt;&lt;div&gt;&lt;span style=&quot;background-color: rgb(255, 255, 204);&quot;&gt;or EIB&lt;/span&gt;&lt;/div&gt;" style="edgeLabel;html=1;align=center;verticalAlign=middle;resizable=0;points=[];" parent="Quokv1effK1ixG7RQ9Ke-4" vertex="1" connectable="0">
          <mxGeometry x="0.507" y="2" relative="1" as="geometry">
            <mxPoint as="offset" />
          </mxGeometry>
        </mxCell>
        <mxCell id="Quokv1effK1ixG7RQ9Ke-6" value="Genesys&lt;div&gt;Call Centre Only&lt;/div&gt;" style="shape=cylinder3;whiteSpace=wrap;html=1;boundedLbl=1;backgroundOutline=1;size=15;fillColor=#e1d5e7;strokeColor=#9673a6;" parent="1" vertex="1">
          <mxGeometry x="-1053.06" y="340" width="80" height="80" as="geometry" />
        </mxCell>
        <mxCell id="Quokv1effK1ixG7RQ9Ke-7" style="edgeStyle=orthogonalEdgeStyle;rounded=1;orthogonalLoop=1;jettySize=auto;html=1;entryX=1;entryY=0;entryDx=0;entryDy=42.5;entryPerimeter=0;dashed=1;curved=0;startArrow=classic;startFill=1;endArrow=none;endFill=0;" parent="1" source="Quokv1effK1ixG7RQ9Ke-6" target="Quokv1effK1ixG7RQ9Ke-1" edge="1">
          <mxGeometry relative="1" as="geometry">
            <Array as="points">
              <mxPoint x="-1015" y="478" />
            </Array>
          </mxGeometry>
        </mxCell>
        <mxCell id="Quokv1effK1ixG7RQ9Ke-8" value="Absence Balance / Holiday Entitlements" style="edgeLabel;html=1;align=center;verticalAlign=middle;resizable=0;points=[];" parent="Quokv1effK1ixG7RQ9Ke-7" vertex="1" connectable="0">
          <mxGeometry x="0.064" y="-2" relative="1" as="geometry">
            <mxPoint x="35" y="-1" as="offset" />
          </mxGeometry>
        </mxCell>
        <mxCell id="Quokv1effK1ixG7RQ9Ke-9" style="edgeStyle=orthogonalEdgeStyle;rounded=1;orthogonalLoop=1;jettySize=auto;html=1;entryX=0.5;entryY=0;entryDx=0;entryDy=0;dashed=1;strokeColor=#007FFF;curved=0;" parent="1" source="Quokv1effK1ixG7RQ9Ke-1" target="Quokv1effK1ixG7RQ9Ke-13" edge="1">
          <mxGeometry relative="1" as="geometry">
            <Array as="points">
              <mxPoint x="-1250" y="550" />
            </Array>
            <mxPoint x="-1470" y="620" as="sourcePoint" />
          </mxGeometry>
        </mxCell>
        <mxCell id="Quokv1effK1ixG7RQ9Ke-10" value="ABSENCE" style="edgeLabel;html=1;align=center;verticalAlign=middle;resizable=0;points=[];labelBackgroundColor=#FFFFCC;" parent="Quokv1effK1ixG7RQ9Ke-9" vertex="1" connectable="0">
          <mxGeometry x="-0.125" y="-2" relative="1" as="geometry">
            <mxPoint x="2" y="38" as="offset" />
          </mxGeometry>
        </mxCell>
        <mxCell id="Quokv1effK1ixG7RQ9Ke-28" style="edgeStyle=orthogonalEdgeStyle;rounded=1;orthogonalLoop=1;jettySize=auto;html=1;entryX=0.447;entryY=0.964;entryDx=0;entryDy=0;curved=0;dashed=1;fillColor=#1ba1e2;strokeColor=#007FFF;align=center;verticalAlign=middle;fontFamily=Helvetica;fontSize=11;fontColor=default;labelBackgroundColor=default;endArrow=classic;entryPerimeter=0;" parent="1" source="Quokv1effK1ixG7RQ9Ke-13" target="Quokv1effK1ixG7RQ9Ke-16" edge="1">
          <mxGeometry relative="1" as="geometry">
            <Array as="points">
              <mxPoint x="-1250" y="730" />
              <mxPoint x="-1536" y="730" />
            </Array>
          </mxGeometry>
        </mxCell>
        <mxCell id="Quokv1effK1ixG7RQ9Ke-29" value="&lt;b&gt;BOOMERANG&lt;/b&gt;&lt;div&gt;&lt;b&gt;INTEGRATION&lt;/b&gt;&lt;/div&gt;" style="edgeLabel;html=1;align=center;verticalAlign=middle;resizable=0;points=[];rounded=1;dashed=1;strokeColor=#007FFF;fontFamily=Helvetica;fontSize=11;fontColor=default;labelBackgroundColor=default;" parent="Quokv1effK1ixG7RQ9Ke-28" vertex="1" connectable="0">
          <mxGeometry x="0.3135" y="-2" relative="1" as="geometry">
            <mxPoint x="53" as="offset" />
          </mxGeometry>
        </mxCell>
        <mxCell id="Quokv1effK1ixG7RQ9Ke-13" value="GET&lt;div&gt;Work Schedules&lt;/div&gt;&lt;div&gt;assigned&lt;/div&gt;" style="rounded=1;whiteSpace=wrap;html=1;fillColor=#D5E8D4;strokeColor=none;" parent="1" vertex="1">
          <mxGeometry x="-1310" y="630" width="120" height="40" as="geometry" />
        </mxCell>
        <mxCell id="Quokv1effK1ixG7RQ9Ke-14" style="edgeStyle=orthogonalEdgeStyle;rounded=1;orthogonalLoop=1;jettySize=auto;html=1;entryX=0.03;entryY=0.769;entryDx=0;entryDy=0;entryPerimeter=0;dashed=1;strokeColor=#007FFF;curved=0;" parent="1" source="Quokv1effK1ixG7RQ9Ke-16" target="Quokv1effK1ixG7RQ9Ke-1" edge="1">
          <mxGeometry relative="1" as="geometry">
            <Array as="points">
              <mxPoint x="-1540" y="543" />
            </Array>
            <mxPoint x="-1562.8" y="645.3599999999997" as="targetPoint" />
          </mxGeometry>
        </mxCell>
        <mxCell id="Quokv1effK1ixG7RQ9Ke-15" value="&lt;span style=&quot;background-color: rgb(255, 255, 204);&quot;&gt;EDIT POSITION&lt;/span&gt;" style="edgeLabel;html=1;align=center;verticalAlign=middle;resizable=0;points=[];" parent="Quokv1effK1ixG7RQ9Ke-14" vertex="1" connectable="0">
          <mxGeometry x="-0.0856" y="3" relative="1" as="geometry">
            <mxPoint x="13" y="14" as="offset" />
          </mxGeometry>
        </mxCell>
        <mxCell id="Quokv1effK1ixG7RQ9Ke-16" value="&lt;div&gt;UPDATE&lt;/div&gt;&lt;div&gt;Position with mapped&lt;/div&gt;Work Shifts" style="rounded=1;whiteSpace=wrap;html=1;fillColor=#D5E8D4;strokeColor=none;" parent="1" vertex="1">
          <mxGeometry x="-1590" y="640" width="120" height="47.5" as="geometry" />
        </mxCell>
        <mxCell id="Quokv1effK1ixG7RQ9Ke-17" value="1.1" style="ellipse;whiteSpace=wrap;html=1;aspect=fixed;fillColor=#6a00ff;strokeColor=#3700CC;fontColor=#ffffff;" parent="1" vertex="1">
          <mxGeometry x="-1093" y="365" width="30" height="30" as="geometry" />
        </mxCell>
        <mxCell id="Quokv1effK1ixG7RQ9Ke-19" value="3" style="ellipse;whiteSpace=wrap;html=1;aspect=fixed;fillColor=#6a00ff;strokeColor=#3700CC;fontColor=#ffffff;" parent="1" vertex="1">
          <mxGeometry x="-1408.2800000000002" y="680" width="30" height="30" as="geometry" />
        </mxCell>
        <mxCell id="Quokv1effK1ixG7RQ9Ke-20" value="&lt;ul style=&quot;font-size: 11px;&quot;&gt;&lt;li&gt;Overtime recording&lt;/li&gt;&lt;li&gt;On call / Pay impact Rates etc.&lt;/li&gt;&lt;li&gt;&lt;br&gt;&lt;/li&gt;&lt;/ul&gt;" style="text;html=1;align=left;verticalAlign=middle;whiteSpace=wrap;rounded=0;" parent="1" vertex="1">
          <mxGeometry x="-965.5" y="300" width="205.5" height="30" as="geometry" />
        </mxCell>
        <mxCell id="Quokv1effK1ixG7RQ9Ke-21" value="&lt;font style=&quot;font-size: 11px;&quot;&gt;Absence &amp;amp; Workshifts&lt;/font&gt;&lt;div&gt;&lt;font style=&quot;font-size: 11px;&quot;&gt;&lt;ul style=&quot;text-align: left;&quot;&gt;&lt;li&gt;Absence Recording&lt;/li&gt;&lt;li&gt;Scheduling&lt;/li&gt;&lt;li&gt;Sickness updates&lt;/li&gt;&lt;/ul&gt;&lt;/font&gt;&lt;/div&gt;" style="text;html=1;align=center;verticalAlign=middle;whiteSpace=wrap;rounded=0;" parent="1" vertex="1">
          <mxGeometry x="-1120.5" y="290" width="157" height="30" as="geometry" />
        </mxCell>
        <mxCell id="Quokv1effK1ixG7RQ9Ke-23" value="" style="endArrow=classic;html=1;rounded=0;entryX=0.425;entryY=0.016;entryDx=0;entryDy=0;entryPerimeter=0;dashed=1;exitX=0.5;exitY=1;exitDx=0;exitDy=0;" parent="1" source="Quokv1effK1ixG7RQ9Ke-24" target="Quokv1effK1ixG7RQ9Ke-1" edge="1">
          <mxGeometry width="50" height="50" relative="1" as="geometry">
            <mxPoint x="-1402" y="370" as="sourcePoint" />
            <mxPoint x="-1460" y="520" as="targetPoint" />
          </mxGeometry>
        </mxCell>
        <mxCell id="Quokv1effK1ixG7RQ9Ke-25" value="Non Genesys&lt;div&gt;Employee WSCH&amp;nbsp;&lt;/div&gt;&lt;div&gt;assignment&amp;nbsp;&lt;/div&gt;&lt;div&gt;EIB or MANUAL&lt;/div&gt;" style="edgeLabel;html=1;align=center;verticalAlign=middle;resizable=0;points=[];" parent="Quokv1effK1ixG7RQ9Ke-23" vertex="1" connectable="0">
          <mxGeometry x="-0.0591" y="1" relative="1" as="geometry">
            <mxPoint as="offset" />
          </mxGeometry>
        </mxCell>
        <mxCell id="Quokv1effK1ixG7RQ9Ke-24" value="1.2" style="ellipse;whiteSpace=wrap;html=1;aspect=fixed;fillColor=#6a00ff;strokeColor=#3700CC;fontColor=#ffffff;" parent="1" vertex="1">
          <mxGeometry x="-1420" y="290" width="30" height="30" as="geometry" />
        </mxCell>
        <mxCell id="Quokv1effK1ixG7RQ9Ke-26" value="&lt;font style=&quot;font-size: 14px;&quot;&gt;FINAL End to End Solution related to Absence Workschedule and update of Workshifts for Payroll Proration&lt;/font&gt;" style="text;html=1;align=center;verticalAlign=middle;whiteSpace=wrap;rounded=0;fillColor=#E6E6E6;" parent="1" vertex="1">
          <mxGeometry x="-1660" y="180" width="870" height="50" as="geometry" />
        </mxCell>
        <mxCell id="Quokv1effK1ixG7RQ9Ke-30" style="edgeStyle=orthogonalEdgeStyle;rounded=1;orthogonalLoop=1;jettySize=auto;html=1;entryX=1;entryY=0;entryDx=0;entryDy=97.5;entryPerimeter=0;curved=0;dashed=1;" parent="1" source="Quokv1effK1ixG7RQ9Ke-3" target="Quokv1effK1ixG7RQ9Ke-1" edge="1">
          <mxGeometry relative="1" as="geometry">
            <Array as="points">
              <mxPoint x="-880" y="533" />
            </Array>
          </mxGeometry>
        </mxCell>
        <mxCell id="Quokv1effK1ixG7RQ9Ke-35" value="Time Blocks / Payroll Inputs (Overtime.oncall etc)" style="edgeLabel;html=1;align=center;verticalAlign=middle;resizable=0;points=[];" parent="Quokv1effK1ixG7RQ9Ke-30" vertex="1" connectable="0">
          <mxGeometry x="0.4147" y="1" relative="1" as="geometry">
            <mxPoint as="offset" />
          </mxGeometry>
        </mxCell>
        <mxCell id="Quokv1effK1ixG7RQ9Ke-31" value="2" style="ellipse;whiteSpace=wrap;html=1;aspect=fixed;fillColor=#6a00ff;strokeColor=#3700CC;fontColor=#ffffff;" parent="1" vertex="1">
          <mxGeometry x="-894" y="426.78" width="30" height="30" as="geometry" />
        </mxCell>
        <mxCell id="Quokv1effK1ixG7RQ9Ke-36" value="For both Genesys &amp;amp; NonGenesys Employees" style="text;html=1;align=center;verticalAlign=middle;whiteSpace=wrap;rounded=0;fontStyle=0;fillColor=#E6E6E6;" parent="1" vertex="1">
          <mxGeometry x="-1476.56" y="750" width="166.56" height="30" as="geometry" />
        </mxCell>
        <mxCell id="Quokv1effK1ixG7RQ9Ke-37" style="edgeStyle=orthogonalEdgeStyle;rounded=1;orthogonalLoop=1;jettySize=auto;html=1;entryX=1;entryY=0.5;entryDx=0;entryDy=0;entryPerimeter=0;dashed=1;curved=0;startArrow=classic;startFill=1;endArrow=none;endFill=0;exitX=0.268;exitY=1.012;exitDx=0;exitDy=0;exitPerimeter=0;" parent="1" source="Quokv1effK1ixG7RQ9Ke-3" target="Quokv1effK1ixG7RQ9Ke-1" edge="1">
          <mxGeometry relative="1" as="geometry">
            <Array as="points">
              <mxPoint x="-904" y="508" />
              <mxPoint x="-1310" y="508" />
            </Array>
            <mxPoint x="-1005" y="430" as="sourcePoint" />
            <mxPoint x="-1301" y="508" as="targetPoint" />
          </mxGeometry>
        </mxCell>
        <mxCell id="Quokv1effK1ixG7RQ9Ke-38" value="Absence Balance / Holiday Entitlements" style="edgeLabel;html=1;align=center;verticalAlign=middle;resizable=0;points=[];" parent="Quokv1effK1ixG7RQ9Ke-37" vertex="1" connectable="0">
          <mxGeometry x="0.064" y="-2" relative="1" as="geometry">
            <mxPoint x="-29" as="offset" />
          </mxGeometry>
        </mxCell>
        <mxCell id="Quokv1effK1ixG7RQ9Ke-18" value="4.1" style="ellipse;whiteSpace=wrap;html=1;aspect=fixed;fillColor=#6a00ff;strokeColor=#3700CC;fontColor=#ffffff;" parent="1" vertex="1">
          <mxGeometry x="-1288" y="459" width="30" height="30" as="geometry" />
        </mxCell>
        <mxCell id="Quokv1effK1ixG7RQ9Ke-39" value="4.2" style="ellipse;whiteSpace=wrap;html=1;aspect=fixed;fillColor=#6a00ff;strokeColor=#3700CC;fontColor=#ffffff;" parent="1" vertex="1">
          <mxGeometry x="-1287" y="491" width="30" height="30" as="geometry" />
        </mxCell>
        <mxCell id="RmPc4709bySQoacy-7Up-1" value="1.1" style="ellipse;whiteSpace=wrap;html=1;aspect=fixed;fillColor=#6a00ff;strokeColor=#3700CC;fontColor=#ffffff;" vertex="1" parent="1">
          <mxGeometry x="-1070" y="670" width="30" height="30" as="geometry" />
        </mxCell>
        <mxCell id="RmPc4709bySQoacy-7Up-2" value="SOAP API for assign workschedule" style="text;html=1;align=center;verticalAlign=middle;whiteSpace=wrap;rounded=0;" vertex="1" parent="1">
          <mxGeometry x="-1032.75" y="670" width="132.75" height="30" as="geometry" />
        </mxCell>
        <mxCell id="RmPc4709bySQoacy-7Up-4" value="2" style="ellipse;whiteSpace=wrap;html=1;aspect=fixed;fillColor=#6a00ff;strokeColor=#3700CC;fontColor=#ffffff;" vertex="1" parent="1">
          <mxGeometry x="-1070" y="720" width="30" height="30" as="geometry" />
        </mxCell>
        <mxCell id="RmPc4709bySQoacy-7Up-5" value="Import Payroll Input&lt;div&gt;Import Time Block&lt;/div&gt;" style="text;html=1;align=center;verticalAlign=middle;whiteSpace=wrap;rounded=0;" vertex="1" parent="1">
          <mxGeometry x="-1040" y="720" width="132.75" height="30" as="geometry" />
        </mxCell>
      </root>
    </mxGraphModel>
  </diagram>
</mxfile>
